<svg width="80" height="80" viewBox="0 0 80 80" fill="none" xmlns="http://www.w3.org/2000/svg">
<g clip-path="url(#clip0_1_2126)">
<path d="M40 18.75C43.8833 18.75 47.0312 15.602 47.0312 11.7188C47.0312 7.8355 43.8833 4.6875 40 4.6875C36.1167 4.6875 32.9688 7.8355 32.9688 11.7188C32.9688 15.602 36.1167 18.75 40 18.75Z" fill="url(#paint0_linear_1_2126)"/>
<path d="M28.2812 30.4688V32.8125H51.7188V30.4688C51.7188 24.0073 46.4636 18.75 40 18.75C33.5364 18.75 28.2812 24.0073 28.2812 30.4688Z" fill="url(#paint1_linear_1_2126)"/>
<path d="M32.9688 80L47.0312 75.3125V56.4062L70.4688 37.5H9.53125L32.9688 56.4062V80Z" fill="url(#paint2_linear_1_2126)"/>
<path d="M21.25 14.0625C25.1333 14.0625 28.2812 10.9145 28.2812 7.03125C28.2812 3.148 25.1333 0 21.25 0C17.3667 0 14.2188 3.148 14.2188 7.03125C14.2188 10.9145 17.3667 14.0625 21.25 14.0625Z" fill="url(#paint3_linear_1_2126)"/>
<path d="M58.75 14.0625C62.6333 14.0625 65.7812 10.9145 65.7812 7.03125C65.7812 3.148 62.6333 0 58.75 0C54.8667 0 51.7188 3.148 51.7188 7.03125C51.7188 10.9145 54.8667 14.0625 58.75 14.0625Z" fill="url(#paint4_linear_1_2126)"/>
<path d="M29.7509 17.7627C27.6131 15.497 24.6045 14.0625 21.25 14.0625C14.7864 14.0625 9.53125 19.3198 9.53125 25.7812V28.125H23.8306C24.4369 23.9436 26.6078 20.3038 29.7509 17.7627ZM56.1694 28.125H70.4688V25.7812C70.4688 19.3198 65.2136 14.0625 58.75 14.0625C55.3955 14.0625 52.3869 15.497 50.2491 17.7627C53.3922 20.3038 55.5631 23.9436 56.1694 28.125Z" fill="url(#paint5_linear_1_2126)"/>
</g>
<defs>
<linearGradient id="paint0_linear_1_2126" x1="32.9687" y1="11.7188" x2="47.0312" y2="11.7188" gradientUnits="userSpaceOnUse">
<stop stop-color="#EB5896"/>
<stop offset="1" stop-color="#3CB4C7"/>
</linearGradient>
<linearGradient id="paint1_linear_1_2126" x1="28.2812" y1="25.7813" x2="51.7187" y2="25.7813" gradientUnits="userSpaceOnUse">
<stop stop-color="#EB5896"/>
<stop offset="1" stop-color="#3CB4C7"/>
</linearGradient>
<linearGradient id="paint2_linear_1_2126" x1="9.53125" y1="58.75" x2="70.4687" y2="58.75" gradientUnits="userSpaceOnUse">
<stop stop-color="#EB5896"/>
<stop offset="1" stop-color="#3CB4C7"/>
</linearGradient>
<linearGradient id="paint3_linear_1_2126" x1="14.2187" y1="7.03125" x2="28.2812" y2="7.03125" gradientUnits="userSpaceOnUse">
<stop stop-color="#EB5896"/>
<stop offset="1" stop-color="#3CB4C7"/>
</linearGradient>
<linearGradient id="paint4_linear_1_2126" x1="51.7187" y1="7.03125" x2="65.7812" y2="7.03125" gradientUnits="userSpaceOnUse">
<stop stop-color="#EB5896"/>
<stop offset="1" stop-color="#3CB4C7"/>
</linearGradient>
<linearGradient id="paint5_linear_1_2126" x1="9.53125" y1="21.0938" x2="70.4687" y2="21.0937" gradientUnits="userSpaceOnUse">
<stop stop-color="#EB5896"/>
<stop offset="1" stop-color="#3CB4C7"/>
</linearGradient>
<clipPath id="clip0_1_2126">
<rect width="80" height="80" fill="white"/>
</clipPath>
</defs>
</svg>
