<svg width="80" height="80" viewBox="0 0 80 80" fill="none" xmlns="http://www.w3.org/2000/svg">
<path d="M70.4688 40.1562V73.75C70.4688 77.2656 68.2656 80 65.4531 80H58.5938C55.7813 80 53.5781 77.25 53.5781 73.75V40.1562C53.5781 36.6406 55.7813 33.9062 58.5938 33.9062H65.4531C68.25 33.9062 70.4688 36.6562 70.4688 40.1562ZM48.4531 52.5V73.75C48.4531 77.2656 46.25 80 43.4375 80H36.5625C33.75 80 31.5469 77.25 31.5469 73.75V52.5C31.5469 48.9844 33.75 46.25 36.5625 46.25H43.4219C46.25 46.2344 48.4531 48.9844 48.4531 52.5ZM26.9219 62.7812V73.75C26.9219 77.25 24.7188 80 21.9063 80H15.0312C12.2187 80 10.0156 77.25 10.0156 73.75V62.7812C10.0156 59.2656 12.2187 56.5312 15.0312 56.5312H21.8906C24.7188 56.5156 26.9219 59.2656 26.9219 62.7812Z" fill="url(#paint0_linear_1_2109)"/>
<g clip-path="url(#clip0_1_2109)">
<path d="M70.5774 20.4529C70.1087 20.781 69.4993 20.7966 68.9993 20.4998L64.3118 17.6873C56.593 30.4685 45.7024 42.4998 24.6711 42.4998C20.2336 42.4998 15.343 41.9685 9.93677 40.781C9.15552 40.6091 8.65552 39.8435 8.81177 39.0466C8.96802 38.3279 9.62427 37.8435 10.3586 37.906C11.6711 38.0154 42.1712 40.0623 54.9837 11.8591L50.1868 9.53101C49.468 9.18726 49.1555 8.31226 49.4993 7.59351C49.6555 7.26538 49.9212 7.01538 50.2493 6.87476L66.1712 0.109132C66.9055 -0.203368 67.7649 0.140382 68.0774 0.874757C68.1243 0.984132 68.1555 1.09351 68.1712 1.20288L71.1868 18.9998C71.2962 19.5623 71.0462 20.1404 70.5774 20.4529Z" fill="url(#paint1_linear_1_2109)"/>
</g>
<defs>
<linearGradient id="paint0_linear_1_2109" x1="10.0156" y1="56.9531" x2="70.4688" y2="56.9531" gradientUnits="userSpaceOnUse">
<stop stop-color="#EB5896"/>
<stop offset="1" stop-color="#3CB4C7"/>
</linearGradient>
<linearGradient id="paint1_linear_1_2109" x1="8.7832" y1="21.2467" x2="71.2123" y2="21.2467" gradientUnits="userSpaceOnUse">
<stop stop-color="#EB5896"/>
<stop offset="1" stop-color="#3CB4C7"/>
</linearGradient>
<clipPath id="clip0_1_2109">
<rect width="80" height="80" fill="white"/>
</clipPath>
</defs>
</svg>
