<svg width="57" height="57" viewBox="0 0 57 57" fill="none" xmlns="http://www.w3.org/2000/svg">
<path d="M0 32.4953H11.0094V56.9999H0V32.4953ZM15.2712 19.1777H26.2806V56.9999H15.2712V19.1777ZM30.5418 32.4953H41.5512V56.9999H30.5418V32.4953ZM45.813 19.1777H56.8224V56.9999H45.813V19.1777Z" fill="white"/>
<path d="M9.411 22.9068C11.0094 21.3084 11.3646 19.0002 10.6542 16.869L18.1122 10.299C19.8882 11.3646 21.8412 11.3646 23.6166 10.299L31.0746 16.869C30.1866 18.8226 30.7194 21.3084 32.3178 22.9068C34.4484 25.0374 37.9998 25.0374 40.131 22.9068C41.7288 21.3084 42.084 19.0002 41.3736 16.869L48.8316 10.299C50.9628 11.5422 53.6256 11.187 55.4016 9.411C57.5328 7.2804 57.5328 3.729 55.4016 1.5984C53.271 -0.5328 49.7196 -0.5328 47.589 1.5984C45.9906 3.1962 45.6354 5.5044 46.3458 7.6356L38.7102 14.3832C37.1124 13.4952 34.9812 13.4952 33.2058 14.3832L25.7478 7.8132C26.4582 5.8596 26.103 3.5514 24.5046 1.953C22.374 -0.177 18.8226 -0.177 16.6914 1.953C15.2712 3.3738 14.9154 5.682 15.6264 7.635L8.1684 14.3832C6.0372 13.14 3.3744 13.3176 1.5984 15.0936C-0.5328 17.2242 -0.5328 20.7756 1.5984 22.9068C3.7296 25.038 7.2804 25.0374 9.411 22.9068Z" fill="white"/>
</svg>
