<svg width="60" height="60" viewBox="0 0 60 60" fill="none" xmlns="http://www.w3.org/2000/svg">
<g clip-path="url(#clip0_1_2532)">
<path d="M5.13795 32.6623L0.364512 37.4233C-0.124108 37.9119 -0.124108 38.7137 0.364512 39.2023L20.7988 59.6367C21.0369 59.8622 21.3501 60 21.6884 60C22.0141 60 22.3399 59.8622 22.5779 59.6367L27.3388 54.8632C27.455 54.7473 27.5471 54.6096 27.61 54.4581C27.6729 54.3065 27.7052 54.144 27.7052 53.98C27.7052 53.8159 27.6729 53.6534 27.61 53.5018C27.5471 53.3503 27.455 53.2126 27.3388 53.0967L6.9045 32.6623C6.44094 32.1863 5.60151 32.1863 5.13795 32.6623ZM14.522 12.6916C14.1085 12.8169 13.7828 13.1301 13.6575 13.5435L8.63346 30.8707C8.65852 30.8833 8.67105 30.8958 8.69611 30.9209L29.1054 51.3301C29.1179 51.3427 29.1304 51.3552 29.1304 51.3677L46.4576 46.3312C46.8586 46.2184 47.1843 45.8927 47.3096 45.4792L60.0012 1.76655L42.2229 19.5448C43.5385 21.6621 43.2879 24.4811 41.4462 26.3228C40.3812 27.4003 38.9655 27.9265 37.5623 27.9265C36.159 27.9265 34.7433 27.4003 33.6784 26.3228C32.6495 25.2921 32.0716 23.8953 32.0716 22.4389C32.0716 20.9826 32.6495 19.5857 33.6784 18.555C35.5075 16.7133 38.339 16.4627 40.4564 17.7782L58.2221 0L14.522 12.6916Z" fill="white"/>
<path d="M37.5641 25.428C39.2165 25.428 40.556 24.0885 40.556 22.4362C40.556 20.7838 39.2165 19.4443 37.5641 19.4443C35.9118 19.4443 34.5723 20.7838 34.5723 22.4362C34.5723 24.0885 35.9118 25.428 37.5641 25.428Z" fill="white"/>
</g>
<defs>
<clipPath id="clip0_1_2532">
<rect width="60" height="60" fill="white"/>
</clipPath>
</defs>
</svg>
