<svg width="80" height="80" viewBox="0 0 80 80" fill="none" xmlns="http://www.w3.org/2000/svg">
<g clip-path="url(#clip0_1_2118)">
<path d="M39.5853 51.068C39.5853 49.7656 39.0679 48.5165 38.1469 47.5956C37.226 46.6746 35.9769 46.1572 34.6745 46.1572C33.372 46.1572 32.123 46.6746 31.202 47.5956C30.2811 48.5165 29.7637 49.7656 29.7637 51.068C29.7637 52.3704 30.2811 53.6195 31.202 54.5405C32.123 55.4614 33.372 55.9788 34.6745 55.9788C35.9769 55.9788 37.226 55.4614 38.1469 54.5405C39.0679 53.6195 39.5853 52.3704 39.5853 51.068Z" fill="url(#paint0_linear_1_2118)"/>
<path d="M49.3076 55.4632C48.9685 54.4528 48.9175 53.368 49.1603 52.3302C49.403 51.2925 49.93 50.3428 50.6821 49.5877C51.4343 48.8326 52.3818 48.3019 53.4186 48.0551C54.4554 47.8082 55.5404 47.855 56.5521 48.1901C58.0841 48.727 61.3455 49.8552 62.866 50.3806C74.901 28.607 58.2344 0.780187 33.3154 1.10089C-11.0994 2.93922 -11.1108 66.2612 33.3154 68.091C39.8782 68.1002 46.2978 66.1728 51.7702 62.5502C51.2018 60.9123 49.8904 57.1355 49.3076 55.4632ZM26.9013 51.0678C27.2363 40.7953 42.1161 40.7981 42.4497 51.0678C42.1247 61.3418 27.2248 61.3404 26.9013 51.0678ZM50.0235 17.2077L18.6546 48.5767C18.3869 48.8462 18.023 48.9985 17.6431 48.9998C17.2632 49.0011 16.8983 48.8515 16.6287 48.5838C16.3591 48.3161 16.2069 47.9523 16.2055 47.5723C16.2042 47.1924 16.3538 46.8275 16.6215 46.5579L47.9905 15.189C48.2582 14.9194 48.622 14.7672 49.0019 14.7658C49.3819 14.7645 49.7467 14.9141 50.0163 15.1818C50.2859 15.4495 50.4382 15.8134 50.4395 16.1933C50.4408 16.5732 50.2912 16.9381 50.0235 17.2077ZM35.5632 18.124C35.2482 28.3923 20.3469 28.4037 20.029 18.124C20.3526 7.86003 35.2453 7.87721 35.5632 18.124Z" fill="url(#paint1_linear_1_2118)"/>
<path d="M27.7884 23.0348C29.0889 23.0348 30.3362 22.5182 31.2558 21.5986C32.1754 20.679 32.692 19.4317 32.692 18.1312C32.692 16.8306 32.1754 15.5834 31.2558 14.6638C30.3362 13.7442 29.0889 13.2275 27.7884 13.2275C26.4879 13.2275 25.2406 13.7442 24.321 14.6638C23.4014 15.5834 22.8848 16.8306 22.8848 18.1312C22.8848 19.4317 23.4014 20.679 24.321 21.5986C25.2406 22.5182 26.4879 23.0348 27.7884 23.0348Z" fill="url(#paint2_linear_1_2118)"/>
<path d="M79.1721 71.2691L71.5983 63.6953L73.7602 61.5191C74.0967 61.1769 74.3416 60.7556 74.4724 60.2939C74.6032 59.8322 74.6157 59.345 74.5088 58.8771C74.4018 58.4093 74.1788 57.976 73.8603 57.617C73.5419 57.258 73.1382 56.985 72.6864 56.8231L55.6347 50.8957C55.1305 50.7315 54.5906 50.7099 54.0749 50.8335C53.5592 50.9571 53.0877 51.221 52.7127 51.596C52.3377 51.971 52.0738 52.4425 51.9502 52.9582C51.8266 53.4739 51.8482 54.0138 52.0124 54.518L57.9398 71.5554C58.0992 72.009 58.3705 72.415 58.7287 72.7358C59.0869 73.0565 59.5203 73.2816 59.9887 73.3901C60.4571 73.4986 60.9453 73.4871 61.4081 73.3566C61.8708 73.2261 62.2931 72.9808 62.6358 72.6435L64.7977 70.4816L72.3715 78.0554C72.6347 78.3213 72.948 78.5324 73.2932 78.6764C73.6385 78.8204 74.0089 78.8946 74.383 78.8946C74.7572 78.8946 75.1276 78.8204 75.4728 78.6764C75.8181 78.5324 76.1314 78.3213 76.3946 78.0554L79.1721 75.2922C79.7018 74.7567 79.9989 74.0339 79.9989 73.2806C79.9989 72.5274 79.7018 71.8046 79.1721 71.2691Z" fill="url(#paint3_linear_1_2118)"/>
</g>
<defs>
<linearGradient id="paint0_linear_1_2118" x1="29.7637" y1="51.068" x2="39.5853" y2="51.068" gradientUnits="userSpaceOnUse">
<stop stop-color="#EB5896"/>
<stop offset="1" stop-color="#3CB4C7"/>
</linearGradient>
<linearGradient id="paint1_linear_1_2118" x1="0" y1="34.5946" x2="66.8643" y2="34.5946" gradientUnits="userSpaceOnUse">
<stop stop-color="#EB5896"/>
<stop offset="1" stop-color="#3CB4C7"/>
</linearGradient>
<linearGradient id="paint2_linear_1_2118" x1="22.8848" y1="18.1312" x2="32.692" y2="18.1312" gradientUnits="userSpaceOnUse">
<stop stop-color="#EB5896"/>
<stop offset="1" stop-color="#3CB4C7"/>
</linearGradient>
<linearGradient id="paint3_linear_1_2118" x1="51.8711" y1="64.8245" x2="79.9989" y2="64.8245" gradientUnits="userSpaceOnUse">
<stop stop-color="#EB5896"/>
<stop offset="1" stop-color="#3CB4C7"/>
</linearGradient>
<clipPath id="clip0_1_2118">
<rect width="80" height="80" fill="white"/>
</clipPath>
</defs>
</svg>
