<svg width="60" height="60" viewBox="0 0 60 60" fill="none" xmlns="http://www.w3.org/2000/svg">
<path d="M36.8628 7.93156H23.1375C20.8822 12.3768 19.7365 17.3018 19.798 22.286C19.6975 28.6205 21.1081 34.8877 23.9128 40.5683C23.9543 40.6424 24.0154 40.7037 24.0894 40.7455C24.1633 40.7873 24.2474 40.8079 24.3323 40.8052H35.668C35.7528 40.8079 35.8367 40.7874 35.9106 40.7458C35.9845 40.7042 36.0457 40.6432 36.0874 40.5694C38.892 34.8883 40.3025 28.6208 40.2023 22.286C40.2638 17.3018 39.118 12.3768 36.8628 7.93156ZM30.0001 26.0687C28.6549 26.0687 27.3399 25.6698 26.2215 24.9225C25.103 24.1751 24.2312 23.1129 23.7164 21.8701C23.2016 20.6273 23.0669 19.2598 23.3294 17.9404C23.5918 16.6211 24.2396 15.4092 25.1908 14.458C26.142 13.5068 27.3539 12.859 28.6732 12.5965C29.9926 12.3341 31.3601 12.4688 32.6029 12.9836C33.8457 13.4984 34.908 14.3701 35.6553 15.4886C36.4027 16.6071 36.8016 17.9221 36.8016 19.2673C36.7998 21.0706 36.0826 22.7995 34.8075 24.0747C33.5324 25.3498 31.8034 26.0669 30.0001 26.0687ZM24.4354 5.66442H35.5648C34.3671 3.78062 32.9425 2.05106 31.323 0.514593C30.962 0.183611 30.4899 0 30.0001 0C29.5103 0 29.0383 0.183611 28.6772 0.514593C27.0578 2.05106 25.6332 3.78062 24.4354 5.66442ZM44.7366 33.8337C44.7369 33.7323 44.7154 33.6321 44.6736 33.5398C44.6317 33.4474 44.5705 33.3652 44.494 33.2987L41.6861 30.849C41.1486 33.7991 40.2899 36.6816 39.1254 39.4449L44.7366 42.8116V33.8337ZM15.2637 33.8337V42.8116L20.876 39.4449C19.7108 36.6833 18.8517 33.8023 18.3141 30.8536L15.4983 33.31C15.4245 33.3758 15.3654 33.4565 15.325 33.5468C15.2846 33.637 15.2637 33.7348 15.2637 33.8337ZM25.4896 54.3344C25.6374 54.2996 25.7906 54.2949 25.9402 54.3204C26.0898 54.346 26.2327 54.4013 26.3605 54.4831C26.4883 54.565 26.5984 54.6716 26.6842 54.7968C26.77 54.9219 26.8299 55.0631 26.8601 55.2118C27.3077 57.1289 28.4202 58.8254 30.0001 60C31.5858 58.8308 32.6998 57.132 33.1401 55.2118C33.1704 55.0631 33.2302 54.9219 33.316 54.7968C33.4018 54.6716 33.5119 54.565 33.6397 54.4831C33.7676 54.4013 33.9105 54.346 34.0601 54.3204C34.2097 54.2949 34.3629 54.2996 34.5106 54.3344C34.8942 54.4238 35.258 54.5828 35.5841 54.8037C35.6403 54.4601 35.6683 54.1124 35.668 53.7642C35.6696 53.0232 35.5087 52.2908 35.1967 51.6187C34.8847 50.9465 34.4292 50.3509 33.8622 49.8738H26.1369C25.5703 50.3512 25.1151 50.9468 24.8033 51.619C24.4916 52.2911 24.3308 53.0233 24.3323 53.7642C24.3319 54.1124 24.3599 54.4601 24.4161 54.8037C24.7422 54.5828 25.1061 54.4238 25.4896 54.3344ZM25.2096 43.0723L24.1826 47.0398C24.1607 47.1095 24.1555 47.1833 24.1673 47.2554C24.1791 47.3274 24.2077 47.3957 24.2506 47.4547C24.2844 47.5024 24.3291 47.5413 24.3809 47.5681C24.4328 47.5949 24.4904 47.6089 24.5488 47.6089H35.4515C35.5099 47.6089 35.5674 47.5949 35.6193 47.5681C35.6712 47.5413 35.7159 47.5024 35.7496 47.4547C35.7913 47.399 35.8197 47.3345 35.8325 47.2661C35.8452 47.1977 35.8421 47.1273 35.8233 47.0603L34.7906 43.0723H25.2096Z" fill="white"/>
<path d="M30.0011 23.8015C32.5053 23.8015 34.5354 21.7714 34.5354 19.2672C34.5354 16.763 32.5053 14.7329 30.0011 14.7329C27.4969 14.7329 25.4668 16.763 25.4668 19.2672C25.4668 21.7714 27.4969 23.8015 30.0011 23.8015Z" fill="white"/>
</svg>
