<svg width="60" height="60" viewBox="0 0 60 60" fill="none" xmlns="http://www.w3.org/2000/svg">
<path fill-rule="evenodd" clip-rule="evenodd" d="M58.9453 30.9292V34.8219H54.098C53.4712 37.9633 52.2329 40.9509 50.4534 43.6146L53.8828 47.0436L47.0517 53.8746L43.6229 50.4457C40.9593 52.2251 37.9717 53.4635 34.8302 54.0902V58.9372H25.1698V54.0903C22.0283 53.4636 19.0407 52.2252 16.377 50.4458L12.948 53.8747L6.11719 47.0436L9.54586 43.6148C7.76646 40.951 6.52813 37.9634 5.90133 34.8219H1.05469V30.9292H10.6922C10.9329 35.8878 13.0722 40.5637 16.6666 43.988C20.2611 47.4122 25.0353 49.3222 29.9998 49.3222C34.9642 49.3222 39.7384 47.4122 43.3329 43.988C46.9274 40.5637 49.0666 35.8878 49.3073 30.9292H58.9453ZM30 26.7338C29.3557 26.7338 28.7258 26.9249 28.1901 27.2829C27.6543 27.6409 27.2367 28.1497 26.9902 28.7449C26.7436 29.3402 26.6791 29.9953 26.8048 30.6272C26.9305 31.2592 27.2408 31.8397 27.6964 32.2953C28.152 32.7509 28.7325 33.0612 29.3644 33.1869C29.9964 33.3126 30.6514 33.2481 31.2467 33.0015C31.842 32.7549 32.3508 32.3373 32.7088 31.8016C33.0667 31.2659 33.2578 30.636 33.2578 29.9917C33.2578 29.1276 32.9146 28.299 32.3036 27.688C31.6927 27.0771 30.864 26.7338 30 26.7338ZM37.5795 19.9538C37.7404 19.7903 37.9321 19.6602 38.1435 19.5711C38.3549 19.482 38.5819 19.4357 38.8113 19.4347C39.0408 19.4338 39.2681 19.4783 39.4803 19.5657C39.6924 19.6531 39.8851 19.7816 40.0474 19.9438C40.2096 20.1061 40.3381 20.2988 40.4255 20.511C40.5128 20.7231 40.5573 20.9505 40.5564 21.1799C40.5554 21.4093 40.5091 21.6363 40.42 21.8477C40.3309 22.0591 40.2008 22.2508 40.0372 22.4117L34.6443 27.8047C34.1342 26.7257 33.2654 25.8572 32.1861 25.3476L37.5792 19.9547L37.5795 19.9538ZM30.9375 10.6841C33.6957 10.8132 36.3936 11.5351 38.8477 12.8007L43.6591 4.46693C39.7386 2.36441 35.3841 1.19927 30.9375 1.06299V10.6841ZM40.4632 13.7356C42.7838 15.233 44.7586 17.2077 46.256 19.5282L54.5892 14.7171C52.2371 10.9409 49.0504 7.75436 45.2742 5.40232L40.463 13.7356H40.4632ZM47.1909 21.1441L55.5246 16.3326C57.6274 20.2531 58.793 24.6075 58.9301 29.0542H49.3079C49.1784 26.296 48.4563 23.5981 47.1907 21.144L47.1909 21.1441ZM29.0625 1.06299C24.616 1.19961 20.2616 2.36473 16.3411 4.46693L21.1523 12.8006C23.6065 11.5352 26.3044 10.8133 29.0625 10.6841V1.06299ZM14.7254 5.40232L19.5366 13.7355C17.216 15.2329 15.2412 17.2077 13.7439 19.5282L5.41066 14.717C7.76267 10.9408 10.9493 7.75428 14.7254 5.40232ZM4.47516 16.3326C2.37216 20.253 1.20642 24.6075 1.06945 29.0542H10.6917C10.8211 26.296 11.5432 23.598 12.8089 21.144L4.47516 16.3326ZM43.1374 29.9919H35.1321C35.1128 31.3403 34.5636 32.627 33.6032 33.5737C32.6428 34.5204 31.3484 35.0511 29.9998 35.0511C28.6513 35.0511 27.3569 34.5204 26.3965 33.5737C25.4361 32.627 24.8869 31.3403 24.8675 29.9919H16.8626C16.8626 33.4762 18.2467 36.8177 20.7104 39.2815C23.1742 41.7452 26.5157 43.1293 30 43.1293C33.4843 43.1293 36.8258 41.7452 39.2896 39.2815C41.7533 36.8177 43.1374 33.4762 43.1374 29.9919Z" fill="white"/>
</svg>
