<!DOCTYPE svg PUBLIC "-//W3C//DTD SVG 1.1//EN" "http://www.w3.org/Graphics/SVG/1.1/DTD/svg11.dtd">
<!-- Uploaded to: SVG Repo, www.svgrepo.com, Transformed by: SVG Repo Mixer Tools -->
<svg fill="#ffffff" version="1.1" id="Capa_1" xmlns="http://www.w3.org/2000/svg" xmlns:xlink="http://www.w3.org/1999/xlink" width="800px" height="800px" viewBox="0 0 601.799 601.799" xml:space="preserve" stroke="#ffffff">
<g id="SVGRepo_bgCarrier" stroke-width="0"/>
<g id="SVGRepo_tracerCarrier" stroke-linecap="round" stroke-linejoin="round"/>
<g id="SVGRepo_iconCarrier"> <g> <g> <path d="M300.899,0C134.716,0,0,134.716,0,300.899c0,166.183,134.716,300.9,300.899,300.9c166.183,0,300.9-134.717,300.9-300.9 C601.797,134.716,467.082,0,300.899,0z M300.899,340.68c-1.368,0-2.72-0.07-4.055-0.205l-15.373,40.848 c-2.98,7.922-11.818,11.924-19.74,8.943s-11.925-11.816-8.944-19.74c0.205-0.543,0.443-1.08,0.704-1.588l20.071-39.191 c-7.647-7.25-12.442-17.479-12.442-28.847c0-21.971,17.809-39.78,39.78-39.78c2.546,0,5.025,0.263,7.435,0.719l68.307-133.382 l-52.709,140.05c10.123,7.209,16.748,19.018,16.748,32.393C340.68,322.869,322.869,340.68,300.899,340.68z M540.598,316.199 h-57.121c-8.449,0-15.299-6.852-15.299-15.3s6.85-15.3,15.299-15.3h41.24c-3.412-50.374-23.508-96.216-54.811-132.073 l-29.086,29.085c-2.99,2.986-6.902,4.479-10.82,4.479c-3.916,0-7.83-1.493-10.82-4.479c-5.977-5.977-5.977-15.665,0-21.638 l29.086-29.085c-35.852-31.304-81.693-51.399-132.066-54.811v41.24c0,8.449-6.852,15.3-15.3,15.3s-15.3-6.851-15.3-15.3v-41.24 c-50.374,3.412-96.216,23.507-132.073,54.811l29.085,29.085c5.976,5.977,5.976,15.664,0,21.638 c-2.99,2.986-6.904,4.479-10.82,4.479c-3.917,0-7.831-1.493-10.82-4.479l-29.085-29.085 c-31.301,35.857-51.396,81.699-54.808,132.073h41.24c8.449,0,15.3,6.851,15.3,15.3s-6.851,15.3-15.3,15.3H61.2 c-8.448,0-15.3-6.852-15.3-15.3c0-69.744,28.167-133.018,73.697-179.102c0.33-0.404,0.612-0.835,0.988-1.212 s0.805-0.658,1.208-0.988C167.877,74.067,231.152,45.9,300.899,45.9c69.746,0,133.021,28.17,179.105,73.7 c0.404,0.327,0.832,0.612,1.209,0.988s0.66,0.808,0.988,1.212c45.529,46.083,73.697,109.355,73.697,179.102 C555.898,309.348,549.049,316.199,540.598,316.199z"/> </g> </g> </g>
</svg>