<?xml version="1.0" encoding="UTF-8"?>
<svg version="1.1" xmlns="http://www.w3.org/2000/svg" width="347" height="195">
<path d="M0 0 C7.69260823 6.18156018 13.28619395 14.76001745 18.9921875 22.71484375 C21.00259047 25.50359339 23.05559895 28.25479823 25.125 31 C29.10289295 36.28324643 33.0233351 41.60691503 36.9375 46.9375 C41.72051706 53.44538304 46.56939574 59.88859907 51.515625 66.2734375 C55.88964861 71.93290283 60.15004764 77.67899435 64.43261719 83.40771484 C66.04709527 85.56286705 67.66732282 87.71358906 69.2890625 89.86328125 C69.8267627 90.57701904 70.36446289 91.29075684 70.91845703 92.02612305 C71.94163458 93.38398926 72.96597183 94.74098273 73.99169922 96.09692383 C84.56640953 110.14847625 84.56640953 110.14847625 83.8125 119.93359375 C82.74208109 125.60107961 80.83617183 130.34661028 76.1015625 133.94140625 C70.2343651 137.7692618 65.09480886 139.32894674 58 138.5 C44.376524 135.29956437 38.034777 122.92224618 30.421875 112.24609375 C27.22432151 107.78095165 23.91761483 103.40997994 20.5625 99.0625 C14.67295649 91.42300251 8.94232089 83.67417667 3.234375 75.8984375 C-0.17970744 71.24849714 -3.61967691 66.61988437 -7.12109375 62.03515625 C-8.33617363 60.39568257 -9.49999286 58.71639261 -10.59765625 56.99609375 C-13.06016315 52.94335457 -13.06016315 52.94335457 -17.14453125 51.015625 C-19.61660447 50.94493221 -19.61660447 50.94493221 -23 51.5 C-23.2475 52.22316406 -23.495 52.94632813 -23.75 53.69140625 C-25.13125886 56.79492224 -26.78334056 58.86855005 -29 61.4375 C-32.51735675 65.63018925 -35.79192821 69.89794306 -38.9375 74.375 C-42.49928421 79.4338852 -46.17377423 84.37476887 -49.97290039 89.26000977 C-53.68616638 94.05318693 -57.28595277 98.92584786 -60.875 103.8125 C-61.46772705 104.6173584 -62.0604541 105.4222168 -62.67114258 106.25146484 C-65.56412699 110.18044245 -68.44799898 114.11554414 -71.31640625 118.0625 C-72.3564527 119.47940024 -73.39680226 120.89607805 -74.4375 122.3125 C-74.89688965 122.9516333 -75.3562793 123.5907666 -75.82958984 124.24926758 C-79.81535871 129.64435718 -85.57688176 136.5356152 -92.3828125 138.01953125 C-100.77559753 138.91619632 -107.11074648 138.02838193 -113.875 132.75 C-118.28010152 128.59019416 -120.11624808 124.08624461 -120.375 118.0625 C-120.46783713 109.9083054 -116.06787327 103.73706877 -111.1875 97.6875 C-110.01265024 96.19271941 -108.83953466 94.69657452 -107.66796875 93.19921875 C-107.06259277 92.42884277 -106.4572168 91.6584668 -105.83349609 90.86474609 C-102.81128735 86.96686142 -99.90873377 82.98285938 -97 79 C-91.40817977 71.36890185 -85.707035 63.82942178 -79.9375 56.33203125 C-76.92461243 52.41307603 -73.95805258 48.4604376 -71 44.5 C-64.20457739 35.40845811 -57.37624186 26.34315135 -50.5 17.3125 C-49.81760254 16.41571533 -49.13520508 15.51893066 -48.43212891 14.5949707 C-47.16718225 12.93569163 -45.89963862 11.27838752 -44.62890625 9.62353516 C-43.29535846 7.88504615 -41.97403969 6.13718272 -40.65625 4.38671875 C-40.1096875 3.76410156 -39.563125 3.14148437 -39 2.5 C-38.34 2.5 -37.68 2.5 -37 2.5 C-37 1.84 -37 1.18 -37 0.5 C-35.41925436 -0.31752303 -33.83528777 -1.12881997 -32.25 -1.9375 C-31.36828125 -2.38996094 -30.4865625 -2.84242187 -29.578125 -3.30859375 C-19.78868361 -7.83250227 -8.73619426 -5.97376129 0 0 Z " fill="#40A6BF" transform="translate(247,28.5)"/>
<path d="M0 0 C5.61856834 4.35537733 9.64861923 10.43983198 13.85644531 16.10009766 C15.57549943 18.40091655 17.32505479 20.67729246 19.07983398 22.95092773 C19.92378688 24.04556291 20.7645031 25.14270192 21.60180664 26.24243164 C23.48702847 28.71388154 25.40354589 31.13146554 27.421875 33.49609375 C28.08058594 34.2746875 28.73929688 35.05328125 29.41796875 35.85546875 C30.000625 36.51546875 30.58328125 37.17546875 31.18359375 37.85546875 C32.16796875 39.85546875 32.16796875 39.85546875 31.578125 42.28125 C30.03858538 45.09165612 28.32369688 47.51238973 26.35546875 50.04296875 C22.17702746 55.49815599 18.11963847 61.02824978 14.10546875 66.60546875 C13.52112061 67.41653076 12.93677246 68.22759277 12.3347168 69.06323242 C10.94485892 70.99330312 9.55591371 72.92402222 8.16796875 74.85546875 C5.19489298 74.52156165 3.5708757 74.23543496 1.36279297 72.15307617 C0.55092529 71.06796753 0.55092529 71.06796753 -0.27734375 69.9609375 C-0.87933594 69.17009766 -1.48132813 68.37925781 -2.1015625 67.56445312 C-2.71386719 66.73236328 -3.32617188 65.90027344 -3.95703125 65.04296875 C-4.57707031 64.22248047 -5.19710937 63.40199219 -5.8359375 62.55664062 C-7.5139192 60.33196166 -9.17493258 58.09571755 -10.83203125 55.85546875 C-11.83108909 54.52142932 -12.83079939 53.1878773 -13.83203125 51.85546875 C-16.66669485 52.19878169 -18.38448364 52.44765156 -20.52612305 54.39916992 C-21.27116089 55.38880737 -21.27116089 55.38880737 -22.03125 56.3984375 C-22.59521484 57.13505615 -23.15917969 57.8716748 -23.74023438 58.63061523 C-24.32740234 59.42669189 -24.91457031 60.22276855 -25.51953125 61.04296875 C-26.13892578 61.861604 -26.75832031 62.68023926 -27.39648438 63.52368164 C-31.77213256 69.33615213 -36.02929511 75.23208228 -40.21875 81.1796875 C-43.87596312 86.35515062 -47.66700081 91.4326496 -51.43603516 96.52685547 C-55.00539287 101.3580388 -58.53886253 106.21247958 -62.0390625 111.09399414 C-64.62158201 114.6922089 -67.22280945 118.27658518 -69.83203125 121.85546875 C-70.59386719 122.9021875 -71.35570312 123.94890625 -72.140625 125.02734375 C-77.45656106 132.03235891 -82.28254399 136.61255852 -91.20703125 137.91796875 C-97.85234425 138.22212316 -103.65692993 136.63614755 -108.71875 132.203125 C-113.79995861 126.58057698 -115.40369063 121.25987857 -115.18359375 113.7265625 C-113.97323702 103.84198253 -106.35345026 96.04989197 -100.42578125 88.4765625 C-96.82666943 83.87498068 -93.34835222 79.1916805 -89.89453125 74.48046875 C-89.31533936 73.69188477 -88.73614746 72.90330078 -88.1394043 72.09082031 C-86.96138726 70.48622647 -85.78389846 68.88124468 -84.60693359 67.27587891 C-75.85938922 55.34697177 -67.06571946 43.45478121 -58.17089844 31.63525391 C-56.15909271 28.96091698 -54.15190947 26.2831307 -52.14453125 23.60546875 C-51.42910156 22.65671875 -50.71367188 21.70796875 -49.9765625 20.73046875 C-48.49569079 18.74518354 -47.03595507 16.74401858 -45.59375 14.73046875 C-33.75395463 -1.62848858 -19.40694146 -12.12416599 0 0 Z " fill="#E85993" transform="translate(134.83203125,29.14453125)"/>
<path d="M0 0 C2.51926022 0.37799064 3.73937577 0.72726731 5.52392578 2.59472656 C5.9929834 3.26987305 6.46204102 3.94501953 6.9453125 4.640625 C7.72455078 5.75244141 7.72455078 5.75244141 8.51953125 6.88671875 C9.04933594 7.66660156 9.57914063 8.44648437 10.125 9.25 C10.66253906 10.01441406 11.20007813 10.77882812 11.75390625 11.56640625 C16.17475862 17.94963199 18.91683807 22.99984849 18 31 C16.64452265 37.56790388 13.50526378 41.30688555 8 45 C1.93165767 48.61766562 -3.27463285 48.4071836 -10 47 C-15.88932365 45.09856043 -21.60259496 41.25158202 -25 36 C-24.56517595 32.40644856 -22.87242333 30.21368186 -20.68359375 27.40234375 C-20.00490234 26.52280029 -19.32621094 25.64325684 -18.62695312 24.73706055 C-17.90443359 23.81320557 -17.18191406 22.88935059 -16.4375 21.9375 C-14.97698924 20.04755112 -13.51734515 18.15693217 -12.05859375 16.265625 C-11.35718262 15.35876953 -10.65577148 14.45191406 -9.93310547 13.51757812 C-6.52627566 9.08069647 -3.24429809 4.55695817 0 0 Z " fill="#3E97B6" transform="translate(206,119)"/>
<path d="M0 0 C0 3 0 3 -1 6 C-0.34 6.33 0.32 6.66 1 7 C-1.87444093 10.03413209 -4.29141347 12.14570673 -8 14 C-8.96088383 16.88265149 -9.11670941 18.67662271 -9.09765625 21.66796875 C-9.09443359 22.56064453 -9.09121094 23.45332031 -9.08789062 24.37304688 C-9.07951172 25.30181641 -9.07113281 26.23058594 -9.0625 27.1875 C-9.05798828 28.12787109 -9.05347656 29.06824219 -9.04882812 30.03710938 C-9.03704626 32.35813712 -9.02059558 34.67903644 -9 37 C-8.34 37.33 -7.68 37.66 -7 38 C-7.99 38 -8.98 38 -10 38 C-13.18340132 32.03112253 -13.96620115 26.7262465 -13 20 C-10.46099652 12.2419338 -5.24353522 6.11528922 0 0 Z " fill="#964363" transform="translate(33,120)"/>
<path d="M0 0 C-0.66 0.66 -1.32 1.32 -2 2 C-2.50402344 1.67515625 -3.00804687 1.3503125 -3.52734375 1.015625 C-6.93649042 -0.38465641 -9.88876941 -0.26436454 -13.5625 -0.25 C-14.23474609 -0.25773437 -14.90699219 -0.26546875 -15.59960938 -0.2734375 C-19.28422836 -0.25880148 -20.85615148 -0.09589902 -24 2 C-23.67 2.66 -23.34 3.32 -23 4 C-24.3303125 4.3403125 -24.3303125 4.3403125 -25.6875 4.6875 C-29.46401385 6.18385454 -31.30538208 8.00598009 -34 11 C-34.66 11.66 -35.32 12.32 -36 13 C-37.32 12.34 -38.64 11.68 -40 11 C-38.38405168 8.95880212 -36.7143618 6.95927063 -35 5 C-34.34 5 -33.68 5 -33 5 C-33 4.34 -33 3.68 -33 3 C-31.41925436 2.18247697 -29.83528777 1.37118003 -28.25 0.5625 C-27.36828125 0.11003906 -26.4865625 -0.34242187 -25.578125 -0.80859375 C-17.05738054 -4.74621051 -8.46319033 -3.43433811 0 0 Z " fill="#43909D" transform="translate(243,26)"/>
<path d="M0 0 C0.33 0 0.66 0 1 0 C1.25 6.625 1.25 6.625 -1 10 C-1.19932094 14.18573976 -1.33808088 17.98575735 0 22 C0.99 22 1.98 22 3 22 C3 22.99 3 23.98 3 25 C3.99 25.33 4.98 25.66 6 26 C6.33 26.99 6.66 27.98 7 29 C9.79172239 30.03316488 9.79172239 30.03316488 13.0625 30.6875 C14.16722656 30.93886719 15.27195313 31.19023437 16.41015625 31.44921875 C17.26480469 31.63097656 18.11945313 31.81273437 19 32 C19 32.66 19 33.32 19 34 C12.140452 33.82533558 7.36957864 32.33462584 2 28 C-2.85430702 22.89020314 -4.40500987 18.28986579 -4.265625 11.35546875 C-3.83766177 7.56044188 -2.76343491 2.76343491 0 0 Z " fill="#2F5F75" transform="translate(131,133)"/>
<path d="M0 0 C0.66 0 1.32 0 2 0 C-0.47432151 5.31045419 -3.87309961 9.516116 -8.6875 12.875 C-16.9172619 15.67001347 -23.29000492 15.53880023 -31.19921875 11.91015625 C-31.79347656 11.60980469 -32.38773438 11.30945313 -33 11 C-30.33788628 9.62420173 -27.93703384 8.62936439 -25 8 C-25.33 9.32 -25.66 10.64 -26 12 C-24.22844346 11.88570603 -22.45773771 11.75816963 -20.6875 11.625 C-19.70136719 11.55539063 -18.71523438 11.48578125 -17.69921875 11.4140625 C-14.78471567 11.16134528 -14.78471567 11.16134528 -12 9 C-9.3125 8.875 -9.3125 8.875 -7 9 C-7 8.34 -7 7.68 -7 7 C-6.01 7 -5.02 7 -4 7 C-3.34 5.35 -2.68 3.7 -2 2 C-1.34 2 -0.68 2 0 2 C0 1.34 0 0.68 0 0 Z " fill="#DE5488" transform="translate(61,152)"/>
<path d="M0 0 C1 3 1 3 -0.4375 6.1875 C-1.2109375 7.5796875 -1.2109375 7.5796875 -2 9 C-2.66 9 -3.32 9 -4 9 C-4.103125 9.721875 -4.20625 10.44375 -4.3125 11.1875 C-5.43820139 15.79264205 -7.71283301 18.71283301 -11 22 C-11 22.66 -11 23.32 -11 24 C-12.65071396 25.02611949 -14.31970006 26.02308143 -16 27 C-16.556875 27.556875 -17.11375 28.11375 -17.6875 28.6875 C-18.120625 29.120625 -18.55375 29.55375 -19 30 C-19.66 30 -20.32 30 -21 30 C-19.42409447 26.50345961 -17.33039627 23.662838 -15 20.625 C-9.8562264 13.85027379 -4.91752988 6.93997954 0 0 Z " fill="#316E8D" transform="translate(153,103)"/>
<path d="M0 0 C2.475 0.99 2.475 0.99 5 2 C5 2.66 5 3.32 5 4 C5.66 4.33 6.32 4.66 7 5 C7 6.32 7 7.64 7 9 C7.763125 9.185625 8.52625 9.37125 9.3125 9.5625 C13.14210845 11.61089522 13.73999931 13.93999777 15 18 C14.67 19.32 14.34 20.64 14 22 C9.05 15.4 4.1 8.8 -1 2 C-0.67 1.34 -0.34 0.68 0 0 Z " fill="#3B8495" transform="translate(242,90)"/>
<path d="M0 0 C-0.66 0.66 -1.32 1.32 -2 2 C-2.53367188 1.7834375 -3.06734375 1.566875 -3.6171875 1.34375 C-9.41982676 -0.82471034 -14.80605754 -1.82371946 -21 -1 C-22.34168923 -0.35031375 -23.67607699 0.31483572 -25 1 C-25.99 1 -26.98 1 -28 1 C-28.33 1.99 -28.66 2.98 -29 4 C-30.32 3.67 -31.64 3.34 -33 3 C-31.58833114 2.01364163 -30.17043816 1.03618745 -28.75 0.0625 C-27.96109375 -0.48277344 -27.1721875 -1.02804688 -26.359375 -1.58984375 C-17.85208317 -6.67449996 -8.35609726 -3.9824804 0 0 Z " fill="#C25683" transform="translate(133,28)"/>
<path d="M0 0 C0.8125 1.625 0.8125 1.625 1 4 C-0.20803282 5.50187865 -1.42626886 6.99879807 -2.73046875 8.41796875 C-4.55788574 10.69521145 -5.14074902 13.23812186 -6 16 C-7.5 17.875 -7.5 17.875 -9 19 C-9.66 19 -10.32 19 -11 19 C-11 19.66 -11 20.32 -11 21 C-12.32 20.67 -13.64 20.34 -15 20 C-12.87797983 17.03951873 -10.75187996 14.08199133 -8.625 11.125 C-7.72007813 9.86236328 -7.72007813 9.86236328 -6.796875 8.57421875 C-6.21679688 7.76855469 -5.63671875 6.96289062 -5.0390625 6.1328125 C-4.50490723 5.38918457 -3.97075195 4.64555664 -3.42041016 3.87939453 C-2 2 -2 2 0 0 Z " fill="#AF4F75" transform="translate(79,58)"/>
<path d="M0 0 C2.97 0.495 2.97 0.495 6 1 C6.309375 1.94875 6.61875 2.8975 6.9375 3.875 C7.87394742 6.86080408 7.87394742 6.86080408 9 9 C11.02463255 9.65213292 11.02463255 9.65213292 13 10 C15 16.625 15 16.625 15 20 C11.01129415 16.23408673 7.82965333 12.23746046 4.6875 7.75 C4.23310547 7.11320312 3.77871094 6.47640625 3.31054688 5.8203125 C0 1.14074248 0 1.14074248 0 0 Z " fill="#408790" transform="translate(257,112)"/>
<path d="M0 0 C1 2 1 2 0.22265625 4.8203125 C-0.16019531 5.91085938 -0.54304687 7.00140625 -0.9375 8.125 C-1.31777344 9.22070312 -1.69804687 10.31640625 -2.08984375 11.4453125 C-2.54037109 12.70988281 -2.54037109 12.70988281 -3 14 C-3.99 14 -4.98 14 -6 14 C-6.99 14.66 -7.98 15.32 -9 16 C-9.33 15.01 -9.66 14.02 -10 13 C-8.42699586 10.63902369 -6.84789758 8.50097539 -5.0625 6.3125 C-4.58103516 5.70599609 -4.09957031 5.09949219 -3.60351562 4.47460938 C-2.41150342 2.97574254 -1.20691049 1.48689675 0 0 Z " fill="#397992" transform="translate(202,125)"/>
<path d="M0 0 C0.625 1.875 0.625 1.875 1 4 C0.34 4.66 -0.32 5.32 -1 6 C-1.28875 6.845625 -1.5775 7.69125 -1.875 8.5625 C-3 11 -3 11 -5.125 11.8125 C-5.74375 11.874375 -6.3625 11.93625 -7 12 C-7.103125 12.639375 -7.20625 13.27875 -7.3125 13.9375 C-7.539375 14.618125 -7.76625 15.29875 -8 16 C-8.99 16.33 -9.98 16.66 -11 17 C-12.20882096 19.00016466 -12.20882096 19.00016466 -13 21 C-13.66 20.67 -14.32 20.34 -15 20 C-14.00419922 18.71416016 -14.00419922 18.71416016 -12.98828125 17.40234375 C-8.5578618 11.66959874 -4.14662576 5.94349693 0 0 Z " fill="#A74A73" transform="translate(49,98)"/>
<path d="M0 0 C1.32 0 2.64 0 4 0 C4 0.99 4 1.98 4 3 C4.99 3.33 5.98 3.66 7 4 C7.33 4.99 7.66 5.98 8 7 C10.79172239 8.03316488 10.79172239 8.03316488 14.0625 8.6875 C15.71958984 9.06455078 15.71958984 9.06455078 17.41015625 9.44921875 C18.26480469 9.63097656 19.11945313 9.81273437 20 10 C20 10.66 20 11.32 20 12 C12.22523517 11.80203145 7.15242692 9.55117053 1.2734375 4.5234375 C0 3 0 3 0 0 Z " fill="#38728B" transform="translate(130,155)"/>
<path d="M0 0 C0.33 1.32 0.66 2.64 1 4 C9.54824466 4.15873088 9.54824466 4.15873088 18 3 C13.42895478 6.92259462 8.89465362 7.29434538 3 7 C-0.51972993 5.99970491 -3.73765263 4.64886537 -7 3 C-4.66785852 1.79371992 -2.50357861 0.8345262 0 0 Z " fill="#A74D6F" transform="translate(35,160)"/>
<path d="M0 0 C0.66 1.32 1.32 2.64 2 4 C-1.67832017 8.52615993 -5.41086363 12.39424999 -10 16 C-10 11.94860621 -7.95391463 9.93049487 -5.5625 6.875 C-5.14162109 6.32457031 -4.72074219 5.77414063 -4.28710938 5.20703125 C-1.24503968 1.24503968 -1.24503968 1.24503968 0 0 Z " fill="#376C7D" transform="translate(189,56)"/>
<path d="M0 0 C0.99 0.33 1.98 0.66 3 1 C-4.48339483 10.12177122 -4.48339483 10.12177122 -10 13 C-12.875 13.25 -12.875 13.25 -15 13 C-11.92925297 9.44439818 -8.35589555 8.45196518 -4 7 C-3.896875 6.21625 -3.79375 5.4325 -3.6875 4.625 C-3 2 -3 2 0 0 Z " fill="#3E7A92" transform="translate(167,153)"/>
<path d="M0 0 C0.33 0.66 0.66 1.32 1 2 C1.66 2 2.32 2 3 2 C2.34 3.65 1.68 5.3 1 7 C1.99 7.33 2.98 7.66 4 8 C5.1875 10.5625 5.1875 10.5625 6 13 C2.51876869 13 2.13479364 12.58848696 -0.25 10.25 C-0.79140625 9.73953125 -1.3328125 9.2290625 -1.890625 8.703125 C-3 7 -3 7 -2.796875 4.984375 C-2 3 -2 3 0 0 Z " fill="#367186" transform="translate(184,148)"/>
<path d="M0 0 C1 3 1 3 -0.25 6 C-1.69459787 8.47645349 -2.76455255 10.25051939 -5 12 C-5.66 12 -6.32 12 -7 12 C-7 12.66 -7 13.32 -7 14 C-8.32 14.33 -9.64 14.66 -11 15 C-7.59445921 9.73369981 -4.12331138 4.7296807 0 0 Z " fill="#337994" transform="translate(165,88)"/>
<path d="M0 0 C0.33 0.66 0.66 1.32 1 2 C0.22265625 3.9453125 0.22265625 3.9453125 -0.9375 6.125 C-1.31777344 6.84945312 -1.69804688 7.57390625 -2.08984375 8.3203125 C-2.39019531 8.87460938 -2.69054688 9.42890625 -3 10 C-3.66 10 -4.32 10 -5 10 C-5.2475 10.969375 -5.495 11.93875 -5.75 12.9375 C-6.1625 13.948125 -6.575 14.95875 -7 16 C-9.125 16.875 -9.125 16.875 -11 17 C-11 17.66 -11 18.32 -11 19 C-11.66 18.67 -12.32 18.34 -13 18 C-8.71 12.06 -4.42 6.12 0 0 Z " fill="#924462" transform="translate(63,79)"/>
<path d="M0 0 C0 3 0 3 -1 6 C-0.34 6.33 0.32 6.66 1 7 C-1.80804268 9.96404505 -4.18315774 12.44499019 -8 14 C-7.46719784 9.77510398 -6.12321801 7.45919284 -3.4375 4.1875 C-2.47650391 3.00220703 -2.47650391 3.00220703 -1.49609375 1.79296875 C-1.00238281 1.20128906 -0.50867187 0.60960938 0 0 Z " fill="#AB496F" transform="translate(33,120)"/>
<path d="M0 0 C0 0.66 0 1.32 0 2 C-1 3 -2 4 -3 5 C-3 5.66 -3 6.32 -3 7 C-4.65071396 8.02611949 -6.31970006 9.02308143 -8 10 C-8.556875 10.556875 -9.11375 11.11375 -9.6875 11.6875 C-10.120625 12.120625 -10.55375 12.55375 -11 13 C-11.66 13 -12.32 13 -13 13 C-11.60879688 10.03786895 -10.00410076 7.44576515 -8.0625 4.8125 C-7.55847656 4.11769531 -7.05445313 3.42289062 -6.53515625 2.70703125 C-4.57076229 0.52270514 -2.92366626 0 0 0 Z " fill="#34738F" transform="translate(145,120)"/>
<path d="M0 0 C0.33 1.32 0.66 2.64 1 4 C0.01 4.33 -0.98 4.66 -2 5 C-2.33 5.99 -2.66 6.98 -3 8 C-3.66 8 -4.32 8 -5 8 C-4.67 9.98 -4.34 11.96 -4 14 C-6.31 14.66 -8.62 15.32 -11 16 C-9.47078125 12.71217969 -7.58671259 9.83707084 -5.5 6.875 C-4.8915625 6.00617188 -4.283125 5.13734375 -3.65625 4.2421875 C-2 2 -2 2 0 0 Z " fill="#346776" transform="translate(177,72)"/>
<path d="M0 0 C0.33 0.99 0.66 1.98 1 3 C-0.41488448 5.76239351 -1.80363095 7.80363095 -4 10 C-4.12375 10.66 -4.2475 11.32 -4.375 12 C-5 14 -5 14 -7 15.125 C-7.66 15.41375 -8.32 15.7025 -9 16 C-9.33 16.66 -9.66 17.32 -10 18 C-10.66 18 -11.32 18 -12 18 C-10.18633597 13.87235084 -7.50853382 10.37940795 -4.875 6.75 C-4.17310547 5.77546875 -4.17310547 5.77546875 -3.45703125 4.78125 C-2.30725718 3.18564517 -1.15397434 1.59256975 0 0 Z " fill="#366C79" transform="translate(202,38)"/>
<path d="M0 0 C0.75 1.625 0.75 1.625 1 4 C-0.75 7.25 -0.75 7.25 -3 10 C-3.99 10 -4.98 10 -6 10 C-6.33 10.99 -6.66 11.98 -7 13 C-7.99 12.67 -8.98 12.34 -10 12 C-8.70984254 10.37380152 -7.41782303 8.74908017 -6.125 7.125 C-5.04605469 5.76761719 -5.04605469 5.76761719 -3.9453125 4.3828125 C-2 2 -2 2 0 0 Z " fill="#99496A" transform="translate(99,32)"/>
<path d="M0 0 C0.66 0 1.32 0 2 0 C1.33916986 2.39550925 0.54070432 3.69084131 -1.6328125 4.93359375 C-6.57050254 6.95707849 -10.69099319 7.44241723 -16 7 C-18.234375 5.98046875 -18.234375 5.98046875 -20 5 C-19.13117188 4.96261719 -18.26234375 4.92523438 -17.3671875 4.88671875 C-7.90727767 4.63606769 -7.90727767 4.63606769 0 0 Z " fill="#509699" transform="translate(321,160)"/>
<path d="M0 0 C1.32 0 2.64 0 4 0 C2.50923566 3.2826932 0.61379679 5.93077441 -1.625 8.75 C-2.57246094 9.94882813 -2.57246094 9.94882813 -3.5390625 11.171875 C-4.02117187 11.77515625 -4.50328125 12.3784375 -5 13 C-5.33 12.01 -5.66 11.02 -6 10 C-5.34 10 -4.68 10 -4 10 C-3.7834375 8.824375 -3.7834375 8.824375 -3.5625 7.625 C-3 5 -3 5 -2 3 C-1.34 3 -0.68 3 0 3 C0 2.01 0 1.02 0 0 Z " fill="#3B808D" transform="translate(197,111)"/>
<path d="M0 0 C3.25516428 3.16474305 6.32008793 6.32752791 9 10 C9 10.66 9 11.32 9 12 C7.02 12 5.04 12 3 12 C3 11.01 3 10.02 3 9 C1.91454712 6.44143249 0.98611612 4.98611612 -1 3 C-0.67 2.01 -0.34 1.02 0 0 Z " fill="#CA578A" transform="translate(145,42)"/>
<path d="M0 0 C2.05078125 0.29296875 4.1015625 0.5859375 6.15234375 0.87890625 C6.76207031 0.91886719 7.37179688 0.95882812 8 1 C8.33 0.67 8.66 0.34 9 0 C11.33297433 -0.04092937 13.66705225 -0.04241723 16 0 C16 0.99 16 1.98 16 3 C15.34 3 14.68 3 14 3 C14 3.66 14 4.32 14 5 C13.34 5 12.68 5 12 5 C12 4.34 12 3.68 12 3 C11.30132812 2.95101562 10.60265625 2.90203125 9.8828125 2.8515625 C8.97273437 2.77679688 8.06265625 2.70203125 7.125 2.625 C6.22007812 2.55539063 5.31515625 2.48578125 4.3828125 2.4140625 C2 2 2 2 0 0 Z " fill="#3493B5" transform="translate(138,162)"/>
<path d="M0 0 C0.99 0.33 1.98 0.66 3 1 C-2.94 8.92 -2.94 8.92 -9 17 C-9.33 16.01 -9.66 15.02 -10 14 C-9.34 14 -8.68 14 -8 14 C-8 13.01 -8 12.02 -8 11 C-7.34 11 -6.68 11 -6 11 C-6 10.01 -6 9.02 -6 8 C-5.34 8 -4.68 8 -4 8 C-4 6.68 -4 5.36 -4 4 C-2.68 3.67 -1.36 3.34 0 3 C0 2.01 0 1.02 0 0 Z " fill="#A34D6F" transform="translate(84,120)"/>
<path d="M0 0 C1.32 0 2.64 0 4 0 C2.45158425 3.34708051 0.50894136 6.24667512 -1.625 9.25 C-2.25664063 10.14203125 -2.88828125 11.0340625 -3.5390625 11.953125 C-4.02117187 12.62859375 -4.50328125 13.3040625 -5 14 C-5.33 12.68 -5.66 11.36 -6 10 C-5.34 10 -4.68 10 -4 10 C-3.67 8.68 -3.34 7.36 -3 6 C-2.34 6 -1.68 6 -1 6 C-0.67 4.02 -0.34 2.04 0 0 Z " fill="#A64B6E" transform="translate(70,137)"/>
<path d="M0 0 C3.9036874 3.46994436 6.36588975 7.55224006 9 12 C8.01 12 7.02 12 6 12 C6 11.34 6 10.68 6 10 C5.01 10 4.02 10 3 10 C3 9.01 3 8.02 3 7 C2.34 7 1.68 7 1 7 C0.67 4.69 0.34 2.38 0 0 Z " fill="#418A98" transform="translate(282,74)"/>
<path d="M0 0 C-6.625 4 -6.625 4 -10 4 C-10.33 4.99 -10.66 5.98 -11 7 C-12.32 6.67 -13.64 6.34 -15 6 C-13.58833114 5.01364163 -12.17043816 4.03618745 -10.75 3.0625 C-9.96109375 2.51722656 -9.1721875 1.97195312 -8.359375 1.41015625 C-3.26696833 -1.63348416 -3.26696833 -1.63348416 0 0 Z " fill="#A45473" transform="translate(115,25)"/>
<path d="M0 0 C0.66 0 1.32 0 2 0 C2.33 1.65 2.66 3.3 3 5 C3.66 5 4.32 5 5 5 C4.67 6.98 4.34 8.96 4 11 C1.22355795 8.67137119 0.09655054 7.37877519 -0.8125 3.8125 C-0.874375 2.884375 -0.93625 1.95625 -1 1 C-0.67 0.67 -0.34 0.34 0 0 Z " fill="#4BB3C1" transform="translate(324,135)"/>
<path d="M0 0 C3.68428193 3.28953744 5.8406504 6.60132489 8 11 C7.67 11.99 7.34 12.98 7 14 C7 13.34 7 12.68 7 12 C6.34 12 5.68 12 5 12 C4.9175 11.21625 4.835 10.4325 4.75 9.625 C4.27193661 6.85250896 4.27193661 6.85250896 1.9375 5.6875 C1.298125 5.460625 0.65875 5.23375 0 5 C0 3.35 0 1.7 0 0 Z " fill="#3C7686" transform="translate(215,128)"/>
<path d="M0 0 C0 4.03381023 -1.59573562 5.49433637 -4 8.6875 C-4.7425 9.68136719 -5.485 10.67523438 -6.25 11.69921875 C-7.11625 12.83810547 -7.11625 12.83810547 -8 14 C-8.33 12.68 -8.66 11.36 -9 10 C-8.01 9.67 -7.02 9.34 -6 9 C-6 8.01 -6 7.02 -6 6 C-5.34 6 -4.68 6 -4 6 C-3.67 4.35 -3.34 2.7 -3 1 C-2.01 0.67 -1.02 0.34 0 0 Z " fill="#A65072" transform="translate(103,96)"/>
<path d="M0 0 C4.69230769 1.48178138 4.69230769 1.48178138 6.1875 4 C6.455625 4.66 6.72375 5.32 7 6 C7.66 6.66 8.32 7.32 9 8 C8.625 10.125 8.625 10.125 8 12 C6.66081194 10.37982158 5.3288031 8.75370657 4 7.125 C3.2575 6.22007813 2.515 5.31515625 1.75 4.3828125 C0 2 0 2 0 0 Z " fill="#994B69" transform="translate(127,87)"/>
<path d="M0 0 C2.97 0.495 2.97 0.495 6 1 C6.33 3.97 6.66 6.94 7 10 C4.3513141 6.80331012 2.06007659 3.60513403 0 0 Z " fill="#397D85" transform="translate(257,112)"/>
<path d="M0 0 C0.556875 0.70125 1.11375 1.4025 1.6875 2.125 C4.09124732 5.11344261 6.53810432 8.05940238 9 11 C8.01 11.33 7.02 11.66 6 12 C6 11.34 6 10.68 6 10 C5.01 9.67 4.02 9.34 3 9 C3 8.01 3 7.02 3 6 C2.34 6 1.68 6 1 6 C0.67 4.02 0.34 2.04 0 0 Z " fill="#479193" transform="translate(271,59)"/>
<path d="M0 0 C1 4 1 4 0.00390625 5.703125 C-1.33072917 7.13541667 -2.66536458 8.56770833 -4 10 C-4.99 9.67 -5.98 9.34 -7 9 C-4.69 6.03 -2.38 3.06 0 0 Z " fill="#974A6B" transform="translate(79,58)"/>
<path d="M0 0 C0.556875 0.226875 1.11375 0.45375 1.6875 0.6875 C1.0275 1.3475 0.3675 2.0075 -0.3125 2.6875 C0.0175 3.3475 0.3475 4.0075 0.6875 4.6875 C-1.9525 4.6875 -4.5925 4.6875 -7.3125 4.6875 C-7.3125 4.0275 -7.3125 3.3675 -7.3125 2.6875 C-3.15982824 -0.42700382 -3.15982824 -0.42700382 0 0 Z " fill="#438F9E" transform="translate(219.3125,25.3125)"/>
<path d="M0 0 C3.39417765 3.12621626 5.6062718 5.56541027 7 10 C4.69 9.01 2.38 8.02 0 7 C0 4.69 0 2.38 0 0 Z " fill="#498F94" transform="translate(309,110)"/>
<path d="M0 0 C0.99928333 2.698065 1.03624754 3.88010429 0.1875 6.6875 C-1 9 -1 9 -3 10 C-3.66 9.67 -4.32 9.34 -5 9 C-3.50163895 5.88801935 -1.80066242 2.9465385 0 0 Z " fill="#A94974" transform="translate(85,49)"/>
<path d="M0 0 C0.66 0 1.32 0 2 0 C0.63629701 2.99220268 -0.94908083 5.29026529 -3.125 7.75 C-3.93324219 8.67039063 -3.93324219 8.67039063 -4.7578125 9.609375 C-5.16773438 10.06828125 -5.57765625 10.5271875 -6 11 C-6.33 9.68 -6.66 8.36 -7 7 C-6.01 7 -5.02 7 -4 7 C-3.34 5.35 -2.68 3.7 -2 2 C-1.34 2 -0.68 2 0 2 C0 1.34 0 0.68 0 0 Z " fill="#A24B6D" transform="translate(61,152)"/>
<path d="M0 0 C0 3.56229451 -0.76109009 4.41109679 -2.875 7.1875 C-3.40867187 7.90292969 -3.94234375 8.61835937 -4.4921875 9.35546875 C-4.98976562 9.89816406 -5.48734375 10.44085938 -6 11 C-6.66 11 -7.32 11 -8 11 C-6.68206814 5.33289301 -4.51290803 3.33562767 0 0 Z " fill="#DC558E" transform="translate(40,114)"/>
<path d="M0 0 C0.99 0 1.98 0 3 0 C1.42881935 4.71354196 -1.93818614 7.29212409 -6 10 C-5.34 7.69 -4.68 5.38 -4 3 C-2.68 2.67 -1.36 2.34 0 2 C0 1.34 0 0.68 0 0 Z " fill="#3A90B4" transform="translate(158,100)"/>
<path d="M0 0 C0.99 0.33 1.98 0.66 3 1 C0.36 4.3 -2.28 7.6 -5 11 C-5.33 10.01 -5.66 9.02 -6 8 C-5.34 7.01 -4.68 6.02 -4 5 C-3.34 5 -2.68 5 -2 5 C-2 4.01 -2 3.02 -2 2 C-1.34 2 -0.68 2 0 2 C0 1.34 0 0.68 0 0 Z " fill="#42838F" transform="translate(218,85)"/>
<path d="M0 0 C0.66 0.33 1.32 0.66 2 1 C2 2.65 2 4.3 2 6 C0 7 0 7 -3.125 6.0625 C-4.07375 5.711875 -5.0225 5.36125 -6 5 C-5.195625 4.360625 -4.39125 3.72125 -3.5625 3.0625 C-1.7249496 1.59396498 -1.7249496 1.59396498 0 0 Z " fill="#3E94AA" transform="translate(232,73)"/>
<path d="M0 0 C3.39417765 3.12621626 5.6062718 5.56541027 7 10 C4.525 9.01 4.525 9.01 2 8 C2 7.01 2 6.02 2 5 C1.34 5 0.68 5 0 5 C0 3.35 0 1.7 0 0 Z " fill="#469293" transform="translate(258,42)"/>
<path d="M0 0 C-1.65167557 3.5786304 -3.78286492 6.74820188 -6 10 C-6.33 8.68 -6.66 7.36 -7 6 C-6.34 6 -5.68 6 -5 6 C-5 4.35 -5 2.7 -5 1 C-2 0 -2 0 0 0 Z " fill="#3C7E90" transform="translate(180,139)"/>
<path d="M0 0 C0.66 0.33 1.32 0.66 2 1 C0.7260411 3.03833424 -0.61061923 5.03852126 -2 7 C-2.66 7 -3.32 7 -4 7 C-4.66 8.32 -5.32 9.64 -6 11 C-6.66 10.67 -7.32 10.34 -8 10 C-5.36 6.7 -2.72 3.4 0 0 Z " fill="#8A4461" transform="translate(42,108)"/>
<path d="M0 0 C1.32 0.33 2.64 0.66 4 1 C4 1.99 4 2.98 4 4 C4.99 4.33 5.98 4.66 7 5 C7 5.99 7 6.98 7 8 C7.66 8.33 8.32 8.66 9 9 C8.01 9 7.02 9 6 9 C4.39453125 7.03125 4.39453125 7.03125 2.8125 4.5 C2.28269531 3.6646875 1.75289063 2.829375 1.20703125 1.96875 C0.80871094 1.3190625 0.41039062 0.669375 0 0 Z " fill="#3C797C" transform="translate(282,146)"/>
<path d="M0 0 C1.43088528 2.86177057 0.59991697 4.93375773 0 8 C-1.98 8.33 -3.96 8.66 -6 9 C-4.02 6.03 -2.04 3.06 0 0 Z " fill="#326779" transform="translate(191,139)"/>
<path d="M0 0 C0.99 0.66 1.98 1.32 3 2 C1.68775452 5.93673644 0.08089673 8.22719294 -3 11 C-2.32829194 7.1936543 -1.27253436 3.64793184 0 0 Z " fill="#9D5774" transform="translate(164,67)"/>
<path d="M0 0 C0.99 0.33 1.98 0.66 3 1 C0.03 4.96 0.03 4.96 -3 9 C-3.33 7.68 -3.66 6.36 -4 5 C-3.01 4.67 -2.02 4.34 -1 4 C-0.26676204 1.98491642 -0.26676204 1.98491642 0 0 Z " fill="#3D8092" transform="translate(205,102)"/>
<path d="M0 0 C0.33 0.66 0.66 1.32 1 2 C0.0625 4.625 0.0625 4.625 -1 7 C-1.66 7 -2.32 7 -3 7 C-3 7.66 -3 8.32 -3 9 C-4.32 9.33 -5.64 9.66 -7 10 C-6.02223933 8.51990357 -5.0427506 7.04094856 -4.0625 5.5625 C-3.51722656 4.73878906 -2.97195312 3.91507812 -2.41015625 3.06640625 C-1 1 -1 1 0 0 Z " fill="#305F6F" transform="translate(161,93)"/>
<path d="M0 0 C0.99 0.33 1.98 0.66 3 1 C0.03 4.96 0.03 4.96 -3 9 C-4 5 -4 5 -3 2 C-2.01 1.34 -1.02 0.68 0 0 Z " fill="#A95373" transform="translate(113,81)"/>
<path d="M0 0 C0.66 0 1.32 0 2 0 C2 0.66 2 1.32 2 2 C2.639375 2.268125 3.27875 2.53625 3.9375 2.8125 C6 4 6 4 7 7 C7.66 7.66 8.32 8.32 9 9 C8.01 9 7.02 9 6 9 C4.39453125 7.28515625 4.39453125 7.28515625 2.8125 5.0625 C2.28269531 4.33160156 1.75289062 3.60070312 1.20703125 2.84765625 C0 1 0 1 0 0 Z " fill="#396573" transform="translate(233,80)"/>
<path d="M0 0 C0.99 0 1.98 0 3 0 C3.33 1.32 3.66 2.64 4 4 C1.69 4.66 -0.62 5.32 -3 6 C-2 4 -1 2 0 0 Z " fill="#387493" transform="translate(169,82)"/>
<path d="M0 0 C6.57142857 4 6.57142857 4 8 8 C6.68 8 5.36 8 4 8 C3.896875 7.360625 3.79375 6.72125 3.6875 6.0625 C3.460625 5.381875 3.23375 4.70125 3 4 C2.01 3.67 1.02 3.34 0 3 C0 2.01 0 1.02 0 0 Z " fill="#AA5274" transform="translate(133,29)"/>
<path d="M0 0 C1 3 1 3 -0.4375 6.1875 C-1.2109375 7.5796875 -1.2109375 7.5796875 -2 9 C-2.99 9 -3.98 9 -5 9 C-3.7508258 5.54074837 -2.32472205 2.85306797 0 0 Z " fill="#315D71" transform="translate(153,103)"/>
<path d="M0 0 C1.875 0.3125 1.875 0.3125 4 1 C6 4 6 4 5.625 6.1875 C5.41875 6.785625 5.2125 7.38375 5 8 C4.16382818 6.8562364 3.33113541 5.70992861 2.5 4.5625 C2.0359375 3.92441406 1.571875 3.28632812 1.09375 2.62890625 C0 1 0 1 0 0 Z " fill="#3A707B" transform="translate(251,104)"/>
<path d="M0 0 C0 3 0 3 -2.5 5.6875 C-3.325 6.450625 -4.15 7.21375 -5 8 C-4.64950425 4.75791433 -4.43778819 3.38472296 -1.9375 1.1875 C-1.298125 0.795625 -0.65875 0.40375 0 0 Z " fill="#A75072" transform="translate(159,79)"/>
<path d="M0 0 C2.475 0.495 2.475 0.495 5 1 C5.33 3.31 5.66 5.62 6 8 C3.47154472 6.73577236 3.23577236 5.47154472 2 3 C1.34 2.67 0.68 2.34 0 2 C0 1.34 0 0.68 0 0 Z " fill="#3E9AB7" transform="translate(235,80)"/>
<path d="M0 0 C0.66 1.32 1.32 2.64 2 4 C0.35 5.32 -1.3 6.64 -3 8 C-3.36923077 3.44615385 -3.36923077 3.44615385 -1.5 1.1875 C-1.005 0.795625 -0.51 0.40375 0 0 Z " fill="#387A91" transform="translate(189,56)"/>
<path d="M0 0 C0.66 0 1.32 0 2 0 C0.55746343 3.36591866 -1.33264727 5.51047079 -4 8 C-3.67 6.35 -3.34 4.7 -3 3 C-2.34 3 -1.68 3 -1 3 C-0.67 2.01 -0.34 1.02 0 0 Z " fill="#3D7B8B" transform="translate(184,131)"/>
<path d="M0 0 C1.65 1.65 3.3 3.3 5 5 C4.34 5.66 3.68 6.32 3 7 C2.01 6.34 1.02 5.68 0 5 C-0.1875 2.375 -0.1875 2.375 0 0 Z " fill="#42969A" transform="translate(316,120)"/>
<path d="M0 0 C2.475 0.99 2.475 0.99 5 2 C5 1.34 5 0.68 5 0 C5.99 0.33 6.98 0.66 8 1 C7.01 2.485 7.01 2.485 6 4 C4.35 3.67 2.7 3.34 1 3 C0.67 2.01 0.34 1.02 0 0 Z " fill="#99496E" transform="translate(137,100)"/>
<path d="M0 0 C0.99 0.33 1.98 0.66 3 1 C2.34 2.32 1.68 3.64 1 5 C0.01 5 -0.98 5 -2 5 C-2 5.66 -2 6.32 -2 7 C-2.66 6.67 -3.32 6.34 -4 6 C-2.68 4.02 -1.36 2.04 0 0 Z " fill="#994868" transform="translate(54,91)"/>
<path d="M0 0 C4.875 4.75 4.875 4.75 6 7 C4.35 6.67 2.7 6.34 1 6 C0.67 4.02 0.34 2.04 0 0 Z " fill="#41989B" transform="translate(265,52)"/>
<path d="M0 0 C0.33 0.99 0.66 1.98 1 3 C1.66 3.33 2.32 3.66 3 4 C2.67 4.99 2.34 5.98 2 7 C0.68 7.33 -0.64 7.66 -2 8 C-1.34 5.36 -0.68 2.72 0 0 Z " fill="#47B9C1" transform="translate(259,47)"/>
<path d="M0 0 C0.75 1.75 0.75 1.75 1 4 C-0.9375 6.25 -0.9375 6.25 -3 8 C-3.36923077 3.44615385 -3.36923077 3.44615385 -1.5 1.1875 C-1.005 0.795625 -0.51 0.40375 0 0 Z " fill="#B54D78" transform="translate(99,32)"/>
<path d="M0 0 C2.5 2.3125 2.5 2.3125 5 5 C5 5.99 5 6.98 5 8 C3.02 6.68 1.04 5.36 -1 4 C-0.67 2.68 -0.34 1.36 0 0 Z " fill="#A74D72" transform="translate(145,42)"/>
<path d="M0 0 C0.33 0.66 0.66 1.32 1 2 C0.67 2.66 0.34 3.32 0 4 C-2.31 3.67 -4.62 3.34 -7 3 C-4.66785852 1.79371992 -2.50357861 0.8345262 0 0 Z " fill="#C44C79" transform="translate(35,160)"/>
<path d="M0 0 C2 3 2 3 2 7 C2.66 7.33 3.32 7.66 4 8 C3.01 8 2.02 8 1 8 C-0.42944945 5.64561267 -1.08661261 4.51967567 -0.625 1.75 C-0.41875 1.1725 -0.2125 0.595 0 0 Z " fill="#8A3857" transform="translate(22,150)"/>
<path d="M0 0 C2.475 0.495 2.475 0.495 5 1 C5 2.98 5 4.96 5 7 C3.29115995 5.37660195 1.62553283 3.70680947 0 2 C0 1.34 0 0.68 0 0 Z " fill="#397982" transform="translate(272,132)"/>
<path d="M0 0 C1.32 0 2.64 0 4 0 C3.25 1.9375 3.25 1.9375 2 4 C-0.125 4.75 -0.125 4.75 -2 5 C-2 4.34 -2 3.68 -2 3 C-1.34 3 -0.68 3 0 3 C0 2.01 0 1.02 0 0 Z " fill="#3B8A9D" transform="translate(197,111)"/>
</svg>
