<?xml version="1.0" encoding="UTF-8"?>
<svg version="1.1" xmlns="http://www.w3.org/2000/svg" width="551" height="327">
<path d="M0 0 C8.81859055 6.04204422 14.81956724 15.49916782 20.96484375 24.06640625 C22.97524672 26.85515589 25.0282552 29.60636073 27.09765625 32.3515625 C31.0755492 37.63480893 34.99599135 42.95847753 38.91015625 48.2890625 C43.69317331 54.79694554 48.54205199 61.24016157 53.48828125 67.625 C57.86230486 73.28446533 62.12270389 79.03055685 66.40527344 84.75927734 C68.01975152 86.91442955 69.63997907 89.06515156 71.26171875 91.21484375 C71.79941895 91.92858154 72.33711914 92.64231934 72.89111328 93.37768555 C73.91429083 94.73555176 74.93862808 96.09254523 75.96435547 97.44848633 C86.53906578 111.50003875 86.53906578 111.50003875 85.78515625 121.28515625 C84.71473734 126.95264211 82.80882808 131.69817278 78.07421875 135.29296875 C72.36268368 139.01926765 67.88367354 140.4089026 60.97265625 139.8515625 C47.33895352 136.55990181 41.0375753 124.31607917 33.39453125 113.59765625 C30.19697611 109.13251185 26.89021601 104.76158624 23.53515625 100.4140625 C18.98277145 94.50769132 14.51274375 88.54872769 10.09765625 82.5390625 C9.52257324 81.76401367 8.94749023 80.98896484 8.35498047 80.19042969 C5.18444319 75.90972092 2.09117473 71.59097795 -0.9296875 67.203125 C-2.23305967 65.35676148 -3.53644476 63.51040709 -4.83984375 61.6640625 C-5.42556152 60.78387451 -6.0112793 59.90368652 -6.61474609 58.99682617 C-9.69515894 54.47692301 -9.69515894 54.47692301 -14.47802734 52.31005859 C-16.73446338 52.30168019 -18.80946045 52.45115079 -21.02734375 52.8515625 C-21.27484375 53.57472656 -21.52234375 54.29789063 -21.77734375 55.04296875 C-23.15860261 58.14648474 -24.81068431 60.22011255 -27.02734375 62.7890625 C-30.5447005 66.98175175 -33.81927196 71.24950556 -36.96484375 75.7265625 C-40.52662796 80.7854477 -44.20111798 85.72633137 -48.00024414 90.61157227 C-51.71351013 95.40474943 -55.31329652 100.27741036 -58.90234375 105.1640625 C-59.4950708 105.9689209 -60.08779785 106.7737793 -60.69848633 107.60302734 C-63.59147074 111.53200495 -66.47534273 115.46710664 -69.34375 119.4140625 C-70.38379645 120.83096274 -71.42414601 122.24764055 -72.46484375 123.6640625 C-72.9242334 124.3031958 -73.38362305 124.9423291 -73.85693359 125.60083008 C-77.79552687 130.93206334 -83.50248196 137.76526897 -90.19140625 139.37109375 C-98.23770087 140.32898597 -104.43628808 139.15782825 -110.90234375 134.1015625 C-115.30744527 129.94175666 -117.14359183 125.43780711 -117.40234375 119.4140625 C-117.50553263 110.35063913 -112.05507779 103.76314875 -106.71484375 97.0390625 C-105.26684377 95.17946334 -103.82025754 93.3187626 -102.375 91.45703125 C-101.64684082 90.52294434 -100.91868164 89.58885742 -100.16845703 88.62646484 C-96.92362744 84.4211361 -93.78522026 80.14058332 -90.65234375 75.8515625 C-85.95313023 69.43760155 -81.18715809 63.08716863 -76.30859375 56.80859375 C-73.51168254 53.18314549 -70.76762309 49.51990084 -68.02734375 45.8515625 C-61.26694135 36.80700817 -54.47972808 27.78320733 -47.65234375 18.7890625 C-46.9867041 17.90903564 -46.32106445 17.02900879 -45.63525391 16.12231445 C-34.54655871 1.54211476 -34.54655871 1.54211476 -28.90234375 -1.0234375 C-27.66097656 -1.60738281 -27.66097656 -1.60738281 -26.39453125 -2.203125 C-17.42213243 -5.78616215 -8.3511505 -4.73070953 0 0 Z " fill="#40A7C0" transform="translate(347.02734375,27.1484375)"/>
<path d="M0 0 C5.61366953 4.36179487 9.64443829 10.43946247 13.85253906 16.10009766 C15.57159318 18.40091655 17.32114854 20.67729246 19.07592773 22.95092773 C19.91988063 24.04556291 20.76059685 25.14270192 21.59790039 26.24243164 C23.48312222 28.71388154 25.39963964 31.13146554 27.41796875 33.49609375 C28.07667969 34.2746875 28.73539063 35.05328125 29.4140625 35.85546875 C29.99671875 36.51546875 30.579375 37.17546875 31.1796875 37.85546875 C32.1640625 39.85546875 32.1640625 39.85546875 31.57421875 42.28125 C30.03467913 45.09165612 28.31979063 47.51238973 26.3515625 50.04296875 C22.17312121 55.49815599 18.11573222 61.02824978 14.1015625 66.60546875 C13.51721436 67.41653076 12.93286621 68.22759277 12.33081055 69.06323242 C10.94095267 70.99330312 9.55200746 72.92402222 8.1640625 74.85546875 C4.38912833 74.31457498 3.08072224 72.95832704 0.81640625 69.9609375 C0.21119141 69.17009766 -0.39402344 68.37925781 -1.01757812 67.56445312 C-1.63826172 66.73236328 -2.25894531 65.90027344 -2.8984375 65.04296875 C-3.52298828 64.22248047 -4.14753906 63.40199219 -4.79101562 62.55664062 C-9.34625868 56.56238803 -9.34625868 56.56238803 -11.38452148 53.61987305 C-12.72761376 51.61452529 -12.72761376 51.61452529 -15.2734375 51.33203125 C-18.78357787 52.04904163 -19.66306377 53.40403535 -21.8359375 56.23046875 C-22.61582031 57.23851562 -23.39570313 58.2465625 -24.19921875 59.28515625 C-25.08182649 60.4725179 -25.96050164 61.66280946 -26.8359375 62.85546875 C-27.31595215 63.5093457 -27.7959668 64.16322266 -28.29052734 64.83691406 C-31.00910234 68.55853449 -33.7012326 72.2985338 -36.3828125 76.046875 C-39.80531632 80.82614325 -43.28118633 85.56450951 -46.7734375 90.29296875 C-47.35077637 91.07486572 -47.92811523 91.8567627 -48.52294922 92.66235352 C-49.69772091 94.25291153 -50.87268923 95.84332433 -52.04785156 97.43359375 C-54.48406535 100.73332624 -56.91410059 104.03758829 -59.34423828 107.34179688 C-61.10470075 109.73354832 -62.86833967 112.12292491 -64.6328125 114.51171875 C-66.61227587 117.19160762 -68.58174398 119.87812287 -70.5390625 122.57421875 C-71.70695312 124.1675 -71.70695312 124.1675 -72.8984375 125.79296875 C-73.87490234 127.13681641 -73.87490234 127.13681641 -74.87109375 128.5078125 C-79.31584726 133.81854184 -84.12093157 136.50808583 -90.8359375 137.85546875 C-97.5898557 138.25680515 -102.63190619 136.05645548 -107.8359375 131.85546875 C-113.02517212 126.39311652 -114.38654844 121.1269211 -114.19921875 113.7421875 C-113.09561182 104.97266576 -107.08194439 98.29429852 -101.76171875 91.5859375 C-98.43230553 87.37705664 -95.25918438 83.05766359 -92.0859375 78.73046875 C-91.49514404 77.92641602 -90.90435059 77.12236328 -90.2956543 76.29394531 C-89.0830145 74.64309453 -87.87086025 72.99188699 -86.65917969 71.34033203 C-78.94913883 60.83245899 -71.22361715 50.33766319 -63.38330078 39.92651367 C-60.0305142 35.46783122 -56.71829487 30.98087133 -53.42041016 26.48144531 C-23.32871423 -14.54321972 -23.32871423 -14.54321972 0 0 Z " fill="#EA5A93" transform="translate(236.8359375,29.14453125)"/>
<path d="M0 0 C4.95 0 9.9 0 15 0 C18.10696077 3.22420458 19.14948868 5.07318553 21 9 C22.29320156 11.22323296 23.63013614 13.41739688 24.96557617 15.61547852 C26.33354688 17.8692061 27.68922185 20.1284675 29.0234375 22.40234375 C29.40419434 23.04679443 29.78495117 23.69124512 30.17724609 24.35522461 C31 26 31 26 31 28 C33.70407972 25.55291748 35.42122193 22.86933406 37.28515625 19.74609375 C37.89810547 18.72708984 38.51105469 17.70808594 39.14257812 16.65820312 C39.77615234 15.59537109 40.40972656 14.53253906 41.0625 13.4375 C42.32162135 11.33047691 43.58322125 9.22493238 44.84765625 7.12109375 C45.40461182 6.1870874 45.96156738 5.25308105 46.53540039 4.29077148 C48 2 48 2 50 0 C54.62 0 59.24 0 64 0 C64 20.46 64 40.92 64 62 C59.38 62 54.76 62 50 62 C49.505 44.675 49.505 44.675 49 27 C45.04902684 33.89258484 45.04902684 33.89258484 41.1640625 40.82226562 C37.21942538 47.44505105 37.21942538 47.44505105 33.96411133 48.92651367 C31.55748059 49.17095263 30.20554355 48.99937792 28 48 C25.64793944 45.74301793 24.21734715 43.17070224 22.6875 40.3125 C22.27177734 39.59126953 21.85605469 38.87003906 21.42773438 38.12695312 C20.6488804 36.77107856 19.8819486 35.40822754 19.1315918 34.03637695 C17.81045011 31.65889198 16.39937645 29.33229409 15 27 C14.67 38.55 14.34 50.1 14 62 C9.38 62 4.76 62 0 62 C0 41.54 0 21.08 0 0 Z " fill="#E85896" transform="translate(30,233)"/>
<path d="M0 0 C4.78981364 0.03403065 6.76753348 0.21359619 10.26855469 3.56640625 C12.84953167 7.14921584 14.87074081 11.02466439 16.8984375 14.9375 C17.64878751 16.28916678 18.40395956 17.63816858 19.1640625 18.984375 C21.00770714 22.273895 22.78187853 25.59289349 24.5234375 28.9375 C24.85553223 28.40906494 25.18762695 27.88062988 25.52978516 27.33618164 C27.06808657 24.88999959 28.60825326 22.44499697 30.1484375 20 C30.67050781 19.16919922 31.19257813 18.33839844 31.73046875 17.48242188 C32.79143484 15.79928431 33.86754048 14.12560189 34.95800781 12.46142578 C36.56829797 9.97205436 36.56829797 9.97205436 37.76855469 7.30029297 C39.046875 4.80859375 39.046875 4.80859375 42.5234375 0.9375 C47.1434375 0.9375 51.7634375 0.9375 56.5234375 0.9375 C56.5234375 21.3975 56.5234375 41.8575 56.5234375 62.9375 C51.9034375 62.9375 47.2834375 62.9375 42.5234375 62.9375 C42.0284375 45.6125 42.0284375 45.6125 41.5234375 27.9375 C37.99273162 33.72578378 37.99273162 33.72578378 34.46337891 39.51489258 C34.02171387 40.23829834 33.58004883 40.9617041 33.125 41.70703125 C32.67463379 42.44542236 32.22426758 43.18381348 31.76025391 43.94458008 C28.68548555 48.89904792 28.68548555 48.89904792 24.8359375 49.8125 C22.67578125 49.73046875 22.67578125 49.73046875 20.5234375 48.9375 C17.53923366 45.62933249 15.59382168 41.86241979 13.5234375 37.9375 C11.5434375 34.3075 9.5634375 30.6775 7.5234375 26.9375 C7.1934375 38.8175 6.8634375 50.6975 6.5234375 62.9375 C2.2334375 62.9375 -2.0565625 62.9375 -6.4765625 62.9375 C-8.23174356 61.18231894 -7.60417033 58.71400285 -7.60595703 56.33203125 C-7.60910919 55.13408936 -7.61226135 53.93614746 -7.61550903 52.7019043 C-7.6134848 51.39777588 -7.61146057 50.09364746 -7.609375 48.75 C-7.6100481 47.40860985 -7.61101818 46.06721981 -7.61227417 44.72583008 C-7.61375086 41.91128379 -7.61159754 39.09676918 -7.60693359 36.28222656 C-7.60123631 32.66709369 -7.60451547 29.05203505 -7.61050606 25.43690491 C-7.61411247 22.66605058 -7.61297272 19.89521398 -7.61037827 17.12435913 C-7.60938283 15.14060417 -7.61242991 13.15684853 -7.61550903 11.1730957 C-7.61235687 9.97515381 -7.60920471 8.77721191 -7.60595703 7.54296875 C-7.60516144 6.48231201 -7.60436584 5.42165527 -7.60354614 4.32885742 C-7.35644371 -0.32457845 -4.09906865 0.39085803 0 0 Z " fill="#748DBA" transform="translate(296.4765625,232.0625)"/>
<path d="M0 0 C4.62 0 9.24 0 14 0 C14 20.46 14 40.92 14 62 C9.71 62 5.42 62 1 62 C1 61.01 1 60.02 1 59 C0.01 59.639375 -0.98 60.27875 -2 60.9375 C-6.66367529 63.55964675 -10.9937992 64.53997389 -16.26171875 63.59375 C-23.2640361 61.59648461 -28.22596795 58.07498888 -31.875 51.75 C-34.16913803 44.10287323 -34.65204808 37.57728022 -32 30 C-28.95644329 24.45637885 -25.18288114 20.80650011 -19.6875 17.6875 C-12.3686197 15.8152283 -8.05557321 16.97618291 -1 20 C-0.67 13.4 -0.34 6.8 0 0 Z M-19 34 C-20.52199443 38.56598329 -20.74716734 42.39892714 -18.6875 46.8125 C-17.01607792 49.22038518 -17.01607792 49.22038518 -14 51 C-8.18051663 51.58070527 -8.18051663 51.58070527 -3.0625 49.125 C-0.21550924 46.19173679 0.15443396 44.60615071 0.1875 40.625 C0.20876953 39.46871094 0.20876953 39.46871094 0.23046875 38.2890625 C-0.02831559 35.71876383 -0.61167765 34.17100071 -2 32 C-9.29437555 27.46127744 -12.87369811 28.01293224 -19 34 Z " fill="#C466A5" transform="translate(181,233)"/>
<path d="M0 0 C0.66 0.33 1.32 0.66 2 1 C2 0.01 2 -0.98 2 -2 C6.29 -2 10.58 -2 15 -2 C15 12.52 15 27.04 15 42 C10.71 42 6.42 42 2 42 C1.67 41.34 1.34 40.68 1 40 C0.175 40.474375 -0.65 40.94875 -1.5 41.4375 C-8.09111018 44.3799599 -13.15965904 44.6180317 -19.82421875 42.07421875 C-24.93960942 39.54866681 -29.58483163 35.84997144 -31.5625 30.3125 C-33.02045078 22.60618872 -33.57181306 13.53909466 -29.3359375 6.64453125 C-21.31969395 -3.22341769 -11.39001808 -5.81123372 0 0 Z M-18 14 C-19.15610677 18.10379621 -19.30319521 21.73209278 -18.3125 25.875 C-16.71431011 28.46254553 -15.74144864 29.62927568 -13 31 C-7.94196758 31.65264934 -6.00154929 31.58271959 -1.5625 29 C1.19413294 25.77272241 1.9494443 24.12479198 2.17578125 19.99609375 C1.89558091 16.81426324 0.75249634 14.6287445 -1 12 C-6.55187708 8.29874861 -13.7149356 8.50976123 -18 14 Z " fill="#3DACC4" transform="translate(391,253)"/>
<path d="M0 0 C2.5 1.5625 2.5 1.5625 3.5 2.5625 C3.83 1.5725 4.16 0.5825 4.5 -0.4375 C8.79 -0.4375 13.08 -0.4375 17.5 -0.4375 C17.5 14.0825 17.5 28.6025 17.5 43.5625 C13.21 43.5625 8.92 43.5625 4.5 43.5625 C4.5 42.5725 4.5 41.5825 4.5 40.5625 C3.84 40.5625 3.18 40.5625 2.5 40.5625 C2.5 41.2225 2.5 41.8825 2.5 42.5625 C-4.95880389 45.6185377 -9.99122956 46.33064527 -17.6875 43.3125 C-23.48291047 39.70646682 -27.51999539 35.11336631 -29.5 28.5625 C-30.70283815 19.85306082 -29.57800654 12.80880135 -24.5 5.5625 C-17.85304557 -1.25937428 -8.79469857 -3.61210834 0 0 Z M-14.5 14.5625 C-16.38654219 18.43444248 -16.68458637 21.6026509 -15.875 25.8125 C-14.3154546 28.93159081 -13.42019699 30.615702 -10.5 32.5625 C-5.87193221 33.41184577 -2.55203312 33.19810335 1.5 30.75 C4.08489064 27.92277586 4.45472792 26.04238406 4.8125 22.25 C4.44050629 17.8604742 3.30652364 15.91473657 0.5 12.5625 C-4.96179286 8.68638893 -9.75514884 10.34485452 -14.5 14.5625 Z " fill="#8C7FB6" transform="translate(251.5,251.4375)"/>
<path d="M0 0 C5.05340874 2.93658044 8.46730408 6.99710816 11.0625 12.1875 C11.96038749 16.85651497 11.6875 21.68293348 11.6875 26.4375 C1.7875 26.7675 -8.1125 27.0975 -18.3125 27.4375 C-15.88221873 31.45278269 -15.88221873 31.45278269 -13.26171875 32.15234375 C-7.94568948 32.67568342 -5.04815937 32.19079033 -0.3125 29.4375 C3.6875 29.4375 3.6875 29.4375 5.390625 30.75 C5.90109375 31.306875 6.4115625 31.86375 6.9375 32.4375 C7.45828125 32.994375 7.9790625 33.55125 8.515625 34.125 C8.90234375 34.558125 9.2890625 34.99125 9.6875 35.4375 C8.45029125 39.2865939 6.10456035 40.72720418 2.6015625 42.55078125 C-4.54283637 45.86053338 -11.01774979 46.10401311 -18.484375 43.75390625 C-24.55428848 41.10714165 -29.3972323 36.51358255 -32.2265625 30.4921875 C-34.23793967 23.86805201 -33.13882122 17.19190407 -31.1875 10.6875 C-24.93564478 -0.14904905 -11.71280365 -5.20569051 0 0 Z M-18.3125 14.4375 C-18.3125 14.7675 -18.3125 15.0975 -18.3125 15.4375 C-13.0325 15.4375 -7.7525 15.4375 -2.3125 15.4375 C-3.96106825 11.31346527 -3.96106825 11.31346527 -7.3125 9.4375 C-12.84646957 8.5953742 -14.82239504 10.22884402 -18.3125 14.4375 Z " fill="#3EACBB" transform="translate(474.3125,251.5625)"/>
<path d="M0 0 C6.55980708 3.67349197 9.52243441 6.71343377 12.125 13.75 C12.125 18.04 12.125 22.33 12.125 26.75 C2.225 26.75 -7.675 26.75 -17.875 26.75 C-16.31740864 30.61939864 -16.31740864 30.61939864 -14.1875 32 C-9.59604248 33.48912136 -5.99014414 33.26468191 -1.625 31.25 C-0.7175 30.755 0.19 30.26 1.125 29.75 C5.51468456 29.75 6.89405739 31.87805101 10.125 34.75 C9.82181755 37.57970285 9.1579366 38.71493845 7.1875 40.8125 C0.69765876 44.91831792 -5.87550956 46.44370424 -13.48828125 45.3203125 C-20.39292461 43.67043045 -24.81465456 40.66650336 -28.875 34.75 C-32.48868634 28.27028656 -32.94789502 22.27100417 -31.25390625 15.1328125 C-29.05053 8.68916108 -25.56653983 4.48076726 -19.875 0.75 C-13.7594322 -2.20404648 -6.35931067 -2.55209178 0 0 Z M-16.875 12.75 C-16.875 14.07 -16.875 15.39 -16.875 16.75 C-14.58358714 16.80384521 -12.29181812 16.84272087 -10 16.875 C-8.72382812 16.89820313 -7.44765625 16.92140625 -6.1328125 16.9453125 C-2.78906662 17.10641524 -2.78906662 17.10641524 -0.875 14.75 C-3.6605982 11.37351733 -5.02114309 9.86983957 -9.4375 9.25 C-12.953402 9.76140393 -14.52090301 10.11341137 -16.875 12.75 Z " fill="#E55694" transform="translate(131.875,251.25)"/>
<path d="M0 0 C3.39246555 1.13082185 3.85928881 1.81023276 5.84765625 4.640625 C6.37037109 5.38183594 6.89308594 6.12304688 7.43164062 6.88671875 C8.23891602 8.05654297 8.23891602 8.05654297 9.0625 9.25 C9.60455078 10.01441406 10.14660156 10.77882812 10.70507812 11.56640625 C15.16602767 17.95179509 17.92029925 22.96964688 17 31 C15.64534538 37.56391739 12.50713221 41.31331274 7 45 C1.14620535 48.42391763 -3.55183947 48.47009949 -10 47 C-15.88439062 45.04206427 -21.59077974 41.26984556 -25 36 C-24.56517595 32.40644856 -22.87242333 30.21368186 -20.68359375 27.40234375 C-20.00490234 26.52280029 -19.32621094 25.64325684 -18.62695312 24.73706055 C-17.90443359 23.81320557 -17.18191406 22.88935059 -16.4375 21.9375 C-14.97698924 20.04755112 -13.51734515 18.15693217 -12.05859375 16.265625 C-11.35718262 15.35876953 -10.65577148 14.45191406 -9.93310547 13.51757812 C-6.52627566 9.08069647 -3.24429809 4.55695817 0 0 Z " fill="#3F9AB9" transform="translate(309,119)"/>
<path d="M0 0 C1.8984375 1.265625 1.8984375 1.265625 2.82421875 3.171875 C2.92122639 5.90851153 2.13878191 6.88762722 0.4609375 9.015625 C-0.01214844 9.62921875 -0.48523438 10.2428125 -0.97265625 10.875 C-1.34519531 11.33390625 -1.71773437 11.7928125 -2.1015625 12.265625 C-2.8646875 11.95625 -3.6278125 11.646875 -4.4140625 11.328125 C-7.89262027 9.95288123 -10.56594111 9.14209022 -14.2890625 9.203125 C-15.5471875 9.22375 -16.8053125 9.244375 -18.1015625 9.265625 C-18.1015625 10.255625 -18.1015625 11.245625 -18.1015625 12.265625 C-17.16054688 12.50796875 -16.21953125 12.7503125 -15.25 13 C-13.38214844 13.50273437 -13.38214844 13.50273437 -11.4765625 14.015625 C-10.24679687 14.34046875 -9.01703125 14.6653125 -7.75 15 C-3.2885414 16.54765802 0.51997481 18.25950494 3.25390625 22.23828125 C4.73181338 26.88697094 4.60103663 31.60157443 2.7109375 36.078125 C-1.40322996 41.04349952 -5.68550662 43.78979289 -12.16796875 44.48828125 C-20.56917198 44.82432938 -27.42235961 42.23221176 -34.1015625 37.265625 C-33.59857462 32.86448103 -32.01383519 30.55367481 -29.1015625 27.265625 C-24.1015625 29.265625 -24.1015625 29.265625 -21.7890625 30.390625 C-18.10796306 31.58912249 -14.96499443 31.39658879 -11.1015625 31.265625 C-10.7715625 30.275625 -10.4415625 29.285625 -10.1015625 28.265625 C-11.19855469 27.95109375 -12.29554688 27.6365625 -13.42578125 27.3125 C-14.88038718 26.8808105 -16.33480449 26.44848509 -17.7890625 26.015625 C-18.51029297 25.81066406 -19.23152344 25.60570312 -19.97460938 25.39453125 C-25.26241148 23.80094705 -29.47922371 21.92036121 -32.4765625 17.015625 C-33.73770648 11.46659148 -32.97238139 7.66421291 -30.0390625 2.953125 C-21.39034642 -4.95953014 -10.36355393 -4.11926749 0 0 Z " fill="#3EAEBD" transform="translate(522.1015625,252.734375)"/>
<path d="M0 0 C0 4.29 0 8.58 0 13 C2.97 13 5.94 13 9 13 C10.1898306 15.3796612 10.13349966 16.91485735 10.125 19.5625 C10.12886719 20.77099609 10.12886719 20.77099609 10.1328125 22.00390625 C10 24 10 24 9 25 C6.03 25 3.06 25 0 25 C0.33 31.6 0.66 38.2 1 45 C3.31 45 5.62 45 8 45 C10.56616632 48.84924948 10.55097676 51.4349304 11 56 C7.01642453 58.65571698 3.75590462 59.15728189 -1 59 C-5.11933128 58.0736432 -8.5573101 56.94889689 -11.14111328 53.45849609 C-14.54510435 47.60567716 -14.47598239 42.12302239 -14.25 35.5 C-14.23195313 34.48679687 -14.21390625 33.47359375 -14.1953125 32.4296875 C-14.14856583 29.95211393 -14.08306372 27.47657684 -14 25 C-16.31 25 -18.62 25 -21 25 C-21 21.04 -21 17.08 -21 13 C-18.69 13 -16.38 13 -14 13 C-14 10.03 -14 7.06 -14 4 C-8.98355213 1.37776588 -5.6520473 0 0 0 Z " fill="#39B2C3" transform="translate(430,238)"/>
<path d="M0 0 C0.804375 0.495 1.60875 0.99 2.4375 1.5 C0.625 2.125 0.625 2.125 -1.5625 2.5 C-2.5525 1.84 -3.5425 1.18 -4.5625 0.5 C-4.5625 1.16 -4.5625 1.82 -4.5625 2.5 C-3.9025 2.5 -3.2425 2.5 -2.5625 2.5 C-2.2325 3.49 -1.9025 4.48 -1.5625 5.5 C-2.80502679 6.34443568 -4.0568886 7.1751458 -5.3125 8 C-6.00859375 8.4640625 -6.7046875 8.928125 -7.421875 9.40625 C-9.5625 10.5 -9.5625 10.5 -13.5625 10.5 C-13.5625 11.16 -13.5625 11.82 -13.5625 12.5 C-14.5525 12.995 -14.5525 12.995 -15.5625 13.5 C-15.78107101 18.96427518 -15.62377631 23.34680923 -13.5625 28.5 C-12.89583333 30.5 -12.22916667 32.5 -11.5625 34.5 C-10.469375 34.5 -9.37625 34.5 -8.25 34.5 C-6.02083333 34.5 -3.79166667 34.5 -1.5625 34.5 C-1.5625 35.16 -1.5625 35.82 -1.5625 36.5 C-0.9025 36.974375 -0.2425 37.44875 0.4375 37.9375 C1.0975 38.453125 1.7575 38.96875 2.4375 39.5 C2.4375 40.49 2.4375 41.48 2.4375 42.5 C-5.02130389 45.5560377 -10.05372956 46.26814527 -17.75 43.25 C-23.54541047 39.64396682 -27.58249539 35.05086631 -29.5625 28.5 C-30.76533815 19.79056082 -29.64050654 12.74630135 -24.5625 5.5 C-17.8917073 -1.34633987 -8.79621798 -3.70367073 0 0 Z " fill="#A173AF" transform="translate(251.5625,251.5)"/>
<path d="M0 0 C5.09781856 0.22281856 5.09781856 0.22281856 6.3125 1.4375 C6.4113747 3.17602892 6.44049029 4.91857439 6.44189453 6.65991211 C6.44504669 7.7745433 6.44819885 8.8891745 6.45144653 10.0375824 C6.4494223 11.25107864 6.44739807 12.46457489 6.4453125 13.71484375 C6.44674759 15.57007408 6.44674759 15.57007408 6.44821167 17.46278381 C6.44906897 20.75822686 6.44502865 24.05362322 6.43945312 27.34906006 C6.43750355 29.37131248 6.43944386 31.39352145 6.44287109 33.41577148 C6.44903099 37.28631625 6.4483042 41.15679634 6.4453125 45.02734375 C6.44733673 46.23881577 6.44936096 47.45028778 6.45144653 48.69847107 C6.44829437 49.81625443 6.44514221 50.93403778 6.44189453 52.08569336 C6.44109894 53.07306992 6.44030334 54.06044647 6.43948364 55.07774353 C6.3125 57.4375 6.3125 57.4375 5.3125 59.4375 C2.66389573 60.03105614 0.02052678 60.17959269 -2.6875 60.4375 C-4.62806522 56.33507703 -4.98622094 52.90426303 -5.1015625 48.38671875 C-5.12092865 47.72791214 -5.1402948 47.06910553 -5.1602478 46.39033508 C-5.21965941 44.30201857 -5.26627291 42.21364576 -5.3125 40.125 C-5.35071532 38.70245095 -5.38976909 37.27992416 -5.4296875 35.85742188 C-5.52532796 32.38431926 -5.60949973 28.91104868 -5.6875 25.4375 C-6.60789062 24.97730469 -6.60789062 24.97730469 -7.546875 24.5078125 C-9.59375 23.484375 -11.640625 22.4609375 -13.6875 21.4375 C-11.8125 14.6875 -11.8125 14.6875 -10.6875 12.4375 C-10.584375 11.53 -10.48125 10.6225 -10.375 9.6875 C-8.94185599 2.9126374 -7.04484779 0.063961 0 0 Z " fill="#49A1C1" transform="translate(345.6875,233.5625)"/>
<path d="M0 0 C4.62 0 9.24 0 14 0 C14 20.46 14 40.92 14 62 C9.38 62 4.76 62 0 62 C-0.33 50.45 -0.66 38.9 -1 27 C-4.53070588 32.78828378 -4.53070588 32.78828378 -8.06005859 38.57739258 C-8.50172363 39.30079834 -8.94338867 40.0242041 -9.3984375 40.76953125 C-9.84880371 41.50792236 -10.29916992 42.24631348 -10.76318359 43.00708008 C-11.80907225 44.6923523 -12.89978666 46.34967999 -14 48 C-15.9453125 48.29296875 -15.9453125 48.29296875 -18.125 48.1875 C-19.40375 48.125625 -20.6825 48.06375 -22 48 C-22.2475 47.175 -22.495 46.35 -22.75 45.5 C-24.18786395 41.47398093 -26.03047273 37.78558488 -28 34 C-28.33 33.34 -28.66 32.68 -29 32 C-28.3520776 30.65745809 -27.68166794 29.32572661 -27 28 C-26.57336714 26.26186612 -26.19923141 24.51011335 -25.875 22.75 C-25.62363281 21.41195312 -25.62363281 21.41195312 -25.3671875 20.046875 C-25.24601562 19.37140625 -25.12484375 18.6959375 -25 18 C-22.34750311 21.20128935 -20.10150155 24.41721083 -18 28 C-17.66790527 27.47156494 -17.33581055 26.94312988 -16.99365234 26.39868164 C-15.45535093 23.95249959 -13.91518424 21.50749697 -12.375 19.0625 C-11.85292969 18.23169922 -11.33085937 17.40089844 -10.79296875 16.54492188 C-9.73200266 14.86178431 -8.65589702 13.18810189 -7.56542969 11.52392578 C-5.95513953 9.03455436 -5.95513953 9.03455436 -4.75488281 6.36279297 C-3.4765625 3.87109375 -3.4765625 3.87109375 0 0 Z M-0.83984375 2.609375 C-3.31054286 6.41926465 -4.40481571 9.4120886 -4 14 C-4.66 14.66 -5.32 15.32 -6 16 C-6.39764263 17.98821313 -6.73775349 19.98944339 -7 22 C-5.576875 22.433125 -5.576875 22.433125 -4.125 22.875 C-1 24 -1 24 1 26 C1.28710938 28.90161133 1.28710938 28.90161133 1.34375 32.58203125 C1.3583728 33.23322433 1.37299561 33.88441742 1.38806152 34.55534363 C1.43460458 36.64099977 1.46875539 38.72656194 1.5 40.8125 C1.54129604 43.5485214 1.59508964 46.28388991 1.65625 49.01953125 C1.67494141 50.23745361 1.69363281 51.45537598 1.71289062 52.71020508 C1.99005156 55.88600741 2.64276344 58.13754474 4 61 C5.299375 60.87625 6.59875 60.7525 7.9375 60.625 C8.66839844 60.55539062 9.39929688 60.48578125 10.15234375 60.4140625 C11.06693359 60.20910156 11.06693359 60.20910156 12 60 C13.29335514 57.41328972 13.12706076 55.54453216 13.12939453 52.64819336 C13.13254669 51.53041 13.13569885 50.41262665 13.13894653 49.26097107 C13.1369223 48.04949905 13.13489807 46.83802704 13.1328125 45.58984375 C13.13376923 44.3520668 13.13472595 43.11428986 13.13571167 41.83900452 C13.13656799 38.5464809 13.13253316 35.2540042 13.12695312 31.96148682 C13.12500057 29.93809512 13.12694773 27.91474674 13.13037109 25.89135742 C13.13652249 22.01999881 13.13580714 18.14870497 13.1328125 14.27734375 C13.13483673 13.0638475 13.13686096 11.85035126 13.13894653 10.6000824 C13.13579437 9.4854512 13.13264221 8.37082001 13.12939453 7.22241211 C13.12859894 6.23583115 13.12780334 5.24925018 13.12698364 4.23277283 C13.25017663 2.02823802 13.25017663 2.02823802 12 1 C5.14218149 -0.13304379 5.14218149 -0.13304379 -0.83984375 2.609375 Z " fill="#6495BC" transform="translate(339,233)"/>
<path d="M0 0 C0.66 0.33 1.32 0.66 2 1 C2 0.01 2 -0.98 2 -2 C6.29 -2 10.58 -2 15 -2 C15 12.52 15 27.04 15 42 C10.71 42 6.42 42 2 42 C2 41.34 2 40.68 2 40 C5.96 40.33 9.92 40.66 14 41 C13.67 27.47 13.34 13.94 13 0 C4.60909992 0.40736224 4.60909992 0.40736224 0 3 C-0.804375 2.54625 -1.60875 2.0925 -2.4375 1.625 C-7.83217334 -0.83572819 -13.1582748 -0.2340157 -19 0 C-19.33 0.99 -19.66 1.98 -20 3 C-21.32 3 -22.64 3 -24 3 C-24.33 4.98 -24.66 6.96 -25 9 C-23.68 9.99 -22.36 10.98 -21 12 C-20.13375 11.566875 -20.13375 11.566875 -19.25 11.125 C-18.5075 10.75375 -17.765 10.3825 -17 10 C-16.319375 9.62875 -15.63875 9.2575 -14.9375 8.875 C-13 8 -13 8 -10 8 C-10 8.66 -10 9.32 -10 10 C-10.94875 10.391875 -11.8975 10.78375 -12.875 11.1875 C-16.03251868 12.71582264 -16.03251868 12.71582264 -17.4375 15.125 C-18.24347615 19.24443364 -18.05725144 22.93545557 -17 27 C-15.5771736 29.25463249 -15.5771736 29.25463249 -13 30 C-8.3364493 30.52652992 -5.44306658 30.62559647 -1.5 28 C-0.675 27.34 0.15 26.68 1 26 C-0.45786341 29.84345809 -2.38965588 31.15079935 -6 33 C-9.2192268 34.0730756 -9.90206442 33.79946725 -13 33 C-15.16666667 33.83333333 -15.16666667 33.83333333 -16 36 C-16.66 36.66 -17.32 37.32 -18 38 C-17.01 38.66 -16.02 39.32 -15 40 C-15 40.66 -15 41.32 -15 42 C-9.555 41.505 -9.555 41.505 -4 41 C-4 40.34 -4 39.68 -4 39 C-2.35 39 -0.7 39 1 39 C-1.69077337 42.4821773 -4.78571104 43.17095955 -9 44 C-15.63093078 43.78949426 -21.55883554 42.17109838 -26.54296875 37.578125 C-32.18012967 31.16399469 -32.53480925 24.90109216 -32.30859375 16.671875 C-31.74469969 9.96224948 -29.46786289 6.11265731 -24.5625 1.625 C-16.67191735 -4.5139734 -8.72258724 -4.45029961 0 0 Z " fill="#3FA5C3" transform="translate(391,253)"/>
<path d="M0 0 C4.29 0 8.58 0 13 0 C13 14.52 13 29.04 13 44 C8.71 44 4.42 44 0 44 C0 29.48 0 14.96 0 0 Z " fill="#B56EAD" transform="translate(203,251)"/>
<path d="M0 0 C0.433125 0.495 0.86625 0.99 1.3125 1.5 C2.99740483 3.33218192 2.99740483 3.33218192 6 3 C5.38022648 5.91164434 4.43921238 8.21451001 3 10.8125 C1.03597682 14.60534187 0.35330198 17.76037624 0 22 C0.99 22.33 1.98 22.66 3 23 C3.103125 23.7425 3.20625 24.485 3.3125 25.25 C4.05591421 28.22365686 4.92651632 29.76701758 7 32 C8.485 32.495 8.485 32.495 10 33 C10 34.32 10 35.64 10 37 C10.495 37.495 10.495 37.495 11 38 C11.33 37.34 11.66 36.68 12 36 C13.485 36.495 13.485 36.495 15 37 C14.67 37.33 14.34 37.66 14 38 C14.33 38.99 14.66 39.98 15 41 C6.52849207 42.01208281 -0.03871217 39.92871816 -7 35 C-11.34606181 30.07516482 -12.09134912 23.37413874 -12 17 C-11.37508384 11.57765053 -9.51350307 7.19668422 -6 3 C-2.75 1.125 -2.75 1.125 0 0 Z " fill="#D35E9B" transform="translate(159,254)"/>
<path d="M0 0 C7.570406 0.17717971 13.67591983 1.71483092 20 6 C22.6875 8.9375 22.6875 8.9375 24 12 C23.75 15.3125 23.75 15.3125 23 18 C23 18.33 23 18.66 23 19 C22.01 19.495 22.01 19.495 21 20 C21 20.99 21 21.98 21 23 C21.66 23.33 22.32 23.66 23 24 C19.76134365 25.07955212 17.20844162 25.20441741 13.80078125 25.31640625 C11.98803711 25.37924805 11.98803711 25.37924805 10.13867188 25.44335938 C8.87603516 25.48267578 7.61339844 25.52199219 6.3125 25.5625 C4.40114258 25.62727539 4.40114258 25.62727539 2.45117188 25.69335938 C-0.69910852 25.7995486 -3.84946839 25.90159533 -7 26 C-7.33 26.66 -7.66 27.32 -8 28 C-10.38629447 28.61187038 -12.53540571 29 -15 29 C-15 27 -15 27 -13 25 C-13 24.34 -13 23.68 -13 23 C-10 22 -10 22 -7 23 C-6.67 21.68 -6.34 20.36 -6 19 C-4.93458984 18.92652344 -4.93458984 18.92652344 -3.84765625 18.8515625 C-2.92855469 18.77679688 -2.00945312 18.70203125 -1.0625 18.625 C0.31228516 18.52058594 0.31228516 18.52058594 1.71484375 18.4140625 C2.46894531 18.27742188 3.22304688 18.14078125 4 18 C4.33 17.34 4.66 16.68 5 16 C5 16.66 5 17.32 5 18 C8.465 17.505 8.465 17.505 12 17 C12.33 15.68 12.66 14.36 13 13 C12.34 13 11.68 13 11 13 C10.01 11.02 9.02 9.04 8 7 C4.7 7.33 1.4 7.66 -2 8 C-2.33 7.01 -2.66 6.02 -3 5 C-2.01 4.67 -1.02 4.34 0 4 C0 2.68 0 1.36 0 0 Z " fill="#3AB1C1" transform="translate(461,251)"/>
<path d="M0 0 C2.31 0 4.62 0 7 0 C7 0.66 7 1.32 7 2 C5.35 2 3.7 2 2 2 C2 4.64 2 7.28 2 10 C2.78375 9.938125 3.5675 9.87625 4.375 9.8125 C5.24125 9.874375 6.1075 9.93625 7 10 C9.12280563 13.18420845 9.28019537 14.20537255 9.4140625 17.88671875 C9.45273437 18.82451172 9.49140625 19.76230469 9.53125 20.72851562 C9.5621875 21.70498047 9.593125 22.68144531 9.625 23.6875 C9.66367187 24.67556641 9.70234375 25.66363281 9.7421875 26.68164062 C9.83645867 29.12090707 9.92206218 31.56016595 10 34 C13.18490007 34.2773501 13.18490007 34.2773501 16 32 C16.99 32 17.98 32 19 32 C18.99214478 31.09906616 18.99214478 31.09906616 18.98413086 30.17993164 C18.96341986 27.47413162 18.95035875 24.76834823 18.9375 22.0625 C18.92912109 21.11697266 18.92074219 20.17144531 18.91210938 19.19726562 C18.90727539 17.84858398 18.90727539 17.84858398 18.90234375 16.47265625 C18.89448853 15.22367554 18.89448853 15.22367554 18.88647461 13.94946289 C19 12 19 12 20 11 C21.68608966 10.92794489 23.37500659 10.91613932 25.0625 10.9375 C25.98160156 10.94652344 26.90070313 10.95554687 27.84765625 10.96484375 C28.55792969 10.97644531 29.26820313 10.98804688 30 11 C30 11.33 30 11.66 30 12 C27.03 12 24.06 12 21 12 C21.33 18.6 21.66 25.2 22 32 C24.31 32 26.62 32 29 32 C31.56616632 35.84924948 31.55097676 38.4349304 32 43 C28.01642453 45.65571698 24.75590462 46.15728189 20 46 C15.88066872 45.0736432 12.4426899 43.94889689 9.85888672 40.45849609 C6.45489565 34.60567716 6.52401761 29.12302239 6.75 22.5 C6.76804687 21.48679687 6.78609375 20.47359375 6.8046875 19.4296875 C6.85143417 16.95211393 6.91693628 14.47657684 7 12 C4.69 12 2.38 12 0 12 C0 8.04 0 4.08 0 0 Z " fill="#3FADBE" transform="translate(409,251)"/>
<path d="M0 0 C3.02412442 1.69350968 5.5982963 3.37642985 8.125 5.75 C8.125 6.41 8.125 7.07 8.125 7.75 C7.135 7.75 6.145 7.75 5.125 7.75 C4.63 6.265 4.63 6.265 4.125 4.75 C2.805 4.75 1.485 4.75 0.125 4.75 C0.125 5.41 0.125 6.07 0.125 6.75 C0.785 7.08 1.445 7.41 2.125 7.75 C2.125 8.41 2.125 9.07 2.125 9.75 C1.135 10.245 1.135 10.245 0.125 10.75 C0.33125 11.4925 0.5375 12.235 0.75 13 C1.16908751 16.07330841 0.74449011 17.17786866 -0.875 19.75 C-1.535 19.42 -2.195 19.09 -2.875 18.75 C-5.75410588 18.51725791 -8.61646495 18.33027243 -11.5 18.1875 C-12.30179688 18.14431641 -13.10359375 18.10113281 -13.9296875 18.05664062 C-15.9112511 17.95048543 -17.89310271 17.84973145 -19.875 17.75 C-19.875 16.43 -19.875 15.11 -19.875 13.75 C-19.215 13.75 -18.555 13.75 -17.875 13.75 C-17.83375 13.13125 -17.7925 12.5125 -17.75 11.875 C-17.316875 10.823125 -17.316875 10.823125 -16.875 9.75 C-13.8125 8.5 -13.8125 8.5 -10.875 7.75 C-10.875 7.09 -10.875 6.43 -10.875 5.75 C-11.535 5.75 -12.195 5.75 -12.875 5.75 C-12.875 5.09 -12.875 4.43 -12.875 3.75 C-14.525 3.75 -16.175 3.75 -17.875 3.75 C-18.205 4.41 -18.535 5.07 -18.875 5.75 C-19.865 6.245 -19.865 6.245 -20.875 6.75 C-20.875 6.09 -20.875 5.43 -20.875 4.75 C-22.525 6.07 -24.175 7.39 -25.875 8.75 C-26.535 8.42 -27.195 8.09 -27.875 7.75 C-26.65364002 6.61652945 -25.42250819 5.49358413 -24.1875 4.375 C-23.50300781 3.74851563 -22.81851563 3.12203125 -22.11328125 2.4765625 C-15.90469009 -2.31261253 -7.24882266 -2.90906699 0 0 Z M-16.875 12.75 C-16.875 14.07 -16.875 15.39 -16.875 16.75 C-14.58358714 16.80384521 -12.29181812 16.84272087 -10 16.875 C-8.72382812 16.89820313 -7.44765625 16.92140625 -6.1328125 16.9453125 C-2.78906662 17.10641524 -2.78906662 17.10641524 -0.875 14.75 C-3.6605982 11.37351733 -5.02114309 9.86983957 -9.4375 9.25 C-12.953402 9.76140393 -14.52090301 10.11341137 -16.875 12.75 Z " fill="#DE5893" transform="translate(131.875,251.25)"/>
<path d="M0 0 C4.62 0 9.24 0 14 0 C14 20.46 14 40.92 14 62 C9.38 62 4.76 62 0 62 C0 49.79 0 37.58 0 25 C0.66 25.33 1.32 25.66 2 26 C2.01981934 26.8878418 2.03963867 27.77568359 2.06005859 28.69042969 C2.13828232 31.99311334 2.22497885 35.29535064 2.31738281 38.59765625 C2.35560024 40.02530398 2.39046572 41.45304563 2.421875 42.88085938 C2.46768401 44.93653868 2.5256498 46.99157554 2.5859375 49.046875 C2.63306885 50.90070801 2.63306885 50.90070801 2.68115234 52.79199219 C2.97682001 55.76678017 3.44027331 57.49349184 5 60 C7.31 60 9.62 60 12 60 C12 40.86 12 21.72 12 2 C8.37 2 4.74 2 1 2 C-1.52622218 4.57919669 -2.64913125 6.08689005 -4.1875 9.1875 C-5.00106043 10.64987405 -5.81486642 12.11211151 -6.62890625 13.57421875 C-7.02094238 14.31333496 -7.41297852 15.05245117 -7.81689453 15.81396484 C-9.61231972 19.13138893 -11.61809292 22.30782976 -13.625 25.5 C-14.75058757 27.33297265 -15.87582963 29.16615783 -17 31 C-18.98 30.34 -20.96 29.68 -23 29 C-23 26.69 -23 24.38 -23 22 C-23.99 21.67 -24.98 21.34 -26 21 C-25.01 19.515 -25.01 19.515 -24 18 C-22.02 21.3 -20.04 24.6 -18 28 C-17.20335937 26.73285156 -16.40671875 25.46570313 -15.5859375 24.16015625 C-14.51568681 22.46089857 -13.44537081 20.76168202 -12.375 19.0625 C-11.85292969 18.23169922 -11.33085937 17.40089844 -10.79296875 16.54492188 C-9.73200266 14.86178431 -8.65589702 13.18810189 -7.56542969 11.52392578 C-5.95513953 9.03455436 -5.95513953 9.03455436 -4.75488281 6.36279297 C-3.4765625 3.87109375 -3.4765625 3.87109375 0 0 Z " fill="#568FA2" transform="translate(339,233)"/>
<path d="M0 0 C0.640625 1.84375 0.640625 1.84375 1 4 C-1.25 6.5 -1.25 6.5 -4 9 C-6.71360753 12.07100949 -7.51572154 14.46768437 -8.125 18.5 C-8.96543339 23.86697816 -8.96543339 23.86697816 -9.56640625 26.1796875 C-10.18340472 28.76996938 -9.85715034 30.49448361 -9 33 C-7.03241727 34.36020151 -7.03241727 34.36020151 -5 35 C-5 35.99 -5 36.98 -5 38 C-4.34 38 -3.68 38 -3 38 C-2.34 38.66 -1.68 39.32 -1 40 C3.06379735 40.82781057 6.03345201 41.09422014 10 40 C11.051875 40.2784375 11.051875 40.2784375 12.125 40.5625 C12.74375 40.706875 13.3625 40.85125 14 41 C14.66 40.34 15.32 39.68 16 39 C18.625 39.375 18.625 39.375 21 40 C21.66 38.02 22.32 36.04 23 34 C23.66 34 24.32 34 25 34 C25.495 33.01 25.495 33.01 26 32 C26.99 32.33 27.98 32.66 29 33 C19.3822017 44.72347012 19.3822017 44.72347012 11.1875 45.9375 C4.21232654 46.35642934 -1.37589316 44.55014015 -6.875 40.25 C-11.28010152 36.09019416 -13.11624808 31.58624461 -13.375 25.5625 C-12.86993253 14.82981625 -6.47369067 7.96761928 0 0 Z " fill="#3694B9" transform="translate(243,121)"/>
<path d="M0 0 C4.62 0 9.24 0 14 0 C14 20.46 14 40.92 14 62 C9.71 62 5.42 62 1 62 C1 61.01 1 60.02 1 59 C0.01 59.639375 -0.98 60.27875 -2 60.9375 C-6.70596128 63.58342201 -11.06566794 64.59074012 -16.3671875 63.5234375 C-20.85223236 62.18527658 -24.01381091 60.76519494 -27 57 C-22 59 -22 59 -19.8125 60.125 C-15.02015582 61.61595152 -9.47776469 61.98248756 -4.75390625 60.109375 C-2.83972258 59.11015 -2.83972258 59.11015 -2 57 C-0.68 57 0.64 57 2 57 C2 58.32 2 59.64 2 61 C5.3 61 8.6 61 12 61 C11.67 41.2 11.34 21.4 11 1 C7.7 1 4.4 1 1 1 C1 6.61 1 12.22 1 18 C0.67 18 0.34 18 0 18 C0 12.06 0 6.12 0 0 Z " fill="#A46493" transform="translate(181,233)"/>
<path d="M0 0 C0.07427838 3.34252724 0.06546953 5.8035914 -1 9 C-0.99530794 11.10231241 -0.99530794 11.10231241 0 13 C2.49034386 14.29660434 2.49034386 14.29660434 5 15 C4 18 4 18 0.75 19.75 C-2.92081925 20.97360642 -4.41608962 21.19463679 -8 20 C-8 19.34 -8 18.68 -8 18 C-9.32 18.33 -10.64 18.66 -12 19 C-13.82438348 15.24391637 -14.30070333 13.01050192 -13 9 C-12.34 8.34 -11.68 7.68 -11 7 C-10.67 7.66 -10.34 8.32 -10 9 C-9.79375 8.071875 -9.5875 7.14375 -9.375 6.1875 C-8 3 -8 3 -5 1.125 C-2 0 -2 0 0 0 Z " fill="#3AB3C4" transform="translate(503,253)"/>
<path d="M0 0 C2.59393856 2.8371203 3.02858292 4.28542702 2.875 8.125 C1.53492334 12.52810903 1.53492334 12.52810903 -1 14 C-7.79245283 14.75471698 -7.79245283 14.75471698 -11.5 12.4375 C-13.56021138 9.08965651 -13.49125459 6.85985753 -13 3 C-9.6878029 -1.73171014 -5.1821109 -1.29552773 0 0 Z " fill="#AA6FA3" transform="translate(215,233)"/>
<path d="M0 0 C4.62 0 9.24 0 14 0 C14 20.46 14 40.92 14 62 C9.38 62 4.76 62 0 62 C0 51.11 0 40.22 0 29 C0.66 28.67 1.32 28.34 2 28 C2 38.89 2 49.78 2 61 C5.63 61 9.26 61 13 61 C12.67 41.53 12.34 22.06 12 2 C4.75930423 2.14164752 4.75930423 2.14164752 -2 4 C-1.34 2.68 -0.68 1.36 0 0 Z " fill="#C35086" transform="translate(80,233)"/>
<path d="M0 0 C1.67542976 0.28604898 3.34385343 0.61781233 5 1 C4.67 1.99 4.34 2.98 4 4 C4.99 4.66 5.98 5.32 7 6 C6.34 6 5.68 6 5 6 C4.67 6.99 4.34 7.98 4 9 C0.84871457 11.16560939 -1.86969232 11.24317168 -5.625 11.1875 C-7.06746094 11.17783203 -7.06746094 11.17783203 -8.5390625 11.16796875 C-11 11 -11 11 -13 10 C-13 9.01 -13 8.02 -13 7 C-14.65 7 -16.3 7 -18 7 C-17 5 -16 3 -15 1 C-14.34 1.66 -13.68 2.32 -13 3 C-10.11863266 2.83635471 -10.11863266 2.83635471 -6.9375 2.1875 C-5.85339844 1.99542969 -4.76929688 1.80335938 -3.65234375 1.60546875 C-1.09083161 1.26816667 -1.09083161 1.26816667 0 0 Z " fill="#39B1C1" transform="translate(474,283)"/>
<path d="M0 0 C0.66 0.33 1.32 0.66 2 1 C2 0.01 2 -0.98 2 -2 C6.29 -2 10.58 -2 15 -2 C15 12.52 15 27.04 15 42 C10.71 42 6.42 42 2 42 C2 41.34 2 40.68 2 40 C5.96 40.33 9.92 40.66 14 41 C13.67 27.47 13.34 13.94 13 0 C4.60909992 0.40736224 4.60909992 0.40736224 0 3 C-0.804375 2.54625 -1.60875 2.0925 -2.4375 1.625 C-7.83217334 -0.83572819 -13.1582748 -0.2340157 -19 0 C-19.33 0.99 -19.66 1.98 -20 3 C-21.32 3 -22.64 3 -24 3 C-24.33 4.32 -24.66 5.64 -25 7 C-26.32 7.33 -27.64 7.66 -29 8 C-26.45405657 3.17610718 -23.50548464 0.39193591 -18.75 -2.25 C-11.82927767 -4.13746973 -6.29953416 -3.21404804 0 0 Z " fill="#4A9CAD" transform="translate(391,253)"/>
<path d="M0 0 C0.763125 0.350625 1.52625 0.70125 2.3125 1.0625 C5.04759379 2.32360884 5.04759379 2.32360884 8 1 C10.76313898 2.28047904 12.55575119 3.36535885 14.3125 5.875 C15.11268687 8.34830486 15.14354627 10.41616706 15 13 C14.34 13 13.68 13 13 13 C12.67 13.66 12.34 14.32 12 15 C10.35 15 8.7 15 7 15 C6.67 15.66 6.34 16.32 6 17 C5.67 14.36 5.34 11.72 5 9 C3.68 9 2.36 9 1 9 C0.67 9.66 0.34 10.32 0 11 C-0.66 9.35 -1.32 7.7 -2 6 C-1.01 5.01 -0.02 4.02 1 3 C0.67 2.01 0.34 1.02 0 0 Z " fill="#3CB2C4" transform="translate(509,269)"/>
<path d="M0 0 C0.33 0.66 0.66 1.32 1 2 C-0.63349388 4.83351872 -2.48826823 7.47788967 -4.3359375 10.17578125 C-5.94650944 12.90921673 -6.69996342 14.86072833 -7 18 C-4.91571791 20.08428209 -1.68205435 20.87841364 1 22 C1 20.35 1 18.7 1 17 C2.32 16.67 3.64 16.34 5 16 C5.33 17.65 5.66 19.3 6 21 C5.01 21 4.02 21 3 21 C1.07178814 23.45480059 1.07178814 23.45480059 -0.6875 26.5 C-1.31011719 27.5209375 -1.93273437 28.541875 -2.57421875 29.59375 C-3.27998047 30.78484375 -3.27998047 30.78484375 -4 32 C-4.33 31.34 -4.66 30.68 -5 30 C-4.67 29.01 -4.34 28.02 -4 27 C-4.804375 26.87625 -5.60875 26.7525 -6.4375 26.625 C-7.7059375 26.315625 -7.7059375 26.315625 -9 26 C-9.33 25.34 -9.66 24.68 -10 24 C-11.175625 24.0928125 -11.175625 24.0928125 -12.375 24.1875 C-13.24125 24.125625 -14.1075 24.06375 -15 24 C-15.66 23.01 -16.32 22.02 -17 21 C-16.505 19.515 -16.505 19.515 -16 18 C-15.67 19.32 -15.34 20.64 -15 22 C-12.63459748 19.80435907 -10.99276506 17.56890624 -9.3359375 14.8046875 C-8.61277344 13.60779297 -8.61277344 13.60779297 -7.875 12.38671875 C-7.38 11.55785156 -6.885 10.72898438 -6.375 9.875 C-5.38398851 8.22585524 -4.39186037 6.57738081 -3.3984375 4.9296875 C-2.96192871 4.19991699 -2.52541992 3.47014648 -2.07568359 2.71826172 C-1 1 -1 1 0 0 Z " fill="#E75392" transform="translate(76,239)"/>
<path d="M0 0 C0.66 1.32 1.32 2.64 2 4 C1.34 4.66 0.68 5.32 0 6 C-0.64767793 8.57061311 -0.64767793 8.57061311 -1 11 C1.00032373 12.00016187 2.83125748 12.49396008 5 13 C4.34 14.32 3.68 15.64 3 17 C2.34 16.67 1.68 16.34 1 16 C0.855625 16.61875 0.71125 17.2375 0.5625 17.875 C0 20 0 20 -1 22 C-4.33333333 21.33333333 -7.66666667 20.66666667 -11 20 C-9.56952311 14.89115395 -7.28610306 10.98255739 -4.375 6.625 C-3.95476562 5.98433594 -3.53453125 5.34367188 -3.1015625 4.68359375 C-2.07370232 3.11844302 -1.03768114 1.55865686 0 0 Z " fill="#5899BE" transform="translate(334,243)"/>
<path d="M0 0 C4.95 0 9.9 0 15 0 C15.33 0.66 15.66 1.32 16 2 C11.38 2 6.76 2 2 2 C1.97742752 9.26694905 1.95907244 16.53387901 1.94818783 23.80085564 C1.94296435 27.17503026 1.93587639 30.54917971 1.92456055 33.92333984 C1.91247564 37.80046259 1.90676737 41.6775494 1.90234375 45.5546875 C1.89718246 46.76929657 1.89202118 47.98390564 1.88670349 49.23532104 C1.88662796 50.35633209 1.88655243 51.47734314 1.88647461 52.63232422 C1.884254 53.62271698 1.88203339 54.61310974 1.87974548 55.6335144 C1.84229846 58.01896773 1.84229846 58.01896773 3 60 C6.3 60.33 9.6 60.66 13 61 C13 49.12 13 37.24 13 25 C13.33 25 13.66 25 14 25 C14 37.21 14 49.42 14 62 C9.38 62 4.76 62 0 62 C0 41.54 0 21.08 0 0 Z " fill="#C15987" transform="translate(30,233)"/>
<path d="M0 0 C4.29 0 8.58 0 13 0 C13 14.52 13 29.04 13 44 C8.71 44 4.42 44 0 44 C0 29.48 0 14.96 0 0 Z M1 2 C0.97529065 7.21443333 0.95713556 12.42883261 0.94506836 17.64331055 C0.940038 19.41740513 0.93321301 21.19149556 0.92456055 22.96557617 C0.91243826 25.51482161 0.90675874 28.06401226 0.90234375 30.61328125 C0.89718246 31.40712723 0.89202118 32.20097321 0.88670349 33.01887512 C0.88637123 36.27656286 0.96227174 38.88681521 2 42 C5.5797509 43.36893239 5.5797509 43.36893239 12 43 C12 29.47 12 15.94 12 2 C8.37 2 4.74 2 1 2 Z " fill="#A26B9C" transform="translate(203,251)"/>
<path d="M0 0 C0.33 0 0.66 0 1 0 C1.16825677 7.75945779 1.32814157 15.51905556 1.48217773 23.27880859 C1.53558187 25.91914791 1.59090998 28.55944903 1.64819336 31.19970703 C1.73014809 34.99242925 1.80520677 38.78523451 1.87890625 42.578125 C1.91945885 44.35174408 1.91945885 44.35174408 1.96083069 46.16119385 C1.98092697 47.26203308 2.00102325 48.36287231 2.02172852 49.49707031 C2.05170677 50.94935028 2.05170677 50.94935028 2.08229065 52.43096924 C2.00664119 54.79266863 1.67864114 56.74612809 1 59 C0.34 59 -0.32 59 -1 59 C-1.02312851 51.45501767 -1.04091769 43.91003899 -1.05181217 36.36502934 C-1.05703989 32.86191115 -1.0641355 29.35881715 -1.07543945 25.85571289 C-1.08834206 21.83219159 -1.09322912 17.80869586 -1.09765625 13.78515625 C-1.10539818 11.88987938 -1.10539818 11.88987938 -1.11329651 9.95631409 C-1.11337204 8.795186 -1.11344757 7.63405792 -1.11352539 6.43774414 C-1.11685631 4.8955294 -1.11685631 4.8955294 -1.12025452 3.32215881 C-1 1 -1 1 0 0 Z " fill="#727C99" transform="translate(290,233)"/>
<path d="M0 0 C0.66 0 1.32 0 2 0 C-0.79311625 8.11473775 -7.31209621 16.08394013 -14.91015625 20.19140625 C-22.11462234 22.97892864 -27.8526241 22.218572 -34.87109375 19.30078125 C-37.25815805 17.84226306 -38.47827506 16.32417796 -40 14 C-39.46375 14.350625 -38.9275 14.70125 -38.375 15.0625 C-35.26725237 16.28924249 -33.20568297 15.72856431 -30 15 C-30 15.66 -30 16.32 -30 17 C-26.12315913 18.19287411 -23.08378077 19 -19 19 C-18.505 18.484375 -18.01 17.96875 -17.5 17.4375 C-17.005 16.963125 -16.51 16.48875 -16 16 C-13.8125 16.3125 -13.8125 16.3125 -12 17 C-12 16.01 -12 15.02 -12 14 C-11.01 14 -10.02 14 -9 14 C-9 13.01 -9 12.02 -9 11 C-8.34 11 -7.68 11 -7 11 C-7 10.34 -7 9.68 -7 9 C-6.34 8.67 -5.68 8.34 -5 8 C-4.690625 7.175 -4.38125 6.35 -4.0625 5.5 C-3.5365625 4.2625 -3.5365625 4.2625 -3 3 C-2.01 2.67 -1.02 2.34 0 2 C0 1.34 0 0.68 0 0 Z " fill="#C95782" transform="translate(168,145)"/>
<path d="M0 0 C0.640625 1.84375 0.640625 1.84375 1 4 C-1.25 6.5 -1.25 6.5 -4 9 C-6.71360753 12.07100949 -7.51572154 14.46768437 -8.125 18.5 C-8.96543339 23.86697816 -8.96543339 23.86697816 -9.56640625 26.1796875 C-10.18340472 28.76996938 -9.85715034 30.49448361 -9 33 C-7.03241727 34.36020151 -7.03241727 34.36020151 -5 35 C-5 35.99 -5 36.98 -5 38 C-4.34 38 -3.68 38 -3 38 C-2.34 39.65 -1.68 41.3 -1 43 C-6.66119511 41.38251568 -9.47327121 37.68995072 -12.3125 32.6875 C-14.04996965 25.89557319 -13.51442393 19.14251221 -10 13 C-6.87485211 8.50717548 -3.4495399 4.24558758 0 0 Z " fill="#3E85A7" transform="translate(243,121)"/>
<path d="M0 0 C3 0 3 0 5 1 C7.32186379 7.5012186 7.42016441 13.55446009 5 20 C2.8589169 23.85394959 0.80846641 26.71492015 -3 29 C-3.66 29 -4.32 29 -5 29 C-4.505 27.515 -4.505 27.515 -4 26 C-3.34 25.67 -2.68 25.34 -2 25 C-2 23.68 -2 22.36 -2 21 C-0.68 21 0.64 21 2 21 C1.773125 19.783125 1.54625 18.56625 1.3125 17.3125 C0.88023657 14.02379309 0.93936847 13.12653537 2.4375 10 C2.953125 9.34 3.46875 8.68 4 8 C1.03 7.505 1.03 7.505 -2 7 C-1.34 4.69 -0.68 2.38 0 0 Z " fill="#49B0BC" transform="translate(426,135)"/>
<path d="M0 0 C1 2 1 2 0.3125 4.875 C-1.03712351 8.08838932 -2.39272995 9.74036595 -5 12 C-3.55802132 13.44197868 -1.82308429 14.11786244 0 15 C-0.33 16.32 -0.66 17.64 -1 19 C-1.66 19 -2.32 19 -3 19 C-1.47793991 21.62901288 -0.15634036 23.84365964 2 26 C-2.29475923 25.49517742 -4.33731829 24.23082796 -7.375 21.1875 C-8.08398438 20.50042969 -8.79296875 19.81335938 -9.5234375 19.10546875 C-11 17 -11 17 -10.73510742 15.07055664 C-9.52686216 11.66732581 -7.16720087 9.04095982 -4.9375 6.25 C-4.46505859 5.64800781 -3.99261719 5.04601562 -3.50585938 4.42578125 C-2.34309599 2.94590057 -1.1723234 1.47231904 0 0 Z " fill="#4090B0" transform="translate(295,138)"/>
<path d="M0 0 C0 3.25811062 -0.5522078 5.10441559 -2 8 C-2.99 8.33 -3.98 8.66 -5 9 C-5.35729936 10.32711192 -5.68325425 11.66262906 -6 13 C-9.24637681 19.62318841 -9.24637681 19.62318841 -12 21 C-12 21.66 -12 22.32 -12 23 C-13.58960328 24.80636736 -14.83852297 25.91926148 -17 27 C-17.65213292 29.02463255 -17.65213292 29.02463255 -18 31 C-19.32 31 -20.64 31 -22 31 C-22.4640625 31.928125 -22.4640625 31.928125 -22.9375 32.875 C-23.625 34.25 -24.3125 35.625 -25 37 C-25.66 36.67 -26.32 36.34 -27 36 C-20.09521142 26.60061786 -13.18117979 17.20852459 -6.1875 7.875 C-5.67864258 7.19501953 -5.16978516 6.51503906 -4.64550781 5.81445312 C-1.12409044 1.12409044 -1.12409044 1.12409044 0 0 Z " fill="#CE5D8D" transform="translate(191,46)"/>
<path d="M0 0 C2 2 2 2 2 15 C-7.9 15 -17.8 15 -28 15 C-26.44240864 18.86939864 -26.44240864 18.86939864 -24.3125 20.25 C-19.56227751 21.7906127 -14.77848288 21.15842009 -10 20 C-11.70715232 22.10883522 -12.58764921 22.92871224 -15.3046875 23.3984375 C-24.06691704 23.31853875 -24.06691704 23.31853875 -28 20 C-30 17 -30 17 -30 14 C-25.76412191 12.38186143 -22.46589597 11.79041773 -17.9453125 12.0234375 C-16.83671875 12.075 -15.728125 12.1265625 -14.5859375 12.1796875 C-13.44382813 12.24414062 -12.30171875 12.30859375 -11.125 12.375 C-9.37703125 12.46007812 -9.37703125 12.46007812 -7.59375 12.546875 C-4.72865025 12.68778155 -1.86423719 12.84253079 1 13 C0.505 6.565 0.505 6.565 0 0 Z " fill="#C55988" transform="translate(142,263)"/>
<path d="M0 0 C3.96239419 2.58417012 4.3299561 5.29568393 5.4296875 9.7578125 C5.65011719 10.80582031 5.65011719 10.80582031 5.875 11.875 C3.52502698 12.68642566 2.22242275 12.97594925 -0.1953125 12.2734375 C-5.79182487 9.48582107 -5.79182487 9.48582107 -7.625 6.125 C-7.79 5.3825 -7.955 4.64 -8.125 3.875 C-5.32113627 1.07113627 -4.04797193 -0.16191888 0 0 Z " fill="#3AB2C2" transform="translate(497.125,283.125)"/>
<path d="M0 0 C2.82990759 4.24486139 2.54289292 8.01314075 2 13 C0.4375 16.5 0.4375 16.5 -1 19 C-0.67 19.66 -0.34 20.32 0 21 C-0.66 21.33 -1.32 21.66 -2 22 C-1.360625 22.28875 -0.72125 22.5775 -0.0625 22.875 C2 24 2 24 3 26 C5.34907875 26.68931344 5.34907875 26.68931344 8.0625 27.125 C8.98160156 27.29257812 9.90070313 27.46015625 10.84765625 27.6328125 C11.55792969 27.75398438 12.26820313 27.87515625 13 28 C13.33 27.01 13.66 26.02 14 25 C14 26.32 14 27.64 14 29 C9.71 29 5.42 29 1 29 C1 28.01 1 27.02 1 26 C0.401875 25.731875 -0.19625 25.46375 -0.8125 25.1875 C-2.97779089 24.01205637 -4.27644111 22.72355889 -6 21 C-6.66 21 -7.32 21 -8 21 C-10.33491639 20.67794257 -12.66842508 20.34541851 -15 20 C-15.33 19.01 -15.66 18.02 -16 17 C-15.25234375 17.03480469 -14.5046875 17.06960938 -13.734375 17.10546875 C-12.25710937 17.14607422 -12.25710937 17.14607422 -10.75 17.1875 C-9.77546875 17.22230469 -8.8009375 17.25710938 -7.796875 17.29296875 C-4.57223082 16.95519178 -3.29209203 16.25529239 -1 14 C0.04976964 10.85069107 0.10131595 8.61185544 0.0625 5.3125 C0.05347656 4.31863281 0.04445312 3.32476562 0.03515625 2.30078125 C0.02355469 1.54152344 0.01195312 0.78226562 0 0 Z " fill="#8977A3" transform="translate(255,266)"/>
<path d="M0 0 C3.81684226 1.55500981 6.19195732 4.03595495 9 7 C7.76279125 10.8490939 5.41706035 12.28970418 1.9140625 14.11328125 C-4.7072585 17.18070955 -9.95810934 17.04849076 -17 16 C-17 15.67 -17 15.34 -17 15 C-15.33710938 14.81824219 -15.33710938 14.81824219 -13.640625 14.6328125 C-12.17703766 14.46393704 -10.71349843 14.29464428 -9.25 14.125 C-8.15558594 14.00705078 -8.15558594 14.00705078 -7.0390625 13.88671875 C-1.73334028 13.28419695 -1.73334028 13.28419695 3 11 C3.33 10.34 3.66 9.68 4 9 C3.34 8.34 2.68 7.68 2 7 C2.33 6.01 2.66 5.02 3 4 C2.31550781 4.14308594 1.63101562 4.28617187 0.92578125 4.43359375 C-2.31053736 5.06011738 -5.55335919 5.56869079 -8.8125 6.0625 C-9.97394531 6.23910156 -11.13539063 6.41570312 -12.33203125 6.59765625 C-13.21246094 6.73042969 -14.09289062 6.86320312 -15 7 C-15.33 6.01 -15.66 5.02 -16 4 C-15.41992188 4.03480469 -14.83984375 4.06960938 -14.2421875 4.10546875 C-8.99781849 4.28720431 -5.5803246 3.86270288 -1 1 C-0.67 0.67 -0.34 0.34 0 0 Z " fill="#4BA2AE" transform="translate(475,280)"/>
<path d="M0 0 C0.99 0.495 0.99 0.495 2 1 C2.01981934 1.8878418 2.03963867 2.77568359 2.06005859 3.69042969 C2.13828232 6.99311334 2.22497885 10.29535064 2.31738281 13.59765625 C2.35560024 15.02530398 2.39046572 16.45304563 2.421875 17.88085938 C2.46768401 19.93653868 2.5256498 21.99157554 2.5859375 24.046875 C2.6173584 25.28276367 2.6487793 26.51865234 2.68115234 27.79199219 C2.97682001 30.76678017 3.44027331 32.49349184 5 35 C7.31 35 9.62 35 12 35 C12.33 34.34 12.66 33.68 13 33 C13 34.32 13 35.64 13 37 C8.71 37 4.42 37 0 37 C0 24.79 0 12.58 0 0 Z " fill="#5798B1" transform="translate(339,258)"/>
<path d="M0 0 C2.31 0 4.62 0 7 0 C7 0.66 7 1.32 7 2 C5.35 2 3.7 2 2 2 C2 4.64 2 7.28 2 10 C2.78375 9.938125 3.5675 9.87625 4.375 9.8125 C5.24125 9.874375 6.1075 9.93625 7 10 C9.09852499 13.14778749 9.26916972 14.05871 9.37890625 17.67578125 C9.43014648 19.04186523 9.43014648 19.04186523 9.48242188 20.43554688 C9.50884766 21.38494141 9.53527344 22.33433594 9.5625 23.3125 C9.80994951 31.7012546 9.80994951 31.7012546 11 40 C8.19084442 37.43511882 7.074455 35.54786345 6.88647461 31.63989258 C6.89171143 30.73392334 6.89694824 29.8279541 6.90234375 28.89453125 C6.90556641 27.91162109 6.90878906 26.92871094 6.91210938 25.91601562 C6.92048828 24.89185547 6.92886719 23.86769531 6.9375 22.8125 C6.94201172 21.77673828 6.94652344 20.74097656 6.95117188 19.67382812 C6.9629599 17.11582734 6.97941485 14.55794267 7 12 C4.69 12 2.38 12 0 12 C0 8.04 0 4.08 0 0 Z " fill="#459FAD" transform="translate(409,251)"/>
<path d="M0 0 C0.75 1.75 0.75 1.75 1 4 C-0.8125 6 -0.8125 6 -3 8 C-4.30238365 10.2140522 -5 11.43292258 -5 14 C-5.99 14.495 -5.99 14.495 -7 15 C-7.33 15.99 -7.66 16.98 -8 18 C-9.32 18 -10.64 18 -12 18 C-12 19.32 -12 20.64 -12 22 C-13.32 22.33 -14.64 22.66 -16 23 C-16.020625 23.721875 -16.04125 24.44375 -16.0625 25.1875 C-17.44012505 29.32037516 -20.39356619 30.78717508 -24 33 C-22.71004101 30.26922495 -21.28988038 27.89695688 -19.4609375 25.49609375 C-18.9664209 24.8427002 -18.4719043 24.18930664 -17.96240234 23.51611328 C-17.17663818 22.48719971 -17.17663818 22.48719971 -16.375 21.4375 C-15.29097676 20.00703298 -14.20764612 18.57604083 -13.125 17.14453125 C-12.59390625 16.44279785 -12.0628125 15.74106445 -11.515625 15.01806641 C-8.79673931 11.39784908 -6.15915885 7.72017545 -3.5234375 4.0390625 C-2 2 -2 2 0 0 Z " fill="#4088A5" transform="translate(280,72)"/>
<path d="M0 0 C-1.61180558 5.28546636 -5.00717593 9.168375 -8.375 13.4375 C-12.09611511 18.19271965 -15.73136451 22.91992859 -19 28 C-20.32 27.67 -21.64 27.34 -23 27 C-23 26.01 -23 25.02 -23 24 C-21.68 24.33 -20.36 24.66 -19 25 C-18.938125 24.443125 -18.87625 23.88625 -18.8125 23.3125 C-17.66851791 20.05655096 -15.45123064 18.392868 -13 16 C-11.95107762 14.36368108 -10.95093297 12.69514137 -10 11 C-9.278125 9.96875 -8.55625 8.9375 -7.8125 7.875 C-5.73334954 5.14347787 -5.73334954 5.14347787 -6 2 C-3 0 -3 0 0 0 Z " fill="#C8648A" transform="translate(264,76)"/>
<path d="M0 0 C0 4.29 0 8.58 0 13 C2.97 13 5.94 13 9 13 C8.67 14.32 8.34 15.64 8 17 C8 16.34 8 15.68 8 15 C6.081875 15.061875 6.081875 15.061875 4.125 15.125 C1.9453125 15.1953125 1.9453125 15.1953125 0 15 C-2 13 -2 13 -2.1953125 10.6171875 C-2.13020833 8.078125 -2.06510417 5.5390625 -2 3 C-5.3 3.66 -8.6 4.32 -12 5 C-12.33 7.64 -12.66 10.28 -13 13 C-13.33 13 -13.66 13 -14 13 C-14 10.03 -14 7.06 -14 4 C-8.98355213 1.37776588 -5.6520473 0 0 0 Z " fill="#46A1AB" transform="translate(430,238)"/>
<path d="M0 0 C4.29 0 8.58 0 13 0 C13 0.66 13 1.32 13 2 C12.06027344 1.98259766 12.06027344 1.98259766 11.1015625 1.96484375 C9.87566406 1.95130859 9.87566406 1.95130859 8.625 1.9375 C7.40683594 1.92009766 7.40683594 1.92009766 6.1640625 1.90234375 C3.95062858 1.85533666 3.95062858 1.85533666 2 3 C2 3.99 2 4.98 2 6 C1.97265202 7.49054171 1.94160186 8.98101714 1.90820312 10.47143555 C1.88818237 11.37214279 1.86816162 12.27285004 1.84753418 13.20085144 C1.8256604 14.16968765 1.80378662 15.13852386 1.78125 16.13671875 C1.75905396 17.13129593 1.73685791 18.12587311 1.71398926 19.15058899 C1.64297192 22.3295664 1.57149137 25.50853321 1.5 28.6875 C1.45179243 30.84179619 1.40361497 32.99609306 1.35546875 35.15039062 C1.23732871 40.43360162 1.11880828 45.71680399 1 51 C0.67 51 0.34 51 0 51 C0 34.17 0 17.34 0 0 Z " fill="#7583AC" transform="translate(291,233)"/>
<path d="M0 0 C0.99 0.66 1.98 1.32 3 2 C2.67 2.33 2.34 2.66 2 3 C2.66 3.33 3.32 3.66 4 4 C4 3.34 4 2.68 4 2 C5.98 1.67 7.96 1.34 10 1 C10.04241723 3.33294775 10.04092937 5.66702567 10 8 C9 9 9 9 5.125 9.375 C2.9453125 9.35546875 2.9453125 9.35546875 1 9 C-1.45321644 6.16346849 -2 4.74876504 -2 1 C-1.34 0.67 -0.68 0.34 0 0 Z " fill="#E95095" transform="translate(57,272)"/>
<path d="M0 0 C1.7578125 1.60546875 1.7578125 1.60546875 3 3 C2.48953125 2.7834375 1.9790625 2.566875 1.453125 2.34375 C-5.66830236 -0.38360516 -13.52550941 -1.59541263 -20.859375 1.01953125 C-21.56578125 1.34308594 -22.2721875 1.66664062 -23 2 C-23 2.66 -23 3.32 -23 4 C-27.455 4.495 -27.455 4.495 -32 5 C-32 4.34 -32 3.68 -32 3 C-30.41925436 2.18247697 -28.83528777 1.37118003 -27.25 0.5625 C-26.36828125 0.11003906 -25.4865625 -0.34242187 -24.578125 -0.80859375 C-16.61045307 -4.49062396 -7.83554103 -3.82336641 0 0 Z " fill="#569FAC" transform="translate(345,26)"/>
<path d="M0 0 C2.68929475 1.76484968 4.00185489 3.24128427 5 6.3125 C4.1875 8.625 4.1875 8.625 3 10.3125 C2.34 9.9825 1.68 9.6525 1 9.3125 C-1.87910588 9.07975791 -4.74146495 8.89277243 -7.625 8.75 C-8.42679687 8.70681641 -9.22859375 8.66363281 -10.0546875 8.61914062 C-12.0362511 8.51298543 -14.01810271 8.41223145 -16 8.3125 C-16 6.9925 -16 5.6725 -16 4.3125 C-15.34 4.3125 -14.68 4.3125 -14 4.3125 C-13.95875 3.714375 -13.9175 3.11625 -13.875 2.5 C-13 0.3125 -13 0.3125 -10.5 -1.6875 C-6.02382847 -2.96640615 -4.04098015 -2.07509791 0 0 Z M-13 3.3125 C-13 4.6325 -13 5.9525 -13 7.3125 C-10.70858714 7.36634521 -8.41681812 7.40522087 -6.125 7.4375 C-4.84882812 7.46070313 -3.57265625 7.48390625 -2.2578125 7.5078125 C1.08593338 7.66891524 1.08593338 7.66891524 3 5.3125 C0.2144018 1.93601733 -1.14614309 0.43233957 -5.5625 -0.1875 C-9.078402 0.32390393 -10.64590301 0.67591137 -13 3.3125 Z " fill="#C55687" transform="translate(128,260.6875)"/>
<path d="M0 0 C5.02581515 -0.29563619 7.99585702 -0.14753528 12 3 C13.96486793 8.15777831 14.53731408 13.29850542 12.875 18.5625 C10.47973309 21.67634699 8.55223435 23.71984063 4.59765625 24.43359375 C-2.30588913 24.44423095 -2.30588913 24.44423095 -6.125 22 C-6.74375 21.34 -7.3625 20.68 -8 20 C-7.505 18.515 -7.505 18.515 -7 17 C-6.34 17.825 -5.68 18.65 -5 19.5 C-1.6338698 22.3051085 -0.175731 22.7857074 4.0625 22.47265625 C7.66317126 21.59426669 9.00772296 20.05067422 11 17 C11.46882395 13.93628999 11.38436895 11.06946065 11 8 C10.89751953 6.92685547 10.89751953 6.92685547 10.79296875 5.83203125 C10.13607659 3.75411793 10.13607659 3.75411793 7.71484375 2.953125 C6.79832031 2.72109375 5.88179687 2.4890625 4.9375 2.25 C4.01839844 2.00765625 3.09929687 1.7653125 2.15234375 1.515625 C1.44207031 1.34546875 0.73179687 1.1753125 0 1 C0 0.67 0 0.34 0 0 Z " fill="#B06893" transform="translate(169,261)"/>
<path d="M0 0 C4.62 0 9.24 0 14 0 C14 12.87 14 25.74 14 39 C13.67 39 13.34 39 13 39 C12.67 26.79 12.34 14.58 12 2 C4.75930423 2.14164752 4.75930423 2.14164752 -2 4 C-1.34 2.68 -0.68 1.36 0 0 Z " fill="#BE5A84" transform="translate(80,233)"/>
<path d="M0 0 C0.78688445 2.77723925 1.11949924 5.22610077 1.09765625 8.109375 C1.09443359 8.86347656 1.09121094 9.61757813 1.08789062 10.39453125 C1.07951172 11.17183594 1.07113281 11.94914062 1.0625 12.75 C1.05798828 13.54277344 1.05347656 14.33554687 1.04882812 15.15234375 C1.03708565 17.10159508 1.01915146 19.05080738 1 21 C1.99 21.33 2.98 21.66 4 22 C4.99 22.33 5.98 22.66 7 23 C6.34 23 5.68 23 5 23 C5 23.66 5 24.32 5 25 C4.34 25 3.68 25 3 25 C4.32 26.65 5.64 28.3 7 30 C6.01 30 5.02 30 4 30 C-1.14233008 24.54601355 -2.2795683 19.89207552 -2.25 12.5 C-2.25515625 11.2109375 -2.2603125 9.921875 -2.265625 8.59375 C-2.01830367 5.2476379 -1.4505069 2.99310947 0 0 Z " fill="#4E96B2" transform="translate(361,261)"/>
<path d="M0 0 C4.00814928 3.83228898 7.42828753 7.92522322 10.8125 12.3125 C11.31458984 12.95767578 11.81667969 13.60285156 12.33398438 14.26757812 C13.55905681 15.84267125 14.7799632 17.42100316 16 19 C15.67 19.66 15.34 20.32 15 21 C14.401875 20.236875 13.80375 19.47375 13.1875 18.6875 C11.53040668 16.6516425 9.89702326 14.8021721 8 13 C7.01 13.33 6.02 13.66 5 14 C4.01 13.34 3.02 12.68 2 12 C2 11.01 2 10.02 2 9 C2.66 9 3.32 9 4 9 C4 8.34 4 7.68 4 7 C3.34 7 2.68 7 2 7 C0 4 0 4 0 0 Z " fill="#E36192" transform="translate(239,32)"/>
<path d="M0 0 C2.9375 1.3125 2.9375 1.3125 6 3 C7 6 7 6 6.5625 8.125 C4.63474712 10.43830346 3.79212913 10.38858577 0.875 10.75 C-0.40375 10.8325 -1.6825 10.915 -3 11 C-3.125 7.625 -3.125 7.625 -3 4 C-2.34 3.34 -1.68 2.68 -1 2 C-0.67 1.34 -0.34 0.68 0 0 Z " fill="#E55699" transform="translate(133,283)"/>
<path d="M0 0 C4.29 0 8.58 0 13 0 C13 12.87 13 25.74 13 39 C12.67 39 12.34 39 12 39 C11.67 26.79 11.34 14.58 11 2 C7.37 2 3.74 2 0 2 C0 1.34 0 0.68 0 0 Z " fill="#7E7A9C" transform="translate(256,251)"/>
<path d="M0 0 C-4.57664266 1.53746589 -9.40030899 1.01520816 -14.15625 0.87304688 C-19.42752 0.73007855 -19.42752 0.73007855 -24 3 C-25.29920746 6.54588501 -25.29920746 6.54588501 -26 10 C-26.99 10 -27.98 10 -29 10 C-29.33 9.01 -29.66 8.02 -30 7 C-27.10728977 2.52096481 -24.40395045 0.09449361 -19.3125 -1.53515625 C-12.74774742 -2.85476023 -6.18918836 -2.67640578 0 0 Z " fill="#49A1AC" transform="translate(520,252)"/>
<path d="M0 0 C3.71368887 1.23789629 4.77354181 2.85224877 7 6 C7 6.66 7 7.32 7 8 C7.66 8 8.32 8 9 8 C13 13.41176471 13 13.41176471 13 16 C13.99 16.33 14.98 16.66 16 17 C16.99155156 18.65258593 17.97478498 20.31180676 18.8828125 22.01171875 C20.67109158 25.1943553 22.84007257 28.06009877 25 31 C24.67 31.66 24.34 32.32 24 33 C17.49233436 24.55235448 11.01021212 16.08737539 4.6875 7.5 C4.21401123 6.8598999 3.74052246 6.2197998 3.25268555 5.56030273 C0 1.12083475 0 1.12083475 0 0 Z " fill="#4D97A4" transform="translate(344,91)"/>
<path d="M0 0 C0.8125 1.6875 0.8125 1.6875 1 4 C-1.3125 6.625 -1.3125 6.625 -4 9 C-4.66 9.66 -5.32 10.32 -6 11 C-5.34 12.32 -4.68 13.64 -4 15 C-4.763125 15.2475 -5.52625 15.495 -6.3125 15.75 C-9.2364045 17.10995558 -10.30004356 18.31585826 -12 21 C-12.33 20.67 -12.66 20.34 -13 20 C-14.32 21.32 -15.64 22.64 -17 24 C-15.43591116 18.95799933 -12.36902686 15.43599918 -9.0625 11.4375 C-7.99043772 10.12406321 -6.91881015 8.81027146 -5.84765625 7.49609375 C-5.35023926 6.88878418 -4.85282227 6.28147461 -4.34033203 5.65576172 C-2.84330856 3.80643328 -1.40320467 1.92146144 0 0 Z " fill="#4293AC" transform="translate(298,48)"/>
<path d="M0 0 C0.66 1.98 1.32 3.96 2 6 C2.66 6 3.32 6 4 6 C3.67 7.65 3.34 9.3 3 11 C0.69 11 -1.62 11 -4 11 C-4 10.34 -4 9.68 -4 9 C-2.02 9 -0.04 9 2 9 C-0.88286741 5.29447048 -0.88286741 5.29447048 -5.11328125 3.66796875 C-7.07856214 3.6854224 -9.04166127 3.83403909 -11 4 C-9.54643338 0.24495289 -9.54643338 0.24495289 -7.1875 -0.8125 C-4.61235122 -1.03322704 -2.49777315 -0.62444329 0 0 Z " fill="#48ACBD" transform="translate(470,258)"/>
<path d="M0 0 C5 2 5 2 7.3125 3.125 C11.11600028 4.36334893 13.99472374 4.32300615 18 4 C20.009245 2.66641006 20.009245 2.66641006 21 1 C20.6875 2.875 20.6875 2.875 20 5 C16.55549263 7.29633824 14.06187717 7.54016485 10 8 C10 7.34 10 6.68 10 6 C4.12378711 3.99552118 4.12378711 3.99552118 -1.5625 5.375 C-2.2740625 6.179375 -2.2740625 6.179375 -3 7 C-2.67 8.32 -2.34 9.64 -2 11 C-2.99 10.67 -3.98 10.34 -5 10 C-4.49701212 5.59885603 -2.91227269 3.28804981 0 0 Z " fill="#47A0AD" transform="translate(493,280)"/>
<path d="M0 0 C0 9.375 0 9.375 -1 13 C-3.07553648 13.5534764 -4.84365964 14 -7 14 C-7.99 15.485 -7.99 15.485 -9 17 C-9.66 17 -10.32 17 -11 17 C-9.56407335 12.88016856 -7.53749031 9.74182002 -4.9375 6.25 C-4.22464844 5.28578125 -3.51179687 4.3215625 -2.77734375 3.328125 C-1 1 -1 1 0 0 Z " fill="#D05685" transform="translate(136,120)"/>
<path d="M0 0 C4.54075781 4.14010271 7.71842138 8.82390176 11 14 C7.86650268 15.04449911 7.01031744 14.93423645 4 14 C4 12.02 4 10.04 4 8 C3.01 8.495 3.01 8.495 2 9 C-0.125 8.0625 -0.125 8.0625 -2 7 C-1.125 2.25 -1.125 2.25 0 0 Z M1 4 C2 6 2 6 2 6 Z " fill="#49B9C1" transform="translate(356,39)"/>
<path d="M0 0 C2 1 2 1 2.9375 3 C3.8891846 5.34608221 3.8891846 5.34608221 7 6 C6.67 6.99 6.34 7.98 6 9 C5.154375 8.484375 4.30875 7.96875 3.4375 7.4375 C-0.68668132 5.71284236 -2.72260389 5.81183442 -7 7 C-9.92031741 9.28889743 -11.54494569 11.60487328 -13 15 C-13 12.69 -13 10.38 -13 8 C-12.01 7.67 -11.02 7.34 -10 7 C-10 6.34 -10 5.68 -10 5 C-9.278125 4.731875 -8.55625 4.46375 -7.8125 4.1875 C-4.94366924 3.06484842 -4.94366924 3.06484842 -2.3125 1.3125 C-1.1678125 0.6628125 -1.1678125 0.6628125 0 0 Z " fill="#8E76A3" transform="translate(248,257)"/>
<path d="M0 0 C0.99 0.33 1.98 0.66 3 1 C-2.28 7.93 -7.56 14.86 -13 22 C-13 19 -13 19 -12 17 C-12.66 16.67 -13.32 16.34 -14 16 C-9.48746518 11.2367688 -9.48746518 11.2367688 -6.8125 9.9375 C-4.40872003 8.69416553 -4.05446803 7.4604254 -3 5 C-2.01120795 3.32665961 -1.01351664 1.65848177 0 0 Z " fill="#4294AA" transform="translate(290,125)"/>
<path d="M0 0 C-1.9375 0.5625 -1.9375 0.5625 -4 1 C-4.33 0.67 -4.66 0.34 -5 0 C-6.76628086 -0.15181257 -8.53993085 -0.22182672 -10.3125 -0.25 C-11.27800781 -0.27578125 -12.24351562 -0.3015625 -13.23828125 -0.328125 C-16.40031795 0.04756253 -17.61904604 0.96441518 -20 3 C-21.32860925 3.35169068 -22.66158328 3.68770276 -24 4 C-24.66 4.66 -25.32 5.32 -26 6 C-25.875 4.25 -25.875 4.25 -25 2 C-17.33854324 -3.95891081 -8.46923467 -5.21183672 0 0 Z " fill="#8C799B" transform="translate(254,253)"/>
<path d="M0 0 C1.70657095 2.19416265 3.07176323 4.15429093 4.25 6.6875 C5.90774614 9.39782458 5.90774614 9.39782458 9.6875 9.8125 C10.780625 9.874375 11.87375 9.93625 13 10 C13.33 9.01 13.66 8.02 14 7 C15.0013988 10.00419641 15.51421457 12.87709365 16 16 C10.3894142 14.67986216 6.26443936 13.24125634 2.8046875 8.2890625 C1.04924059 5.37968545 0 3.43969975 0 0 Z " fill="#9771A1" transform="translate(223,280)"/>
<path d="M0 0 C0.33 0.99 0.66 1.98 1 3 C2.98 2.67 4.96 2.34 7 2 C7.33 2.66 7.66 3.32 8 4 C7.67 4.99 7.34 5.98 7 7 C8.32 7 9.64 7 11 7 C11 7.66 11 8.32 11 9 C4.76978542 8.06423654 -0.11211886 7.11611043 -5 3 C-5 2.34 -5 1.68 -5 1 C-4.01 1 -3.02 1 -2 1 C-2 1.66 -2 2.32 -2 3 C-1.34 3 -0.68 3 0 3 C0 2.01 0 1.02 0 0 Z " fill="#45A6B5" transform="translate(497,270)"/>
<path d="M0 0 C0.33 0.66 0.66 1.32 1 2 C-0.63349388 4.83351872 -2.48826823 7.47788967 -4.3359375 10.17578125 C-5.95747392 12.92782546 -6.45893298 14.90212606 -7 18 C-9 20.1875 -9 20.1875 -11 22 C-11.33 22.66 -11.66 23.32 -12 24 C-13.32 23.67 -14.64 23.34 -16 23 C-16.33 21.35 -16.66 19.7 -17 18 C-16.34 19.32 -15.68 20.64 -15 22 C-12.63459748 19.80435907 -10.99276506 17.56890624 -9.3359375 14.8046875 C-8.61277344 13.60779297 -8.61277344 13.60779297 -7.875 12.38671875 C-7.38 11.55785156 -6.885 10.72898438 -6.375 9.875 C-5.38398851 8.22585524 -4.39186037 6.57738081 -3.3984375 4.9296875 C-2.96192871 4.19991699 -2.52541992 3.47014648 -2.07568359 2.71826172 C-1 1 -1 1 0 0 Z " fill="#C65685" transform="translate(76,239)"/>
<path d="M0 0 C5.08841527 3.51685198 8.27167332 8.09271094 11.8125 13.0625 C12.40998047 13.87783203 13.00746094 14.69316406 13.62304688 15.53320312 C14.18701172 16.31759766 14.75097656 17.10199219 15.33203125 17.91015625 C16.10123901 18.97955444 16.10123901 18.97955444 16.88598633 20.07055664 C18 22 18 22 18 25 C14.38703661 21.7910421 11.98494742 17.60102226 9.40429688 13.5625 C7.00507608 9.96163211 6.37956189 9.09489047 2 8 C1.34 5.36 0.68 2.72 0 0 Z " fill="#52A9AC" transform="translate(351,31)"/>
<path d="M0 0 C-0.33 0.99 -0.66 1.98 -1 3 C-1 2.34 -1 1.68 -1 1 C-1.99 1.33 -2.98 1.66 -4 2 C-5.54291217 1.9442992 -7.08483447 1.85756712 -8.625 1.75 C-15.6226388 1.66815627 -20.47663676 4.72281854 -25.5625 9.3125 C-26.036875 9.869375 -26.51125 10.42625 -27 11 C-27.66 10.67 -28.32 10.34 -29 10 C-20.58952133 1.80367703 -12.0777989 -4.02593297 0 0 Z " fill="#C45F86" transform="translate(228,25)"/>
<path d="M0 0 C0.33 0.99 0.66 1.98 1 3 C-0.23414044 5.34282452 -1.49246493 7.48292584 -2.9375 9.6875 C-3.32357422 10.29400391 -3.70964844 10.90050781 -4.10742188 11.52539062 C-5.06246419 13.02280265 -6.03006086 14.51219401 -7 16 C-8.98 15.34 -10.96 14.68 -13 14 C-13 11.69 -13 9.38 -13 7 C-13.99 6.67 -14.98 6.34 -16 6 C-15.34 5.01 -14.68 4.02 -14 3 C-12.02 6.3 -10.04 9.6 -8 13 C-5.36 8.71 -2.72 4.42 0 0 Z " fill="#658AA9" transform="translate(329,248)"/>
<path d="M0 0 C2.97 0 5.94 0 9 0 C9 2.97 9 5.94 9 9 C8.34 9 7.68 9 7 9 C7 8.01 7 7.02 7 6 C5.865625 5.71125 4.73125 5.4225 3.5625 5.125 C2.386875 4.75375 1.21125 4.3825 0 4 C-0.33 3.34 -0.66 2.68 -1 2 C-0.67 1.34 -0.34 0.68 0 0 Z " fill="#33B7C6" transform="translate(431,253)"/>
<path d="M0 0 C0 3.86695678 -1.41909971 6.5088452 -3 10 C-2.34 10 -1.68 10 -1 10 C-0.67 11.32 -0.34 12.64 0 14 C-2.62113708 14 -4.50935112 13.68707555 -7 13 C-7.99 14.485 -7.99 14.485 -9 16 C-9.66 16 -10.32 16 -11 16 C-9.32076975 12.19866558 -6.88537166 9.02917298 -4.375 5.75 C-3.95476562 5.19570312 -3.53453125 4.64140625 -3.1015625 4.0703125 C-2.07061281 2.71133337 -1.03570089 1.35536165 0 0 Z " fill="#3D86AC" transform="translate(255,105)"/>
<path d="M0 0 C1.703125 0.12109375 1.703125 0.12109375 4 1 C5.72894698 2.99515901 7.24257501 4.91429664 8.75 7.0625 C9.16121094 7.63033203 9.57242187 8.19816406 9.99609375 8.78320312 C11.00695036 10.18194657 12.00477206 11.59009375 13 13 C12.67 13.66 12.34 14.32 12 15 C10.68 14.34 9.36 13.68 8 13 C8 13.66 8 14.32 8 15 C7.01 15 6.02 15 5 15 C5.061875 13.783125 5.12375 12.56625 5.1875 11.3125 C5.19442348 7.40073507 4.41890746 5.16318668 2 2 C1.34 1.34 0.68 0.68 0 0 Z " fill="#50B0B4" transform="translate(369,57)"/>
<path d="M0 0 C2.82122764 2.82122764 2.98147275 4.72672305 3.25 8.6875 C3.14882356 14.80305372 1.40115387 19.35962474 -2.5625 24 C-5 26 -5 26 -7 26 C-7 25.34 -7 24.68 -7 24 C-6.01 23.34 -5.02 22.68 -4 22 C-2.9590934 20.35857037 -1.95495674 18.69287785 -1 17 C-0.67 16.67 -0.34 16.34 0 16 C0.07319621 13.30345146 0.09242537 10.63308542 0.0625 7.9375 C0.05798828 7.17888672 0.05347656 6.42027344 0.04882812 5.63867188 C0.0370068 3.75908129 0.01907078 1.87953101 0 0 Z " fill="#4891A1" transform="translate(323,137)"/>
<path d="M0 0 C2.475 0.99 2.475 0.99 5 2 C3.66667905 5.99996286 1.5042173 6.83782337 -2 9 C-3.32 8.34 -4.64 7.68 -6 7 C-4.02 4.69 -2.04 2.38 0 0 Z " fill="#E75C9A" transform="translate(114,283)"/>
<path d="M0 0 C1 2 1 2 0.3125 4.875 C-1.56327907 9.34114065 -4.02308294 11.34872196 -8 14 C-9.19232613 16.05003955 -9.19232613 16.05003955 -10 18 C-10.64428711 16.21582031 -10.64428711 16.21582031 -11 14 C-10.10375977 12.26074219 -10.10375977 12.26074219 -8.69140625 10.546875 C-8.19189453 9.928125 -7.69238281 9.309375 -7.17773438 8.671875 C-6.64470703 8.03765625 -6.11167969 7.4034375 -5.5625 6.75 C-5.03333984 6.1003125 -4.50417969 5.450625 -3.95898438 4.78125 C-2.65062191 3.1782113 -1.32674973 1.58785408 0 0 Z " fill="#4589A0" transform="translate(295,138)"/>
<path d="M0 0 C0 3.66781443 -0.88957977 4.55845881 -3.0625 7.44921875 C-3.69414062 8.29677734 -4.32578125 9.14433594 -4.9765625 10.01757812 C-5.64429688 10.89865234 -6.31203125 11.77972656 -7 12.6875 C-8.00160156 14.02651367 -8.00160156 14.02651367 -9.0234375 15.39257812 C-10.67598499 17.59990941 -12.33500956 19.80204814 -14 22 C-14.66 21.67 -15.32 21.34 -16 21 C-14.6875 18.0625 -14.6875 18.0625 -13 15 C-12.01 14.67 -11.02 14.34 -10 14 C-8.99083967 12.23408113 -8.99083967 12.23408113 -8 10 C-5.64239168 6.22782668 -3.26241842 3.02938853 0 0 Z " fill="#4694A7" transform="translate(310,100)"/>
<path d="M0 0 C1.051875 0.12375 2.10375 0.2475 3.1875 0.375 C3.1875 0.705 3.1875 1.035 3.1875 1.375 C2.34960938 1.51679687 1.51171875 1.65859375 0.6484375 1.8046875 C-4.47039686 4.1272286 -6.91712418 8.04163797 -10.1875 12.5 C-10.82816406 13.34949219 -11.46882812 14.19898437 -12.12890625 15.07421875 C-13.70308267 17.16528892 -15.26343561 19.26529762 -16.8125 21.375 C-17.4725 20.385 -18.1325 19.395 -18.8125 18.375 C-17.8225 18.375 -16.8325 18.375 -15.8125 18.375 C-15.53019531 17.79492188 -15.24789062 17.21484375 -14.95703125 16.6171875 C-13.13657019 13.0508235 -11.01893625 9.71343397 -8.8125 6.375 C-8.41933594 5.76398438 -8.02617187 5.15296875 -7.62109375 4.5234375 C-5.20481105 1.15818569 -4.19923378 0.41303939 0 0 Z " fill="#C45F86" transform="translate(220.8125,78.625)"/>
<path d="M0 0 C0.99 0.66 1.98 1.32 3 2 C-6.11016173 4.01647849 -6.11016173 4.01647849 -10.375 3.9375 C-13.5350286 4.01273878 -14.71518217 4.89093738 -17 7 C-17.66 6.67 -18.32 6.34 -19 6 C-12.99717848 0.85472441 -7.89046046 -1.00477774 0 0 Z " fill="#B96294" transform="translate(173,250)"/>
<path d="M0 0 C0.61875 0.804375 1.2375 1.60875 1.875 2.4375 C3.74164041 5.03874519 3.74164041 5.03874519 6 6 C12.26407421 6.52200618 15.09822453 5.92142038 20 2 C18.54213659 5.84345809 16.61034412 7.15079935 13 9 C9.21603308 10.26132231 6.85909105 9.91214879 3 9 C0.9114178 6.34180447 0.54948771 3.29692626 0 0 Z " fill="#4897AB" transform="translate(372,277)"/>
<path d="M0 0 C0.66 0.33 1.32 0.66 2 1 C2 2.32 2 3.64 2 5 C1.01 5 0.02 5 -1 5 C-2.92821186 7.45480059 -2.92821186 7.45480059 -4.6875 10.5 C-5.31011719 11.5209375 -5.93273437 12.541875 -6.57421875 13.59375 C-7.04472656 14.3878125 -7.51523438 15.181875 -8 16 C-8.33 15.34 -8.66 14.68 -9 14 C-8.67 13.01 -8.34 12.02 -8 11 C-8.66 10.67 -9.32 10.34 -10 10 C-9.360625 9.71125 -8.72125 9.4225 -8.0625 9.125 C-5.84793921 8.17176549 -5.84793921 8.17176549 -5 6 C-4.34 6 -3.68 6 -3 6 C-3 4.35 -3 2.7 -3 1 C-2.01 0.67 -1.02 0.34 0 0 Z " fill="#D1548C" transform="translate(80,255)"/>
<path d="M0 0 C0 0.66 0 1.32 0 2 C-0.94875 2.391875 -1.8975 2.78375 -2.875 3.1875 C-6.09998932 4.69992411 -6.09998932 4.69992411 -7.3125 7.375 C-7.97576085 9.90745051 -8.55765599 12.41965994 -9 15 C-9.33 15 -9.66 15 -10 15 C-10 13.35 -10 11.7 -10 10 C-10.66 9.67 -11.32 9.34 -12 9 C-10.75 5.5625 -10.75 5.5625 -9 2 C-6.9375 1.125 -6.9375 1.125 -5 1 C-3 0 -3 0 0 0 Z " fill="#479CB1" transform="translate(381,261)"/>
<path d="M0 0 C4.875 4.625 4.875 4.625 6 8 C4.35 9.65 2.7 11.3 1 13 C0.67 8.71 0.34 4.42 0 0 Z " fill="#CD608F" transform="translate(263,63)"/>
<path d="M0 0 C0.33 0.66 0.66 1.32 1 2 C1.33 1.34 1.66 0.68 2 0 C2.99 0.33 3.98 0.66 5 1 C4.67 1.99 4.34 2.98 4 4 C6.64 4.33 9.28 4.66 12 5 C9.27700903 6.85163386 7.91836514 6.99554719 4.5625 6.8125 C1.11226222 6.02560366 -1.11923982 5.00780255 -4 3 C-2.68 2.67 -1.36 2.34 0 2 C0 1.34 0 0.68 0 0 Z " fill="#44A6B0" transform="translate(425,290)"/>
<path d="M0 0 C4.99767765 0.4759693 8.07050258 1.87426342 12 5 C13.8966185 7.99767555 14.22841537 10.23387746 14.125 13.75 C14.10695313 14.54921875 14.08890625 15.3484375 14.0703125 16.171875 C14.03550781 17.07679688 14.03550781 17.07679688 14 18 C12.46876261 15.18098556 11.65703329 12.61264772 10.9375 9.5 C9.99596638 6.49204786 9.45162212 5.30295647 6.8046875 3.52734375 C4.55880168 2.54520873 2.34698755 1.70360423 0 1 C0 0.67 0 0.34 0 0 Z " fill="#489DA8" transform="translate(512,268)"/>
<path d="M0 0 C0.9075 0.33 1.815 0.66 2.75 1 C8.06183796 2.55521854 13.52020695 2.16196433 19 2 C19 1.34 19 0.68 19 0 C20.65 0 22.3 0 24 0 C21.30922663 3.4821773 18.21428896 4.17095955 14 5 C8.68218539 5.01026605 4.63522759 3.66525587 0 1 C0 0.67 0 0.34 0 0 Z " fill="#4F95A9" transform="translate(368,292)"/>
<path d="M0 0 C0.33 0 0.66 0 1 0 C1.36314325 2.74908445 1.71580841 5.49883451 2.0625 8.25 C2.16626953 9.02730469 2.27003906 9.80460937 2.37695312 10.60546875 C2.47041016 11.35957031 2.56386719 12.11367188 2.66015625 12.890625 C2.79369507 13.92751465 2.79369507 13.92751465 2.92993164 14.98535156 C3.00606235 17.17430848 2.6249336 18.91005813 2 21 C1.34 21 0.68 21 0 21 C0 14.07 0 7.14 0 0 Z " fill="#6D879D" transform="translate(289,271)"/>
<path d="M0 0 C3.26008643 3.16952847 6.22237877 6.39937989 9 10 C8.67 10.66 8.34 11.32 8 12 C7.236875 11.525625 6.47375 11.05125 5.6875 10.5625 C3.03589452 8.89893903 3.03589452 8.89893903 0 8 C0 5.36 0 2.72 0 0 Z " fill="#4FA9B0" transform="translate(409,108)"/>
<path d="M0 0 C1.22077078 2.88545821 1.01784488 3.95340503 -0.125 6.9375 C-2.72738078 11.18805527 -5.19356857 14.39785619 -10 16 C-9.67 15.01 -9.34 14.02 -9 13 C-8.34 12.67 -7.68 12.34 -7 12 C-7 10.68 -7 9.36 -7 8 C-5.35 8 -3.7 8 -2 8 C-1.855625 7.236875 -1.71125 6.47375 -1.5625 5.6875 C-1 3 -1 3 0 0 Z " fill="#50A8B0" transform="translate(431,148)"/>
<path d="M0 0 C0.99 0.33 1.98 0.66 3 1 C2.236875 1.7425 1.47375 2.485 0.6875 3.25 C-3.90172756 7.94240896 -3.90172756 7.94240896 -6 14 C-6.99 14 -7.98 14 -9 14 C-7.64002446 7.95566426 -4.14348206 4.36505864 0 0 Z " fill="#3892BA" transform="translate(261,100)"/>
<path d="M0 0 C0.66 0 1.32 0 2 0 C2.28875 1.11375 2.5775 2.2275 2.875 3.375 C3.69241329 7.00291092 3.69241329 7.00291092 6 9 C6.40047444 11.32275177 6.7397104 13.65739357 7 16 C1.88059578 12.09308626 1.16585054 8.50962258 0.26171875 2.23046875 C0.17535156 1.49441406 0.08898437 0.75835937 0 0 Z " fill="#4B9FAC" transform="translate(441,273)"/>
<path d="M0 0 C4.06503929 1.52211112 5.71326354 4.04576642 8.125 7.5625 C10.52435062 11.38705618 10.52435062 11.38705618 14 14 C13.67 15.32 13.34 16.64 13 18 C11.39245904 15.94005539 9.7889195 13.87719524 8.1875 11.8125 C7.73568359 11.23435547 7.28386719 10.65621094 6.81835938 10.06054688 C4.30818834 6.81747919 2.02756611 3.57686912 0 0 Z " fill="#50A4AB" transform="translate(379,138)"/>
<path d="M0 0 C0.33 0 0.66 0 1 0 C0.979375 0.928125 0.95875 1.85625 0.9375 2.8125 C0.84230396 6.02286011 0.84230396 6.02286011 2 9 C1.979375 10.093125 1.95875 11.18625 1.9375 12.3125 C1.99986479 15.99202289 2.67156036 18.59587343 4 22 C0.51388632 18.98926546 -0.85189494 15.79232231 -1.23046875 11.2109375 C-1.21628906 10.27507812 -1.20210938 9.33921875 -1.1875 8.375 C-1.18105469 7.43398437 -1.17460938 6.49296875 -1.16796875 5.5234375 C-1 3 -1 3 0 0 Z " fill="#C0567F" transform="translate(124,137)"/>
<path d="M0 0 C0 3.41099168 -0.49145406 6.63088314 -1 10 C-1.99 10.33 -2.98 10.66 -4 11 C-5.66710346 12.49985609 -5.66710346 12.49985609 -7 14 C-6.69723124 7.94462479 -3.72245962 4.48516542 0 0 Z " fill="#3B90BE" transform="translate(241,126)"/>
<path d="M0 0 C2.475 0.495 2.475 0.495 5 1 C5 1.66 5 2.32 5 3 C5.99 3.66 6.98 4.32 8 5 C8.98515378 7.62356462 9.42238929 10.24524123 10 13 C6.40523299 9.50794062 3.07973809 5.95966325 0 2 C0 1.34 0 0.68 0 0 Z " fill="#CF638C" transform="translate(230,87)"/>
<path d="M0 0 C2.7578125 -0.33203125 2.7578125 -0.33203125 6 0 C8.1171875 2.30078125 8.1171875 2.30078125 9.875 5.3125 C10.47054688 6.29863281 11.06609375 7.28476563 11.6796875 8.30078125 C13 11 13 11 13 14 C12.48050781 13.30132812 11.96101563 12.60265625 11.42578125 11.8828125 C10.72839844 10.97273438 10.03101563 10.06265625 9.3125 9.125 C8.62800781 8.22007813 7.94351562 7.31515625 7.23828125 6.3828125 C4.90081884 3.89441448 3.22910769 2.98400129 0 2 C0 1.34 0 0.68 0 0 Z " fill="#4F8EA1" transform="translate(330,76)"/>
<path d="M0 0 C0 3.94991499 -1.55508641 4.97981263 -4 8 C-4.28875 8.845625 -4.5775 9.69125 -4.875 10.5625 C-6.44645273 13.96731424 -8.82943574 15.13901663 -12 17 C-10.32844203 13.22757683 -7.92645254 10.07212347 -5.4375 6.8125 C-5.02564453 6.26658203 -4.61378906 5.72066406 -4.18945312 5.15820312 C-1.16952328 1.16952328 -1.16952328 1.16952328 0 0 Z " fill="#4694A5" transform="translate(311,31)"/>
<path d="M0 0 C2.475 0.99 2.475 0.99 5 2 C4.38545304 5.99455527 2.29353263 8.74466336 0 12 C-0.99 11.67 -1.98 11.34 -3 11 C-2.01 10.67 -1.02 10.34 0 10 C0 6.7 0 3.4 0 0 Z " fill="#4DA1AE" transform="translate(520,253)"/>
<path d="M0 0 C0.53625 0.350625 1.0725 0.70125 1.625 1.0625 C4.73274763 2.28924249 6.79431703 1.72856431 10 1 C10 1.66 10 2.32 10 3 C12.97 3.495 12.97 3.495 16 4 C16 4.66 16 5.32 16 6 C5.06974729 5.78943471 5.06974729 5.78943471 1.8125 2.4375 C1.214375 1.633125 0.61625 0.82875 0 0 Z " fill="#D75385" transform="translate(128,159)"/>
<path d="M0 0 C1.32 0.33 2.64 0.66 4 1 C-3.11389522 9.81548975 -3.11389522 9.81548975 -8 11 C-7.071875 9.88625 -7.071875 9.88625 -6.125 8.75 C-4.39562719 6.51198812 -3.13893339 4.56260013 -2 2 C-1.34 2 -0.68 2 0 2 C0 1.34 0 0.68 0 0 Z " fill="#4489A5" transform="translate(268,153)"/>
<path d="M0 0 C0.66 0 1.32 0 2 0 C2.33 0.66 2.66 1.32 3 2 C3.804375 2.37125 4.60875 2.7425 5.4375 3.125 C9.20498993 5.88169995 9.18597357 8.48585341 10 13 C6.40523299 9.50794062 3.07973809 5.95966325 0 2 C0 1.34 0 0.68 0 0 Z " fill="#4AA2AD" transform="translate(369,124)"/>
<path d="M0 0 C4.54109672 4.26587874 8.24735246 9.03612328 12 14 C11.67 14.66 11.34 15.32 11 16 C10.60167969 15.50628906 10.20335937 15.01257813 9.79296875 14.50390625 C8.99826172 13.54291016 8.99826172 13.54291016 8.1875 12.5625 C7.66542969 11.92441406 7.14335937 11.28632812 6.60546875 10.62890625 C4.99165589 8.7451725 4.99165589 8.7451725 2 8 C1.26953125 6.15234375 1.26953125 6.15234375 0.8125 3.9375 C0.65394531 3.20402344 0.49539063 2.47054687 0.33203125 1.71484375 C0.22246094 1.14894531 0.11289062 0.58304687 0 0 Z " fill="#4A9DA8" transform="translate(391,84)"/>
<path d="M0 0 C2.64 1.98 5.28 3.96 8 6 C7 10 7 10 4.9375 11.25 C4.298125 11.4975 3.65875 11.745 3 12 C3.350625 11.38125 3.70125 10.7625 4.0625 10.125 C4.5265625 9.073125 4.5265625 9.073125 5 8 C3.49336217 4.98672434 0.96833589 4.38943382 -2 3 C-1.34 2.01 -0.68 1.02 0 0 Z " fill="#C25A85" transform="translate(134,280)"/>
<path d="M0 0 C1.32 0.33 2.64 0.66 4 1 C3.01 2.485 3.01 2.485 2 4 C4.64 4.33 7.28 4.66 10 5 C10 5.66 10 6.32 10 7 C6.33694766 7.74926071 3.57644848 8.2380014 0 7 C0 4.69 0 2.38 0 0 Z " fill="#50A5B2" transform="translate(455,262)"/>
<path d="M0 0 C0 0.66 0 1.32 0 2 C-0.99 2.66 -1.98 3.32 -3 4 C-3.33 4.66 -3.66 5.32 -4 6 C-4.99 6.495 -4.99 6.495 -6 7 C-6 6.34 -6 5.68 -6 5 C-7.65 6.32 -9.3 7.64 -11 9 C-11.66 8.67 -12.32 8.34 -13 8 C-11.71064081 6.85157077 -10.41843421 5.70633773 -9.125 4.5625 C-8.04605469 3.60537109 -8.04605469 3.60537109 -6.9453125 2.62890625 C-4.33744175 0.44520725 -3.46232755 0 0 0 Z " fill="#C95A89" transform="translate(117,251)"/>
<path d="M0 0 C0.66 0 1.32 0 2 0 C2 0.99 2 1.98 2 3 C1.34 3 0.68 3 0 3 C0 3.66 0 4.32 0 5 C-0.99 5.495 -0.99 5.495 -2 6 C-1.01 7.485 -1.01 7.485 0 9 C-0.66 9.66 -1.32 10.32 -2 11 C-2.99 11 -3.98 11 -5 11 C-4.67 8.69 -4.34 6.38 -4 4 C-3.34 4 -2.68 4 -2 4 C-1.34 2.68 -0.68 1.36 0 0 Z " fill="#3893BE" transform="translate(248,117)"/>
<path d="M0 0 C3.48872415 1.16290805 4.09976864 2.13967609 6.1875 5.0625 C6.71730469 5.79597656 7.24710937 6.52945313 7.79296875 7.28515625 C8.19128906 7.85105469 8.58960938 8.41695312 9 9 C8.67 9.66 8.34 10.32 8 11 C7.34 10.34 6.68 9.68 6 9 C5.01 9.495 5.01 9.495 4 10 C3.34 9.01 2.68 8.02 2 7 C1.01 6.34 0.02 5.68 -1 5 C-0.34 4.34 0.32 3.68 1 3 C0.67 2.01 0.34 1.02 0 0 Z " fill="#48A2B1" transform="translate(382,73)"/>
<path d="M0 0 C3.875 4.75 3.875 4.75 5 7 C8.02934491 7.65772428 8.02934491 7.65772428 11 8 C11.33 7.01 11.66 6.02 12 5 C12.99 6.485 12.99 6.485 14 8 C7.78680203 10.31472081 7.78680203 10.31472081 4.1875 8.875 C1.96117628 6.96672253 0.94588178 5.75165608 0 3 C0 2.01 0 1.02 0 0 Z " fill="#C45F94" transform="translate(149,281)"/>
<path d="M0 0 C6.18390896 3.95083073 8.42650255 10.0766112 10 17 C7.04185281 14.38772848 5.28123892 11.33429693 3.3125 7.9375 C2.37857422 6.34228516 2.37857422 6.34228516 1.42578125 4.71484375 C0 2 0 2 0 0 Z " fill="#6A87A8" transform="translate(307,262)"/>
<path d="M0 0 C0 0.66 0 1.32 0 2 C0.66 2.33 1.32 2.66 2 3 C1.01 3 0.02 3 -1 3 C-1 4.65 -1 6.3 -1 8 C-1.99 7.67 -2.98 7.34 -4 7 C-4 6.01 -4 5.02 -4 4 C-4.66 3.67 -5.32 3.34 -6 3 C-3.375 0 -3.375 0 0 0 Z " fill="#B96FB0" transform="translate(209,235)"/>
<path d="M0 0 C1.67542976 0.28604898 3.34385343 0.61781233 5 1 C4.67 1.66 4.34 2.32 4 3 C-2.04124766 4.43508565 -7.22761562 4.13327249 -13 2 C-10.21145291 1.0704843 -7.72116386 0.95822386 -4.8125 1 C-3.554375 1 -2.29625 1 -1 1 C-0.67 0.67 -0.34 0.34 0 0 Z " fill="#40889F" transform="translate(255,163)"/>
<path d="M0 0 C6.27 0 12.54 0 19 0 C16.02240442 2.97759558 13.79097944 2.9560567 9.625 3.1875 C6.0380095 3.00196601 3.32915583 2.29918276 0 1 C0 0.67 0 0.34 0 0 Z " fill="#59A1A6" transform="translate(402,164)"/>
<path d="M0 0 C1.32 0.33 2.64 0.66 4 1 C0.37 5.95 -3.26 10.9 -7 16 C-7.33 14.68 -7.66 13.36 -8 12 C-6.3563186 10.31066078 -4.6857124 8.64740076 -3 7 C-1.77333959 4.70896111 -0.91065538 2.44439075 0 0 Z " fill="#C55E87" transform="translate(191,112)"/>
<path d="M0 0 C0.66 0.66 1.32 1.32 2 2 C1.21625 2.474375 0.4325 2.94875 -0.375 3.4375 C-3.9310969 6.90892793 -4.31347549 10.2045751 -5 15 C-5.66 15 -6.32 15 -7 15 C-7.57256004 11.07387404 -7.74950876 9.08011914 -5.44140625 5.75390625 C-3.68344524 3.76956797 -1.89115082 1.85738027 0 0 Z " fill="#B66390" transform="translate(166,261)"/>
<path d="M0 0 C0.99 0 1.98 0 3 0 C3.185625 0.8353125 3.185625 0.8353125 3.375 1.6875 C4.05976855 4.22114364 4.99133763 6.57921032 6 9 C4.68 9 3.36 9 2 9 C-0.29013653 5.5647952 -0.17842973 4.014669 0 0 Z " fill="#45BBC2" transform="translate(368,55)"/>
<path d="M0 0 C0.33 2.64 0.66 5.28 1 8 C0.01 8.495 0.01 8.495 -1 9 C-1.33 7.68 -1.66 6.36 -2 5 C-3.32 5 -4.64 5 -6 5 C-6 4.01 -6 3.02 -6 2 C-2.25 0 -2.25 0 0 0 Z " fill="#3FA2AF" transform="translate(440,286)"/>
<path d="M0 0 C0.66 0 1.32 0 2 0 C1.55171782 2.61497941 1.03223556 4.92344056 0 7.375 C-1.21187449 10.55617053 -1.60344027 13.62924226 -2 17 C-2.33 17 -2.66 17 -3 17 C-3.40368295 10.54107286 -2.5915262 5.93891422 0 0 Z " fill="#C85786" transform="translate(103,261)"/>
<path d="M0 0 C4 4.75 4 4.75 4 7 C3.01 7 2.02 7 1 7 C1 7.99 1 8.98 1 10 C0.34 10 -0.32 10 -1 10 C-2.25 3.375 -2.25 3.375 0 0 Z " fill="#2FB4BF" transform="translate(491,260)"/>
<path d="M0 0 C0.6328125 1.8515625 0.6328125 1.8515625 1 4 C-1.125 6.375 -1.125 6.375 -4 9 C-5.7195803 10.96059964 -7.35330066 12.97691224 -9 15 C-9 10.9255567 -6.90830751 8.88254967 -4.5 5.8125 C-3.85611328 4.97428711 -3.85611328 4.97428711 -3.19921875 4.11914062 C-2.13921945 2.74114153 -1.07043812 1.36990593 0 0 Z " fill="#44849E" transform="translate(243,121)"/>
<path d="M0 0 C0 0.99 0 1.98 0 3 C-2.64 3 -5.28 3 -8 3 C-8 2.01 -8 1.02 -8 0 C-5.13822943 -1.43088528 -3.06624227 -0.59991697 0 0 Z " fill="#3DAFBC" transform="translate(438,259)"/>
<path d="M0 0 C0.33 0.99 0.66 1.98 1 3 C-0.9375 6.1875 -0.9375 6.1875 -3 9 C-4.32 8.67 -5.64 8.34 -7 8 C-7 7.01 -7 6.02 -7 5 C-5.02 5.495 -5.02 5.495 -3 6 C-2.814375 5.071875 -2.814375 5.071875 -2.625 4.125 C-2 2 -2 2 0 0 Z " fill="#CB5A8F" transform="translate(248,95)"/>
<path d="M0 0 C1.32 0 2.64 0 4 0 C2.59155282 3.21524305 0.89655214 5.32183868 -1.625 7.75 C-2.57246094 8.67039062 -2.57246094 8.67039062 -3.5390625 9.609375 C-4.02117187 10.06828125 -4.50328125 10.5271875 -5 11 C-5 7.06764531 -3.45054659 5.97035951 -1 3 C-0.67 2.01 -0.34 1.02 0 0 Z " fill="#3AA7B9" transform="translate(312,30)"/>
<path d="M0 0 C-0.33 1.32 -0.66 2.64 -1 4 C-5.455 4.495 -5.455 4.495 -10 5 C-10 4.34 -10 3.68 -10 3 C-6.58168085 0.4606772 -4.24223102 -0.3636198 0 0 Z " fill="#469DAE" transform="translate(323,26)"/>
<path d="M0 0 C0.99 0 1.98 0 3 0 C3 0.66 3 1.32 3 2 C3.66 2 4.32 2 5 2 C4.67 3.65 4.34 5.3 4 7 C1.69 7 -0.62 7 -3 7 C-3 6.34 -3 5.68 -3 5 C-1.02 5 0.96 5 3 5 C2.01 3.35 1.02 1.7 0 0 Z " fill="#50A4B4" transform="translate(469,262)"/>
<path d="M0 0 C1.65 0.33 3.3 0.66 5 1 C5 2.32 5 3.64 5 5 C3.35 5.33 1.7 5.66 0 6 C0 5.34 0 4.68 0 4 C-0.66 4 -1.32 4 -2 4 C-2 3.34 -2 2.68 -2 2 C-1.34 2 -0.68 2 0 2 C0 1.34 0 0.68 0 0 Z " fill="#32AFC3" transform="translate(381,257)"/>
<path d="M0 0 C3.55780196 0.60990891 6.6828589 1.5783681 10 3 C9.01 3.99 8.02 4.98 7 6 C6.67 5.34 6.34 4.68 6 4 C5.34 4.66 4.68 5.32 4 6 C3.01 5.67 2.02 5.34 1 5 C1.33 4.34 1.66 3.68 2 3 C1.67 2.67 1.34 2.34 1 2 C0.67 1.34 0.34 0.68 0 0 Z " fill="#48B0C4" transform="translate(336,25)"/>
<path d="M0 0 C1.93742341 -0.02703381 3.87495479 -0.04641125 5.8125 -0.0625 C6.89144531 -0.07410156 7.97039063 -0.08570313 9.08203125 -0.09765625 C12 0 12 0 15 1 C15.6875 3.0625 15.6875 3.0625 16 5 C14.0625 4.6875 14.0625 4.6875 12 4 C11.67 3.01 11.34 2.02 11 1 C7.37 1 3.74 1 0 1 C0 0.67 0 0.34 0 0 Z " fill="#D2538D" transform="translate(32,234)"/>
<path d="M0 0 C0.99 0 1.98 0 3 0 C3.66 0.66 4.32 1.32 5 2 C4.34 2 3.68 2 3 2 C2.67 3.98 2.34 5.96 2 8 C0.68 7.67 -0.64 7.34 -2 7 C-1.34 4.69 -0.68 2.38 0 0 Z " fill="#47B8C6" transform="translate(426,135)"/>
<path d="M0 0 C0.6328125 1.84375 0.6328125 1.84375 1 4 C-1.94955185 7.470061 -5.40155384 10.22405582 -9 13 C-7.50923566 9.7173068 -5.61379679 7.06922559 -3.375 4.25 C-2.74335938 3.45078125 -2.11171875 2.6515625 -1.4609375 1.828125 C-0.97882813 1.22484375 -0.49671875 0.6215625 0 0 Z " fill="#4A8DA3" transform="translate(298,48)"/>
<path d="M0 0 C5.44693314 -0.09688221 10.63904667 -0.12862175 16 1 C16 1.33 16 1.66 16 2 C10.16524985 2.85330338 5.55139349 3.48351814 0 1 C0 0.67 0 0.34 0 0 Z " fill="#BC557C" transform="translate(135,164)"/>
<path d="M0 0 C3.59634744 3.49359465 6.83451967 7.11098131 10 11 C9.67 11.66 9.34 12.32 9 13 C8.401875 12.236875 7.80375 11.47375 7.1875 10.6875 C5.19170348 8.10587656 5.19170348 8.10587656 3.375 6.5 C1.58010943 4.54193756 0.8731632 2.48515681 0 0 Z " fill="#C55F87" transform="translate(245,40)"/>
<path d="M0 0 C0.33 0.66 0.66 1.32 1 2 C0.01 3.485 0.01 3.485 -1 5 C-2.9453125 5.29296875 -2.9453125 5.29296875 -5.125 5.1875 C-6.40375 5.125625 -7.6825 5.06375 -9 5 C-8.67 4.01 -8.34 3.02 -8 2 C-7.05125 2.04125 -6.1025 2.0825 -5.125 2.125 C-1.89755144 2.34973818 -1.89755144 2.34973818 0 0 Z " fill="#6288A0" transform="translate(326,276)"/>
<path d="M0 0 C0.99 0.33 1.98 0.66 3 1 C4.39439664 1.06665376 5.79169875 1.08538199 7.1875 1.0625 C8.445625 1.041875 9.70375 1.02125 11 1 C10.67 1.99 10.34 2.98 10 4 C7.36 4 4.72 4 2 4 C1.34 2.68 0.68 1.36 0 0 Z " fill="#B95983" transform="translate(56,277)"/>
<path d="M0 0 C0 0.66 0 1.32 0 2 C-0.99 2 -1.98 2 -3 2 C-3.66 3.65 -4.32 5.3 -5 7 C-6.32 6.67 -7.64 6.34 -9 6 C-7.8803014 4.99406757 -6.7540588 3.9954151 -5.625 3 C-4.68527344 2.1646875 -4.68527344 2.1646875 -3.7265625 1.3125 C-2 0 -2 0 0 0 Z " fill="#4BA0A8" transform="translate(454,253)"/>
<path d="M0 0 C0.99 0.33 1.98 0.66 3 1 C0.36 4.3 -2.28 7.6 -5 11 C-5.33 10.34 -5.66 9.68 -6 9 C-4.73046875 7.53515625 -3.4609375 6.0703125 -2.19140625 4.60546875 C-0.79128769 2.89287029 -0.79128769 2.89287029 0 0 Z " fill="#4A91A3" transform="translate(290,125)"/>
<path d="M0 0 C0.99 0.33 1.98 0.66 3 1 C2.67 2.65 2.34 4.3 2 6 C1.01 6 0.02 6 -1 6 C-1.33 5.01 -1.66 4.02 -2 3 C-1.34 2.01 -0.68 1.02 0 0 Z " fill="#45AAB5" transform="translate(492,256)"/>
<path d="M0 0 C0.66 0.33 1.32 0.66 2 1 C-0.67055151 3.19366731 -2.66447738 4.22171139 -6 5 C-6.66 5.66 -7.32 6.32 -8 7 C-7.9375 5.1875 -7.9375 5.1875 -7 3 C-3.5625 1.1875 -3.5625 1.1875 0 0 Z " fill="#986F9F" transform="translate(236,252)"/>
<path d="M0 0 C4.42857143 5.14285714 4.42857143 5.14285714 5 9 C3.35 8.67 1.7 8.34 0 8 C0 5.36 0 2.72 0 0 Z " fill="#D05C8B" transform="translate(53,247)"/>
<path d="M0 0 C0.99 0 1.98 0 3 0 C1.55746343 3.36591866 -0.33264727 5.51047079 -3 8 C-2.45276317 4.62537285 -1.9451 2.91765 0 0 Z " fill="#C95A85" transform="translate(173,137)"/>
<path d="M0 0 C0.66 0.33 1.32 0.66 2 1 C1.835 1.598125 1.67 2.19625 1.5 2.8125 C0.8885876 5.11344336 0.8885876 5.11344336 1 8 C-0.32 6.68 -1.64 5.36 -3 4 C-1 1 -1 1 0 0 Z " fill="#3FA0BC" transform="translate(349,88)"/>
<path d="M0 0 C0.33 0.66 0.66 1.32 1 2 C-0.5224249 5.57769851 -2.02930459 8.45368965 -5 11 C-5.66 10.67 -6.32 10.34 -7 10 C-3.535 5.05 -3.535 5.05 0 0 Z " fill="#C35B85" transform="translate(163,83)"/>
<path d="M0 0 C0.66 0 1.32 0 2 0 C3.625 2 3.625 2 5 4 C2.03 4.66 -0.94 5.32 -4 6 C-2.7260411 3.96166576 -1.38938077 1.96147874 0 0 Z " fill="#3DB4C0" transform="translate(327,75)"/>
<path d="M0 0 C1.98 0.495 1.98 0.495 4 1 C4 2.32 4 3.64 4 5 C2.35 5 0.7 5 -1 5 C-0.67 3.35 -0.34 1.7 0 0 Z " fill="#47A8BE" transform="translate(442,267)"/>
<path d="M0 0 C1.98 0 3.96 0 6 0 C5.67 1.65 5.34 3.3 5 5 C2.5 3.625 2.5 3.625 0 2 C0 1.34 0 0.68 0 0 Z " fill="#E15491" transform="translate(132,267)"/>
<path d="M0 0 C0.8125 1.6875 0.8125 1.6875 1 4 C-1.4375 6.75 -1.4375 6.75 -4 9 C-4 5.00095031 -2.27413033 3.19799578 0 0 Z " fill="#CA608A" transform="translate(198,36)"/>
<path d="M0 0 C2.5 2.3125 2.5 2.3125 5 5 C5 5.99 5 6.98 5 8 C2 7 2 7 0 4 C0 2.68 0 1.36 0 0 Z " fill="#CA5C87" transform="translate(239,32)"/>
<path d="M0 0 C4.43090471 1.20842856 6.98112756 2.51668565 10 6 C6.05879291 5.43697042 3.2491277 4.3208055 0 2 C0 1.34 0 0.68 0 0 Z " fill="#C46588" transform="translate(229,26)"/>
<path d="M0 0 C2.20892172 3.31338258 3.08787021 6.14098934 4 10 C3.67 10.66 3.34 11.32 3 12 C0.58314288 7.77050005 -0.34833144 4.87664009 0 0 Z " fill="#488FA5" transform="translate(359,275)"/>
<path d="M0 0 C0.66 0.66 1.32 1.32 2 2 C1.34 2 0.68 2 0 2 C-0.2475 2.969375 -0.495 3.93875 -0.75 4.9375 C-1.1625 5.948125 -1.575 6.95875 -2 8 C-3.32 8.33 -4.64 8.66 -6 9 C-4.02 6.03 -2.04 3.06 0 0 Z " fill="#C45E86" transform="translate(152,98)"/>
<path d="M0 0 C0.33 0.99 0.66 1.98 1 3 C1.66 3.33 2.32 3.66 3 4 C3 4.99 3 5.98 3 7 C1.0625 6.6875 1.0625 6.6875 -1 6 C-1.33 5.01 -1.66 4.02 -2 3 C-1.34 2.01 -0.68 1.02 0 0 Z " fill="#D75B8F" transform="translate(155,94)"/>
<path d="M0 0 C1.32 0.33 2.64 0.66 4 1 C3.67 3.31 3.34 5.62 3 8 C0.4345406 5.4345406 0.45953913 3.52313332 0 0 Z " fill="#E2599F" transform="translate(149,274)"/>
<path d="M0 0 C1.32 0.99 2.64 1.98 4 3 C3.67 4.65 3.34 6.3 3 8 C1.68 7.34 0.36 6.68 -1 6 C-0.34 5.67 0.32 5.34 1 5 C0.67 3.35 0.34 1.7 0 0 Z " fill="#41B5C7" transform="translate(481,261)"/>
<path d="M0 0 C3.63 0 7.26 0 11 0 C11 0.33 11 0.66 11 1 C10.30132812 1.13277344 9.60265625 1.26554688 8.8828125 1.40234375 C7.97273438 1.57894531 7.06265625 1.75554687 6.125 1.9375 C5.22007812 2.11152344 4.31515625 2.28554687 3.3828125 2.46484375 C1.00043683 2.89963701 1.00043683 2.89963701 -1 4 C-0.67 2.68 -0.34 1.36 0 0 Z " fill="#4699B2" transform="translate(340,234)"/>
<path d="M0 0 C2.5 2.3125 2.5 2.3125 5 5 C5 5.99 5 6.98 5 8 C4.01 8.495 4.01 8.495 3 9 C2.01 6.03 1.02 3.06 0 0 Z " fill="#53A6AE" transform="translate(424,128)"/>
<path d="M0 0 C1.98 0 3.96 0 6 0 C6.33 1.32 6.66 2.64 7 4 C4.69 3.34 2.38 2.68 0 2 C0 1.34 0 0.68 0 0 Z " fill="#4594A8" transform="translate(330,76)"/>
<path d="M0 0 C-2 2 -2 2 -5 3 C-5.33 2.01 -5.66 1.02 -6 0 C-3.50907189 -1.24546405 -2.58919267 -0.7767578 0 0 Z M-9 3 C-7.68 3.33 -6.36 3.66 -5 4 C-5.99 4.33 -6.98 4.66 -8 5 C-8.33 4.34 -8.66 3.68 -9 3 Z " fill="#41AEC5" transform="translate(327,27)"/>
<path d="M0 0 C0.33 0.66 0.66 1.32 1 2 C3.02463255 2.65213292 3.02463255 2.65213292 5 3 C5 3.66 5 4.32 5 5 C1.31245243 4.50168276 -0.60490662 3.89932357 -3 1 C-2.01 0.67 -1.02 0.34 0 0 Z " fill="#46A7B0" transform="translate(494,290)"/>
<path d="M0 0 C0.66 0.33 1.32 0.66 2 1 C1.67 3.31 1.34 5.62 1 8 C0.34 7.67 -0.32 7.34 -1 7 C-1.625 4.9375 -1.625 4.9375 -2 3 C-1.34 3 -0.68 3 0 3 C0 2.01 0 1.02 0 0 Z " fill="#D7588E" transform="translate(140,259)"/>
<path d="M0 0 C0.66 1.32 1.32 2.64 2 4 C0.68 4.99 -0.64 5.98 -2 7 C-2.66 6.67 -3.32 6.34 -4 6 C-2.68 4.02 -1.36 2.04 0 0 Z " fill="#5096BB" transform="translate(334,243)"/>
</svg>
