<svg width="60" height="60" viewBox="0 0 60 60" fill="none" xmlns="http://www.w3.org/2000/svg">
<path d="M15.2623 16.2032L10.0641 16.6048C8.6177 16.7166 7.32946 17.4746 6.52955 18.6846L0.534634 27.7515C-0.0720405 28.6691 -0.168485 29.8174 0.276472 30.8234C0.721547 31.8293 1.63619 32.5303 2.72309 32.6987L7.48263 33.4358C8.59602 27.5273 11.2613 21.6332 15.2623 16.2032ZM26.5641 52.5173L27.3013 57.2768C27.4697 58.3637 28.1707 59.2784 29.1766 59.7233C29.5866 59.9054 30.0301 59.9996 30.4787 59.9999C31.1084 59.9994 31.7239 59.8134 32.2485 59.4652L41.3157 53.4704C42.5256 52.6703 43.2837 51.382 43.3953 49.9358L43.7969 44.7376C38.3667 48.7387 32.4728 51.404 26.5641 52.5173ZM24.7741 49.2184C24.9393 49.2184 25.1055 49.2048 25.2713 49.1771C27.7468 48.7632 30.1327 48.066 32.4087 47.1533L12.8467 27.5914C11.9341 29.8672 11.2368 32.2532 10.8229 34.7287C10.6598 35.7045 10.9871 36.6986 11.6866 37.3982L22.6018 48.3135C23.1826 48.8941 23.9664 49.2184 24.7741 49.2184ZM55.2158 26.6017C60.0027 17.347 60.18 7.5671 59.9298 2.98041C59.8442 1.40882 58.5912 0.155864 57.0195 0.0702011C56.1438 0.0229656 55.2669 -0.000441307 54.39 6.29919e-06C49.2612 6.29919e-06 41.1459 0.776836 33.3982 4.78427C27.241 7.96905 19.1672 14.9816 14.4038 24.1974C14.46 24.2413 14.515 24.288 14.5668 24.3398L35.6604 45.4334C35.7122 45.4852 35.7587 45.54 35.8026 45.5963C45.0184 40.8327 52.031 32.7589 55.2158 26.6017ZM34.8862 12.6843C38.3129 9.25763 43.8887 9.25728 47.3156 12.6843C48.9757 14.3442 49.8899 16.5514 49.8899 18.899C49.8899 21.2466 48.9757 23.4538 47.3156 25.1138C45.6025 26.8269 43.3513 27.6837 41.101 27.6839C38.85 27.684 36.5999 26.8274 34.8862 25.1138C33.2262 23.4538 32.3119 21.2466 32.3119 18.899C32.3119 16.5514 33.2262 14.3442 34.8862 12.6843Z" fill="white"/>
<path d="M37.3717 22.6279C39.4277 24.6839 42.7734 24.684 44.8294 22.6279C45.8254 21.6318 46.374 20.3076 46.374 18.899C46.374 17.4904 45.8254 16.1662 44.8294 15.1702C43.8015 14.1422 42.451 13.6282 41.1006 13.6282C39.7502 13.6282 38.3998 14.1422 37.3718 15.1702C36.3758 16.1662 35.8272 17.4904 35.8272 18.899C35.8272 20.3076 36.3757 21.6319 37.3717 22.6279ZM1.79313 49.4455C2.24301 49.4455 2.69289 49.274 3.03601 48.9306L8.77499 43.1917C9.46147 42.5052 9.46147 41.3923 8.77499 40.7058C8.08863 40.0193 6.97559 40.0193 6.28911 40.7058L0.550132 46.4448C-0.136347 47.1312 -0.136347 48.2442 0.550132 48.9306C0.713182 49.0941 0.906931 49.2238 1.12025 49.3121C1.33356 49.4005 1.56224 49.4458 1.79313 49.4455ZM14.0344 45.9652C13.3481 45.2787 12.235 45.2787 11.5486 45.9652L0.514859 56.9989C-0.17162 57.6854 -0.17162 58.7983 0.514859 59.4848C0.858099 59.828 1.30798 59.9996 1.75786 59.9996C2.20774 59.9996 2.65762 59.828 3.00074 59.4847L14.0343 48.4511C14.7209 47.7646 14.7209 46.6517 14.0344 45.9652ZM16.8079 51.2247L11.069 56.9637C10.3826 57.6501 10.3826 58.7631 11.069 59.4495C11.4123 59.7928 11.8622 59.9645 12.3119 59.9645C12.7617 59.9645 13.2117 59.7929 13.5548 59.4495L19.2938 53.7106C19.9803 53.0241 19.9803 51.9112 19.2938 51.2247C18.6074 50.5382 17.4944 50.5382 16.8079 51.2247Z" fill="white"/>
</svg>
