<svg width="40" height="40" viewBox="0 0 40 40" fill="none" xmlns="http://www.w3.org/2000/svg">
<g clip-path="url(#clip0_1_9935)">
<path fill-rule="evenodd" clip-rule="evenodd" d="M7.67713 31.7409L10.783 37.3976C11.2421 38.2343 10.9746 39.2901 10.148 39.7676C9.3213 40.2443 8.23713 39.9693 7.77796 39.1326L4.23878 32.6859C4.35462 32.6651 4.47045 32.6393 4.58628 32.6084C5.62879 32.3293 6.64629 32.0201 7.67713 31.7418V31.7409ZM31.7589 0C36.3106 0 40.0006 2.62501 40.0006 5.86252C40.0006 9.10003 36.3106 11.725 31.7589 11.725C30.1714 11.725 28.6889 11.4059 27.4314 10.8525C27.2939 10.7925 27.1472 10.8067 27.0239 10.8925L24.4205 12.7209C24.2422 12.8459 24.0113 12.6567 24.0988 12.4575L25.2497 9.84003C25.3214 9.67587 25.2847 9.49336 25.1555 9.37086C24.1272 8.39253 23.518 7.17836 23.518 5.86335C23.518 2.62584 27.208 0.000833355 31.7597 0.000833355L31.7589 0ZM27.0014 26.7284C26.9059 26.6736 26.8362 26.5831 26.8075 26.4768C26.7787 26.3706 26.7933 26.2573 26.848 26.1618C26.9029 26.0663 26.9934 25.9966 27.0996 25.9678C27.2059 25.9391 27.3192 25.9537 27.4147 26.0084L30.618 27.8576C30.7135 27.9125 30.7832 28.003 30.8119 28.1092C30.8407 28.2155 30.8261 28.3288 30.7714 28.4243C30.7165 28.5197 30.626 28.5894 30.5198 28.6182C30.4135 28.6469 30.3002 28.6323 30.2047 28.5776L27.0014 26.7284ZM25.3814 18.4167C25.326 18.5121 25.2351 18.5817 25.1286 18.6101C25.022 18.6385 24.9085 18.6235 24.813 18.5684C24.7176 18.5131 24.6481 18.4221 24.6196 18.3156C24.5912 18.209 24.6062 18.0956 24.6614 18.0001L26.5105 14.7967C26.5659 14.7013 26.6568 14.6318 26.7633 14.6033C26.8699 14.5749 26.9834 14.5899 27.0789 14.645C27.1743 14.7004 27.2438 14.7913 27.2722 14.8978C27.3007 15.0044 27.2857 15.1179 27.2305 15.2134L25.3814 18.4167ZM27.9122 22.2376C27.6905 22.2967 27.4622 22.1651 27.403 21.9426C27.3439 21.7201 27.4755 21.4926 27.698 21.4334L31.2705 20.4759C31.4922 20.4167 31.7205 20.5484 31.7797 20.7709C31.8389 20.9926 31.7072 21.2209 31.4847 21.2801L27.9122 22.2376ZM36.6139 4.23751H27.6214C27.3914 4.23751 27.2047 4.42418 27.2047 4.65418C27.2047 4.88418 27.3914 5.07085 27.6214 5.07085H36.6139C36.8439 5.07085 37.0306 4.88418 37.0306 4.65418C37.0306 4.42418 36.8439 4.23751 36.6139 4.23751ZM27.6214 6.65586C27.5113 6.65586 27.4057 6.69958 27.3279 6.77741C27.2501 6.85523 27.2064 6.96079 27.2064 7.07086C27.2064 7.18092 27.2501 7.28648 27.3279 7.36431C27.4057 7.44213 27.5113 7.48586 27.6214 7.48586L33.5555 7.46586C33.6656 7.46586 33.7712 7.42214 33.849 7.34431C33.9268 7.26648 33.9706 7.16092 33.9706 7.05086C33.9706 6.94079 33.9268 6.83523 33.849 6.75741C33.7712 6.67958 33.6656 6.63586 33.5555 6.63586L27.6214 6.65586ZM1.54794 4.99752H11.6271C12.4796 4.99752 13.1746 5.69252 13.1746 6.54502V12.8859C13.1746 13.7384 12.4796 14.4334 11.6271 14.4334H1.54794C0.695437 14.4334 0.000434845 13.7384 0.000434845 12.8859V6.54502C0.000434845 5.69252 0.695437 4.99752 1.54794 4.99752ZM8.60546 10.185C8.96797 9.97587 8.96797 9.45586 8.60546 9.2467L6.11712 7.81003C5.75462 7.60086 5.30462 7.86086 5.30462 8.27919V11.1525C5.30462 11.5709 5.75462 11.8309 6.11712 11.6217L8.60546 10.185ZM37.4414 33.8884C37.4414 32.3584 36.3014 31.1184 34.8947 31.1184C33.878 31.1184 33.0005 31.7659 32.5922 32.7026C32.1839 31.7659 31.3064 31.1184 30.2897 31.1184C28.883 31.1184 27.743 32.3584 27.743 33.8884C27.743 35.6368 31.0397 38.5618 32.2072 39.826C32.4197 40.056 32.7647 40.056 32.9772 39.826C34.1447 38.5626 37.4414 35.6368 37.4414 33.8884ZM17.9063 13.1475C17.1955 13.3384 16.7688 14.0759 16.9597 14.7867L21.9372 33.3618C22.128 34.0726 22.8655 34.4993 23.5763 34.3084C24.2872 34.1176 24.7139 33.3801 24.523 32.6693L19.5455 14.0942C19.3547 13.3834 18.6172 12.9567 17.9063 13.1475ZM9.2238 30.5018C8.98296 30.5534 8.7588 30.6043 8.54713 30.6543L6.71796 23.8276C6.92629 23.7642 7.14629 23.6959 7.38046 23.6209C12.343 22.0242 15.2197 19.4609 16.6947 17.0159L20.593 31.5659C18.093 30.1859 14.3196 29.4043 9.2238 30.5026V30.5018ZM7.73879 30.8543L5.91795 24.0584C4.81878 24.3609 3.93961 24.5426 2.52628 24.9217C0.701271 25.4109 -0.391233 27.3034 0.130435 29.2518C0.652104 31.1993 2.54544 32.2926 4.37045 31.8034C5.78379 31.4251 6.63629 31.1426 7.73879 30.8551V30.8543ZM22.2838 21.0917L23.4522 21.1017C23.8988 21.1059 24.2747 21.3967 24.3905 21.8284L24.8514 23.5476C24.9672 23.9792 24.7872 24.4192 24.4022 24.6459L23.3955 25.2393L22.2838 21.0909V21.0917Z" fill="url(#paint0_linear_1_9935)"/>
</g>
<defs>
<linearGradient id="paint0_linear_1_9935" x1="0" y1="20.0004" x2="40.0006" y2="20.0004" gradientUnits="userSpaceOnUse">
<stop stop-color="#EB5896"/>
<stop offset="1" stop-color="#3CB4C7"/>
</linearGradient>
<clipPath id="clip0_1_9935">
<rect width="40" height="40" fill="white"/>
</clipPath>
</defs>
</svg>
