<svg width="40" height="40" viewBox="0 0 40 40" fill="none" xmlns="http://www.w3.org/2000/svg">
<g clip-path="url(#clip0_1_9927)">
<path d="M3.51562 14.1393H1.17188C0.524141 14.1393 0 14.6634 0 15.3112C0 15.9589 0.524141 16.4831 1.17188 16.4831H3.51562C4.16336 16.4831 4.6875 15.9589 4.6875 15.3112C4.6875 14.6634 4.16336 14.1393 3.51562 14.1393ZM4.07898 8.27993L2.42188 6.6229C1.96414 6.16516 1.2225 6.16516 0.764766 6.6229C0.307031 7.08063 0.307031 7.82227 0.764766 8.28L2.42188 9.93704C2.87969 10.3948 3.62117 10.3948 4.07898 9.93704C4.53672 9.4793 4.53672 8.73766 4.07898 8.27993ZM4.07898 20.6854C3.62125 20.2277 2.87961 20.2276 2.42188 20.6854L0.764766 22.3425C0.307031 22.8002 0.307031 23.5419 0.764766 23.9996C1.22258 24.4574 1.96406 24.4574 2.42188 23.9996L4.07898 22.3425C4.53672 21.8848 4.53672 21.1431 4.07898 20.6854ZM38.8281 14.1393H36.4844C35.8366 14.1393 35.3125 14.6634 35.3125 15.3112C35.3125 15.9589 35.8366 16.4831 36.4844 16.4831H38.8281C39.4759 16.4831 40 15.9589 40 15.3112C40 14.6634 39.4759 14.1393 38.8281 14.1393ZM39.2352 6.62282C38.7775 6.16508 38.0359 6.16508 37.5781 6.62282L35.921 8.27993C35.4633 8.73766 35.4633 9.4793 35.921 9.93704C36.3788 10.3948 37.1203 10.3948 37.5781 9.93704L39.2352 8.27993C39.693 7.82219 39.693 7.08055 39.2352 6.62282ZM39.2352 22.3424L37.5781 20.6854C37.1204 20.2277 36.3787 20.2277 35.921 20.6854C35.4633 21.1431 35.4633 21.8848 35.921 22.3425L37.5781 23.9995C38.0359 24.4573 38.7774 24.4573 39.2352 23.9995C39.693 23.5418 39.693 22.8002 39.2352 22.3424ZM28.8634 3.14352C25.5584 0.456489 21.2223 -0.578042 16.9799 0.314536C11.6905 1.41891 7.38289 5.79086 6.26141 11.0781C5.30813 15.5767 6.48453 20.0926 9.4875 23.4686C10.7016 24.8348 11.4422 26.4837 11.6851 28.2019H15.3125V17.655C15.3125 17.2012 18.7488 10.5055 18.9517 10.0996C19.35 9.3054 20.65 9.3054 21.0483 10.0996C21.2609 10.5248 24.6875 17.2239 24.6875 17.655V28.2019H28.319C28.5702 26.4919 29.3325 24.8167 30.5812 23.392C32.826 20.8324 34.0634 17.5438 34.0625 14.1393C34.0625 9.88555 32.1673 5.82829 28.8634 3.14352Z" fill="url(#paint0_linear_1_9927)"/>
<path d="M20 19.8957C19.2077 19.8957 18.4184 19.7577 17.6562 19.5056V28.2019H22.3438V19.5056C21.5816 19.7577 20.7923 19.8957 20 19.8957ZM11.7969 30.5456V31.7175C11.7969 33.6561 13.3739 35.2331 15.3125 35.2331H24.6875C26.6261 35.2331 28.2031 33.6561 28.2031 31.7175V30.5456H11.7969ZM20 13.2444L18.0634 17.1177C19.3149 17.6304 20.6851 17.6304 21.9366 17.1177L20 13.2444ZM14.3565 37.5769C14.8419 38.938 16.1305 39.9988 17.6562 39.9988H22.3438C23.8695 39.9988 25.1581 38.938 25.6435 37.5769H14.3565Z" fill="url(#paint1_linear_1_9927)"/>
</g>
<defs>
<linearGradient id="paint0_linear_1_9927" x1="0" y1="14.1014" x2="40" y2="14.1014" gradientUnits="userSpaceOnUse">
<stop stop-color="#EB5896"/>
<stop offset="1" stop-color="#3CB4C7"/>
</linearGradient>
<linearGradient id="paint1_linear_1_9927" x1="11.7969" y1="26.6216" x2="28.2031" y2="26.6216" gradientUnits="userSpaceOnUse">
<stop stop-color="#EB5896"/>
<stop offset="1" stop-color="#3CB4C7"/>
</linearGradient>
<clipPath id="clip0_1_9927">
<rect width="40" height="40" fill="white"/>
</clipPath>
</defs>
</svg>
