<svg width="40" height="40" viewBox="0 0 40 40" fill="none" xmlns="http://www.w3.org/2000/svg">
<path fill-rule="evenodd" clip-rule="evenodd" d="M28.0873 5.82009C28.0873 7.15371 29.1712 8.23755 30.5048 8.23755C31.8384 8.23755 32.9223 7.15371 32.9223 5.82009C32.9223 4.48734 31.8384 3.40262 30.5048 3.40262C29.1712 3.40262 28.0873 4.48734 28.0873 5.82009ZM28.1336 33.1624C28.1336 29.3913 25.0664 26.324 21.2978 26.324C17.5284 26.324 14.4576 29.3913 14.4576 33.1624C14.4576 36.9328 17.5284 40 21.2978 40C25.0672 40 28.1336 36.9328 28.1336 33.1624ZM19.91 31.3327C19.91 32.0856 20.7406 32.4681 21.4323 32.6559C22.9162 33.0576 23.7293 33.8873 23.7293 34.9913C23.7293 36.1057 22.9127 37.0393 21.8218 37.2699V37.9677C21.8218 38.2568 21.5869 38.4917 21.2978 38.4917C21.0087 38.4917 20.7738 38.2568 20.7738 37.9677V37.2699C19.683 37.0393 18.862 36.1057 18.862 34.9913C18.862 34.7022 19.0969 34.4672 19.386 34.4672C19.6751 34.4672 19.91 34.7022 19.91 34.9913C19.91 35.7004 20.5345 36.2769 21.2969 36.2769C22.0603 36.2769 22.6803 35.7004 22.6803 34.9913C22.6803 34.2393 21.8533 33.8559 21.1572 33.6681C19.6769 33.2664 18.8603 32.4367 18.8603 31.3327C18.8603 30.2183 19.6803 29.2847 20.7721 29.0541V28.3572C20.7721 28.0672 21.007 27.8332 21.2961 27.8332C21.5852 27.8332 21.8201 28.0672 21.8201 28.3572V29.0541C22.9109 29.2847 23.7275 30.2183 23.7275 31.3327C23.7275 31.6218 23.4926 31.8568 23.2035 31.8568C22.9144 31.8568 22.6795 31.6218 22.6795 31.3327C22.6795 30.6236 22.0594 30.0472 21.2961 30.0472C20.5345 30.0472 19.91 30.6236 19.91 31.3327ZM14.8 15.3284C14.4009 14.9284 13.752 14.9284 13.3485 15.3284L12.4996 16.1799C12.2414 16.0507 11.9744 15.9401 11.7004 15.8489V14.4061H32.6367L27.2594 25.8463C27.2341 25.8987 27.2201 25.9546 27.2131 26.0114L27.021 27.7415C25.5799 26.2245 23.5476 25.276 21.2978 25.276C19.048 25.276 17.0148 26.2245 15.5747 27.7415L15.4891 26.9773L15.9991 26.469C16.1913 26.276 16.2987 26.0175 16.2987 25.7432C16.2987 25.469 16.1921 25.2114 15.9991 25.0175L15.1467 24.1659C15.2753 23.908 15.3862 23.6416 15.4786 23.3686H16.6804C17.2472 23.3686 17.7074 22.9083 17.7074 22.3424V20.6515C17.7074 20.0856 17.2472 19.6245 16.6804 19.6245H15.4786C15.3895 19.3528 15.2751 19.0847 15.1467 18.8271L15.9991 17.9755C16.3983 17.5755 16.3983 16.924 15.9991 16.524L14.8 15.3284ZM19.9179 21.3144C19.8695 21.2658 19.812 21.2273 19.7487 21.201C19.6854 21.1747 19.6175 21.1611 19.5489 21.1611C19.4803 21.1611 19.4124 21.1747 19.3491 21.201C19.2858 21.2273 19.2283 21.2658 19.1799 21.3144C19.1307 21.3628 19.0917 21.4205 19.0651 21.4842C19.0384 21.5478 19.0247 21.6161 19.0247 21.6852C19.0247 21.7542 19.0384 21.8225 19.0651 21.8861C19.0917 21.9498 19.1307 22.0075 19.1799 22.0559L20.9275 23.8044C20.9762 23.8532 21.034 23.892 21.0977 23.9183C21.1614 23.9447 21.2297 23.9582 21.2987 23.9581C21.4341 23.9581 21.5659 23.9065 21.6699 23.8044L23.4175 22.0559C23.621 21.8507 23.621 21.5188 23.4175 21.3144C23.214 21.11 22.883 21.11 22.676 21.3144L21.8236 22.1686V15.7624C21.8236 15.4734 21.5886 15.2384 21.2996 15.2384C21.0105 15.2384 20.7755 15.4734 20.7755 15.7624V22.1686L19.9179 21.3144ZM10.6533 15.8646C10.6533 16.3092 10.9389 16.7013 11.359 16.8402C11.5904 16.9162 11.8192 17.0114 12.0402 17.1223C12.4358 17.3231 12.9135 17.2463 13.2279 16.9319L14.0769 16.0847L15.2428 17.2498L14.3939 18.0969C14.0803 18.4114 14.0017 18.89 14.2052 19.2865C14.3162 19.5057 14.4087 19.7345 14.4873 19.9668C14.5544 20.1721 14.6848 20.351 14.8597 20.4777C15.0346 20.6045 15.2451 20.6727 15.4611 20.6725H16.6594V22.3205H15.4611C15.0192 22.3205 14.6271 22.6044 14.4873 23.0262C14.4087 23.2585 14.3162 23.4873 14.2052 23.7066C14.0017 24.1039 14.0803 24.5817 14.3939 24.8961L15.2428 25.7432L14.0769 26.9083L13.2279 26.0611C12.9144 25.7467 12.4367 25.6699 12.0402 25.8716C11.8203 25.9821 11.5926 26.0763 11.359 26.1537C11.1536 26.221 10.9747 26.3515 10.8479 26.5265C10.7212 26.7016 10.653 26.9123 10.6533 27.1284V28.3266H9.00611V27.1284C9.00611 26.6838 8.72052 26.2917 8.30044 26.1537C8.069 26.0769 7.84017 25.9817 7.61921 25.8716C7.42666 25.7734 7.20791 25.7388 6.99446 25.7729C6.781 25.807 6.58387 25.9079 6.43144 26.0611L5.58253 26.9083L4.41659 25.7432L5.2655 24.8961C5.57904 24.5817 5.65764 24.1031 5.45415 23.7066C5.34323 23.4873 5.25066 23.2585 5.17205 23.0262C5.10481 22.821 4.97444 22.6422 4.79956 22.5155C4.62468 22.3888 4.41423 22.3205 4.19825 22.3205H3V20.6725H4.19825C4.64017 20.6725 5.03231 20.3895 5.17205 19.9668C5.25066 19.7345 5.34323 19.5057 5.45415 19.2865C5.65764 18.89 5.57904 18.4114 5.2655 18.0969L4.41659 17.2498L5.58253 16.0847L6.43144 16.9319C6.74498 17.2472 7.22271 17.3231 7.61921 17.1223C7.84017 17.0114 8.06812 16.9162 8.30044 16.8402C8.7214 16.7013 9.00611 16.3092 9.00611 15.8646V14.4061H10.6533V15.8646ZM9.82882 17.9616C7.8786 17.9616 6.2952 19.5476 6.2952 21.4969C6.2952 23.4463 7.8786 25.0323 9.82882 25.0323C11.7799 25.0323 13.3668 23.4463 13.3668 21.4969C13.3668 19.5476 11.7799 17.9616 9.82882 17.9616ZM34.8917 11.1135H7.70393C7.08384 11.1135 6.58079 11.6166 6.58079 12.2358C6.58079 12.8541 7.08384 13.3581 7.70393 13.3581H34.8917C35.5083 13.3581 36.0114 12.8541 36.0114 12.2358C36.0114 11.6166 35.5083 11.1135 34.8917 11.1135ZM12.0865 8.23755C13.4201 8.23755 14.5039 7.15371 14.5039 5.82009C14.5039 4.48734 13.4201 3.40262 12.0865 3.40262C10.7563 3.40262 9.67249 4.48734 9.67249 5.82009C9.67249 7.15371 10.7563 8.23755 12.0865 8.23755ZM21.2978 6.91965C23.2052 6.91965 24.7572 5.36769 24.7572 3.45939C24.7572 1.55197 23.2061 0 21.2978 0C19.3904 0 17.8384 1.55197 17.8384 3.45939C17.8384 5.36769 19.3895 6.91965 21.2978 6.91965Z" fill="url(#paint0_linear_1_9940)"/>
<defs>
<linearGradient id="paint0_linear_1_9940" x1="3" y1="20" x2="36.0114" y2="20" gradientUnits="userSpaceOnUse">
<stop stop-color="#EB5896"/>
<stop offset="1" stop-color="#3CB4C7"/>
</linearGradient>
</defs>
</svg>
