<svg width="40" height="40" viewBox="0 0 40 40" fill="none" xmlns="http://www.w3.org/2000/svg">
<g clip-path="url(#clip0_1_9921)">
<path fill-rule="evenodd" clip-rule="evenodd" d="M27.1725 0.994884L29.2738 1.10526C20.7748 8.15025 11.5074 13.5396 2.40841 16.7198C2.15114 16.8102 2.01504 17.094 2.10384 17.3538C2.17521 17.5588 2.36774 17.6874 2.57522 17.6874C2.62916 17.6874 2.68393 17.6783 2.73788 17.6592C11.9821 14.4284 21.389 8.95193 30.0058 1.79241L29.8904 4.01239C29.8738 4.28708 30.0871 4.52111 30.3618 4.53522C30.3684 4.53605 30.3784 4.53605 30.3859 4.53605C30.6498 4.53605 30.8705 4.33024 30.8838 4.06467L31.0597 0.700271C31.073 0.425575 30.8631 0.191545 30.5884 0.176607L27.2231 0.000668541C27.1579 -0.00271923 27.0926 0.00679228 27.0311 0.0286587C26.9695 0.0505252 26.9129 0.0843173 26.8644 0.128101C26.8159 0.171885 26.7765 0.2248 26.7485 0.283819C26.7205 0.342838 26.7044 0.406802 26.7011 0.47205C26.6845 0.746745 26.8978 0.980776 27.1725 0.994884ZM33.7528 28.7118C33.7528 28.9873 33.5328 29.2097 33.2548 29.2097H26.7592C26.4845 29.2097 26.2613 28.9873 26.2613 28.7118V27.8055L23.6554 30.0031L26.2613 32.2006V31.2944C26.2613 31.0197 26.4845 30.7964 26.7592 30.7964H33.2548C33.5328 30.7964 33.7528 31.0197 33.7528 31.2944V32.2006L36.3586 30.0031L33.7528 27.8055V28.7118ZM30.0099 21.8311C32.1851 21.8311 34.2499 22.6867 35.7885 24.2245C37.3263 25.7623 38.1819 27.8271 38.1819 30.0031C38.1819 32.1782 37.3263 34.243 35.7885 35.7816C34.2507 37.3194 32.1859 38.1751 30.0099 38.1751C27.8348 38.1751 25.77 37.3194 24.2314 35.7816C22.6936 34.2438 21.8379 32.1791 21.8379 30.0031C21.8379 27.8279 22.6936 25.7631 24.2314 24.2245C25.7692 22.6867 27.8339 21.8311 30.0099 21.8311ZM32.7569 28.2138V27.5233C32.7569 27.1831 32.9502 26.8827 33.2581 26.7399C33.5669 26.5963 33.9221 26.6437 34.1801 26.8627L37.4533 29.623C37.5653 29.7176 37.6292 29.8562 37.6292 30.0031C37.6292 30.15 37.5645 30.2894 37.4533 30.384L34.1801 33.1442C33.9229 33.3633 33.5669 33.4106 33.2581 33.2671C32.9494 33.1235 32.7569 32.8231 32.7569 32.4828V31.7923H27.2572V32.4828C27.2572 32.8231 27.0671 33.1235 26.7592 33.2671C26.6405 33.3218 26.5152 33.3492 26.3899 33.3492C26.1932 33.3492 25.9965 33.2795 25.8339 33.1442L22.5641 30.384C22.4521 30.2894 22.3882 30.15 22.3882 30.0031C22.3882 29.8562 22.4529 29.7176 22.5641 29.623L25.8339 26.8627C26.0945 26.6437 26.4472 26.5963 26.7592 26.7399C27.0679 26.8827 27.2572 27.1831 27.2572 27.5233V28.2138H32.7569ZM26.6812 9.13533H29.9917V19.1762C28.8547 19.1779 27.7393 19.3572 26.6812 19.6982V9.13533ZM18.813 13.0973H22.1201V22.5879C20.6495 24.1523 19.6794 26.1092 19.3292 28.2205H18.813V13.0973ZM10.9414 17.5654H14.2519V28.2205H10.9414V17.5654ZM6.38361 28.2205V21.8303H3.07316V28.2205H6.38361ZM30.0099 39.005C27.5244 39.005 25.2737 37.9975 23.6446 36.3684C22.0155 34.7393 21.008 32.4886 21.008 30.0031C21.008 27.5175 22.0155 25.2669 23.6446 23.6378C25.2737 22.0087 27.5244 21.0012 30.0099 21.0012C32.4955 21.0012 34.7461 22.0087 36.3752 23.6378C38.0043 25.2669 39.0118 27.5175 39.0118 30.0031C39.0118 32.4886 38.0043 34.7393 36.3752 36.3684C34.7461 37.9975 32.4955 39.005 30.0099 39.005ZM0.503797 30.0462C0.229101 30.0462 0.00585938 29.823 0.00585938 29.5483C0.00585938 29.2736 0.229101 29.0504 0.503797 29.0504H20.057C20.2819 26.6702 21.3417 24.5324 22.94 22.934C24.7492 21.1248 27.2489 20.0061 30.0091 20.0061C32.7702 20.0061 35.269 21.1248 37.0781 22.934C38.8873 24.7432 40.006 27.2428 40.006 30.0031C40.006 32.7633 38.8873 35.263 37.0781 37.0721C35.269 38.8813 32.7693 40 30.0091 40C27.248 40 24.7492 38.8813 22.94 37.0721C21.14 35.2721 20.0238 32.789 20.0122 30.0454H0.503797V30.0462Z" fill="url(#paint0_linear_1_9921)"/>
</g>
<defs>
<linearGradient id="paint0_linear_1_9921" x1="0.00585937" y1="20" x2="40.006" y2="20" gradientUnits="userSpaceOnUse">
<stop stop-color="#EB5896"/>
<stop offset="1" stop-color="#3CB4C7"/>
</linearGradient>
<clipPath id="clip0_1_9921">
<rect width="40" height="40" fill="white"/>
</clipPath>
</defs>
</svg>
