<svg width="40" height="40" viewBox="0 0 40 40" fill="none" xmlns="http://www.w3.org/2000/svg">
<path d="M39.2138 35.4285L33.377 29.5952C35.7594 26.4167 37.0578 22.5714 37.0578 18.5238C37.0459 13.5714 35.1162 8.91671 31.626 5.41667C28.1239 1.91662 23.4783 0 18.5229 0C13.5795 0 8.92202 1.92859 5.41989 5.41667C1.91776 8.90474 0 13.5596 0 18.5119C0 23.4524 1.92986 28.1071 5.41989 31.6071C8.90993 35.1072 13.5676 37.0238 18.5229 37.0238C22.5611 37.0238 26.3967 35.738 29.5772 33.369L35.4259 39.2143C35.9501 39.7381 36.6289 40 37.3199 40C38.0109 40 38.6898 39.7381 39.2138 39.2143C40.2621 38.1666 40.2621 36.4762 39.2138 35.4285ZM37.701 37.7024C37.5939 37.8095 37.4628 37.8571 37.3199 37.8571C37.1771 37.8571 37.0459 37.8095 36.9387 37.7024L29.7082 30.4642C29.184 30.9524 28.6361 31.4047 28.0524 31.8214C25.3722 33.7501 22.0728 34.8809 18.5229 34.8809C9.4819 34.8809 2.14413 27.5477 2.14413 18.5119C2.14413 9.47614 9.4819 2.14286 18.5229 2.14286C27.564 2.14286 34.9017 9.47614 34.9017 18.5119C34.9017 22.0833 33.7582 25.381 31.8285 28.0714C31.4118 28.6549 30.954 29.2079 30.4586 29.7262C30.4825 29.7381 37.7011 36.9404 37.7011 36.9404C37.9155 37.1547 37.9154 37.488 37.701 37.7024ZM29.3508 7.69054C26.4563 4.80957 22.6088 3.21428 18.5229 3.21428C14.4253 3.21428 10.5897 4.79771 7.69512 7.69043C4.81243 10.5834 3.2162 14.4166 3.2162 18.5119C3.2162 22.6072 4.80057 26.4404 7.69512 29.3334C10.5897 32.2142 14.4372 33.8095 18.5229 33.8095C22.6206 33.8095 26.4563 32.2261 29.3508 29.3334C32.2334 26.4404 33.8297 22.5952 33.8297 18.5119C33.8297 14.4286 32.2454 10.5716 29.3508 7.69054ZM18.5229 17.9762C20.2383 17.9762 21.644 19.2857 21.644 20.881C21.644 22.3096 20.5242 23.5119 19.059 23.75V24.7738C19.059 25.0714 18.8207 25.3095 18.5229 25.3095C18.2251 25.3095 17.9869 25.0714 17.9869 24.7738V23.75C16.5218 23.5119 15.4021 22.3214 15.4021 20.881C15.4021 20.5834 15.6404 20.3453 15.9381 20.3453C16.2359 20.3453 16.4742 20.5834 16.4742 20.881C16.4742 21.8929 17.3913 22.7144 18.5229 22.7144C19.6546 22.7144 20.5718 21.8929 20.5718 20.881C20.5718 19.8691 19.6546 19.0476 18.5229 19.0476C16.8077 19.0476 15.4021 17.75 15.4021 16.1428C15.4021 14.7142 16.5218 13.5119 17.9869 13.2738V12.25C17.9869 11.9524 18.2251 11.7143 18.5229 11.7143C18.8207 11.7143 19.059 11.9524 19.059 12.25V13.2738C20.5242 13.5119 21.6439 14.7024 21.6439 16.1428C21.6439 16.4404 21.4056 16.6785 21.1078 16.6785C20.81 16.6785 20.5718 16.4404 20.5718 16.1428C20.5718 15.1309 19.6546 14.3094 18.5229 14.3094C17.3913 14.3094 16.4742 15.1309 16.4742 16.1428C16.4742 17.1547 17.3913 17.9762 18.5229 17.9762Z" fill="url(#paint0_linear_1_9887)"/>
<defs>
<linearGradient id="paint0_linear_1_9887" x1="0" y1="20" x2="40" y2="20" gradientUnits="userSpaceOnUse">
<stop stop-color="#EB5896"/>
<stop offset="1" stop-color="#3CB4C7"/>
</linearGradient>
</defs>
</svg>
