<svg width="35" height="39" viewBox="0 0 35 39" fill="none" xmlns="http://www.w3.org/2000/svg">
<path fill-rule="evenodd" clip-rule="evenodd" d="M11.8425 30.4381H2.65584C1.19545 30.4381 0 29.2426 0 27.7822V9.51671C0 8.05631 1.19545 6.86079 2.65584 6.86079H11.1945C10.8559 7.55914 10.6414 8.31113 10.5607 9.08306H2.5902C2.38627 9.08306 2.21984 9.24714 2.21984 9.45106V25.9655H21.6642L21.8277 29.2037C21.8399 29.445 21.905 29.6807 22.0184 29.894C22.1319 30.1073 22.2908 30.2931 22.4841 30.4381H22.6982V34.6575H26.7395C27.9842 34.6575 29.0039 35.4709 29.0039 36.4649V38.2745H5.53678V36.4649C5.53678 35.4709 6.55647 34.6575 7.80125 34.6575H11.8425V30.4381ZM23.3438 6.86079H31.8825C33.3429 6.86079 34.5384 8.05631 34.5384 9.51671V27.7822C34.5384 29.2426 33.3429 30.4381 31.8825 30.4381H29.6209C29.9727 29.9306 30.0232 29.2453 29.694 28.6751L29.1551 27.7417L30.1442 27.1707C30.362 27.0449 30.5482 26.8709 30.6884 26.662C30.8285 26.4531 30.919 26.2148 30.9528 25.9655H32.3185V9.45106C32.3183 9.3535 32.2795 9.25998 32.2105 9.191C32.1415 9.12202 32.048 9.08321 31.9504 9.08306H23.9776C23.897 8.31113 23.6825 7.55914 23.3438 6.86079ZM21.4911 21.3642H8.82808C8.74959 21.3642 8.67432 21.333 8.61882 21.2775C8.56333 21.222 8.53216 21.1467 8.53216 21.0682V17.8458C8.53216 17.7673 8.56333 17.692 8.61882 17.6365C8.67432 17.581 8.74959 17.5498 8.82808 17.5498H25.7103C25.7888 17.5498 25.864 17.581 25.9195 17.6365C25.975 17.692 26.0062 17.7673 26.0062 17.8458V21.0682C26.0062 21.1467 25.975 21.222 25.9195 21.2775C25.864 21.333 25.7888 21.3642 25.7103 21.3642H25.5805L23.9935 20.3379C23.7704 20.1936 23.5156 20.1055 23.2511 20.081C22.9865 20.0565 22.7199 20.0963 22.4741 20.1971C22.2282 20.298 22.0104 20.4568 21.8393 20.66C21.6681 20.8632 21.5486 21.1048 21.4911 21.3642ZM17.2692 15.2776C14.246 15.2776 11.779 12.8106 11.779 9.78737C11.779 6.76416 14.246 4.29718 17.2692 4.29718C20.2924 4.29718 22.7594 6.76416 22.7594 9.78737C22.7594 12.8106 20.2924 15.2776 17.2692 15.2776ZM16.6417 6.5429C16.5442 6.56793 16.4483 6.59895 16.3546 6.63577C15.5781 6.94141 15.0205 7.61381 15.0646 8.52573C15.1226 9.71075 16.1757 10.2232 17.1725 10.3873C17.4223 10.4282 17.6901 10.4863 17.9254 10.593C18.1575 10.6984 18.3625 10.855 18.3985 11.1478C18.4243 11.3631 18.3216 11.5152 18.1734 11.6175C17.9365 11.7807 17.6146 11.8504 17.3259 11.8573C16.8008 11.8696 16.2509 11.65 16.1171 11.1126C16.0335 10.7765 15.6927 10.5716 15.3567 10.6552C15.1953 10.6955 15.0564 10.7982 14.9707 10.9408C14.8849 11.0834 14.8593 11.2542 14.8994 11.4157C15.119 12.2976 15.8198 12.8521 16.6417 13.0405V13.2621C16.6417 13.6084 16.9229 13.8896 17.2692 13.8896C17.6155 13.8896 17.8966 13.6084 17.8966 13.2621V13.0497C18.8771 12.8473 19.7844 12.1576 19.6443 10.9971C19.4969 9.78988 18.3911 9.31506 17.3757 9.14894C17.1471 9.11137 16.9039 9.05459 16.6938 8.95184C16.4993 8.85679 16.3304 8.7171 16.318 8.46502C16.3022 8.13545 16.5336 7.91388 16.8143 7.80345C17.3256 7.60212 18.0397 7.72628 18.307 8.36204C18.4412 8.68126 18.8093 8.83153 19.1285 8.69726C19.2819 8.63271 19.4034 8.50991 19.4662 8.35586C19.5291 8.2018 19.5282 8.02909 19.4638 7.87569C19.1501 7.12949 18.5514 6.69796 17.8966 6.53631V6.31263C17.8966 5.96635 17.6155 5.68518 17.2692 5.68518C16.9229 5.68518 16.6417 5.96635 16.6417 6.31263V6.5429ZM16.2954 0.627451C16.2954 0.281177 16.5765 0 16.9228 0C17.2691 0 17.5503 0.281177 17.5503 0.627451V2.52855C17.5503 2.87482 17.2691 3.156 16.9228 3.156C16.5765 3.156 16.2954 2.87482 16.2954 2.52855V0.627451ZM11.8459 2.34157C11.7627 2.19743 11.7402 2.02618 11.7833 1.86545C11.8264 1.70472 11.9315 1.56766 12.0755 1.48439C12.3755 1.31129 12.7595 1.4142 12.9326 1.71412L13.8832 3.36047C14.0563 3.66039 13.9534 4.04447 13.6536 4.21757C13.5094 4.30071 13.3382 4.32322 13.1774 4.28016C13.0167 4.2371 12.8797 4.13199 12.7964 3.98792L11.8459 2.34157ZM21.0058 1.36776C21.0891 1.2237 21.2261 1.11859 21.3868 1.07553C21.5475 1.03247 21.7188 1.05498 21.8629 1.13812C22.007 1.22137 22.1121 1.35841 22.1551 1.51913C22.1982 1.67985 22.1757 1.85109 22.0925 1.99522L21.142 3.64157C21.0588 3.78563 20.9217 3.89074 20.761 3.9338C20.6003 3.97687 20.4291 3.95435 20.2849 3.87122C20.1409 3.78796 20.0358 3.65092 19.9927 3.4902C19.9496 3.32948 19.9722 3.15824 20.0553 3.01412L21.0058 1.36776ZM25.7445 28.2618L23.6688 29.4602C23.6106 29.4939 23.5448 29.512 23.4776 29.5129C23.4104 29.5137 23.3442 29.4973 23.2852 29.4652C23.2262 29.4331 23.1764 29.3864 23.1406 29.3295C23.1049 29.2726 23.0844 29.2075 23.081 29.1404L22.7074 21.7407C22.7038 21.6686 22.7201 21.5969 22.7547 21.5336C22.7892 21.4702 22.8405 21.4175 22.903 21.3814C22.9655 21.3454 23.0368 21.3272 23.1089 21.329C23.1811 21.3308 23.2514 21.3525 23.312 21.3916L29.5336 25.4151C29.59 25.4515 29.6361 25.5019 29.6674 25.5613C29.6988 25.6207 29.7144 25.6871 29.7127 25.7543C29.711 25.8214 29.6921 25.887 29.6578 25.9447C29.6234 26.0025 29.5749 26.0504 29.5167 26.084L27.4409 27.2824L28.6071 29.3025C28.6329 29.3471 28.6496 29.3963 28.6563 29.4474C28.6631 29.4985 28.6597 29.5503 28.6463 29.6001C28.633 29.6498 28.61 29.6965 28.5787 29.7373C28.5473 29.7782 28.5082 29.8125 28.4636 29.8382L27.4465 30.4254C27.3564 30.4774 27.2494 30.4915 27.1489 30.4646C27.0485 30.4377 26.9628 30.372 26.9108 30.2819L25.7445 28.2618Z" fill="url(#paint0_linear_1_9878)"/>
<defs>
<linearGradient id="paint0_linear_1_9878" x1="0" y1="19.1373" x2="34.5384" y2="19.1373" gradientUnits="userSpaceOnUse">
<stop stop-color="#EB5896"/>
<stop offset="1" stop-color="#3CB4C7"/>
</linearGradient>
</defs>
</svg>
