<svg width="40" height="40" viewBox="0 0 40 40" fill="none" xmlns="http://www.w3.org/2000/svg">
<g clip-path="url(#clip0_1_9890)">
<mask id="mask0_1_9890" style="mask-type:luminance" maskUnits="userSpaceOnUse" x="0" y="0" width="40" height="40">
<path d="M0 0.000114441H39.9999V40H0V0.000114441Z" fill="white"/>
</mask>
<g mask="url(#mask0_1_9890)">
<path d="M30.8023 0.000108719H0.829877C0.371536 0.000108719 0 0.371645 0 0.829987V15.8483C0 16.3066 0.371536 16.6781 0.829877 16.6781H3.30731V22.6614L9.29063 16.6781H30.8023C31.2606 16.6781 31.6322 16.3066 31.6322 15.8483V0.829987C31.6322 0.371645 31.2606 0.000108719 30.8023 0.000108719Z" fill="url(#paint0_linear_1_9890)"/>
<path d="M37.5032 40H32.5098V22.314C32.5098 21.8557 32.8813 21.4841 33.3396 21.4841H36.6733C37.1317 21.4841 37.5032 21.8557 37.5032 22.314V40Z" fill="url(#paint1_linear_1_9890)"/>
<path d="M17.4954 40H12.502V25.5623C12.502 25.104 12.8735 24.7324 13.3318 24.7324H16.6655C17.1239 24.7324 17.4954 25.104 17.4954 25.5623V40Z" fill="url(#paint2_linear_1_9890)"/>
<path d="M27.4993 40H22.5059V27.886C22.5059 27.4277 22.8774 27.0562 23.3357 27.0562H26.6694C27.1278 27.0562 27.4993 27.4277 27.4993 27.886V40Z" fill="url(#paint3_linear_1_9890)"/>
<path d="M7.48954 40H2.49609V31.2151C2.49609 30.7568 2.86763 30.3852 3.32597 30.3852H6.65967C7.11792 30.3852 7.48954 30.7568 7.48954 31.2151V40Z" fill="url(#paint4_linear_1_9890)"/>
</g>
<mask id="mask1_1_9890" style="mask-type:luminance" maskUnits="userSpaceOnUse" x="0" y="0" width="40" height="40">
<path d="M0 0.000114441H39.9999V40H0V0.000114441Z" fill="white"/>
</mask>
<g mask="url(#mask1_1_9890)">
</g>
<path fill-rule="evenodd" clip-rule="evenodd" d="M7.22697 5.48511C7.9751 5.28213 8.65533 5.44083 9.13615 5.64136C9.38547 5.74536 9.58777 5.86364 9.72892 5.95581C9.79975 6.00207 9.8565 6.04238 9.89591 6.07202C9.91544 6.08671 9.93059 6.09921 9.94181 6.10815C9.94735 6.11257 9.95204 6.11608 9.95548 6.1189C9.95721 6.12032 9.95919 6.12183 9.96036 6.1228L9.96232 6.12476H9.96329C10.1282 6.26362 10.1489 6.51049 10.0102 6.67554C9.88872 6.81962 9.68531 6.85374 9.52579 6.76733L9.46036 6.72339C9.45947 6.72265 9.45813 6.72062 9.45548 6.71851C9.4497 6.7139 9.43969 6.7062 9.42618 6.69604C9.39915 6.67572 9.35699 6.64592 9.30216 6.61011C9.1918 6.53804 9.03141 6.44483 8.83536 6.36304C8.44034 6.19828 7.92606 6.08926 7.38029 6.25366C6.45437 6.53257 6.4132 7.49569 6.95158 7.87476C6.95357 7.87563 6.95624 7.87673 6.95841 7.87769C6.98322 7.88861 7.01973 7.9051 7.06681 7.92554C7.16122 7.96652 7.29758 8.02512 7.46329 8.09448C7.6291 8.16389 7.82408 8.24431 8.03654 8.32886L8.71525 8.58862C9.34915 8.82245 9.80071 9.16796 10.06 9.5896C10.322 10.0158 10.3666 10.4886 10.2416 10.9207C9.99525 11.7713 9.11473 12.4216 8.03751 12.4216C6.99583 12.4216 6.11279 11.9661 5.56974 11.3669C5.42505 11.2071 5.4373 10.96 5.59708 10.8152C5.75694 10.6704 6.00399 10.6827 6.14884 10.8425C6.54861 11.2836 7.22345 11.6404 8.03751 11.6404C8.8129 11.6403 9.35426 11.1775 9.49161 10.7029C9.55825 10.4722 9.53531 10.2287 9.39396 9.99878C9.24966 9.76417 8.96153 9.51265 8.44474 9.32202C7.95979 9.14316 7.49972 8.95674 7.16154 8.81519C6.99242 8.7444 6.85334 8.68448 6.75626 8.64233C6.7077 8.62125 6.66902 8.604 6.64298 8.59253C6.63032 8.58695 6.62043 8.58283 6.61368 8.57983L6.60392 8.57495H6.60294C6.58414 8.56656 6.5655 8.5569 6.54826 8.54565C5.35455 7.7673 5.66551 5.95433 7.1547 5.50562L7.22697 5.48511ZM23.06 5.39038C25.0014 5.39052 26.5755 6.96462 26.5756 8.90601C26.5756 10.8475 25.0014 12.4215 23.06 12.4216C21.1184 12.4216 19.5443 10.8476 19.5443 8.90601C19.5445 6.96454 21.1185 5.39038 23.06 5.39038ZM16.4067 5.4187C16.6222 5.41872 16.797 5.59381 16.7973 5.80933C16.7973 6.02504 16.6224 6.19993 16.4067 6.19995H14.1879V8.51538H16.2143C16.4299 8.51539 16.6048 8.6904 16.6049 8.90601C16.6049 9.12174 16.43 9.29662 16.2143 9.29663H14.1879V11.6121H16.4067C16.6224 11.6121 16.7973 11.787 16.7973 12.0027C16.7973 12.2184 16.6224 12.3933 16.4067 12.3933H13.7973C13.5815 12.3933 13.4067 12.2184 13.4067 12.0027V5.80933C13.4069 5.5938 13.5817 5.4187 13.7973 5.4187H16.4067ZM23.06 6.17163C21.5499 6.17163 20.3257 7.39601 20.3256 8.90601C20.3256 10.4161 21.5499 11.6404 23.06 11.6404C24.57 11.6402 25.7943 10.416 25.7943 8.90601C25.7942 7.39609 24.5699 6.17177 23.06 6.17163Z" fill="white"/>
</g>
<defs>
<linearGradient id="paint0_linear_1_9890" x1="0" y1="11.3307" x2="31.6322" y2="11.3307" gradientUnits="userSpaceOnUse">
<stop stop-color="#EB5896"/>
<stop offset="1" stop-color="#3CB4C7"/>
</linearGradient>
<linearGradient id="paint1_linear_1_9890" x1="32.5098" y1="30.7421" x2="37.5032" y2="30.7421" gradientUnits="userSpaceOnUse">
<stop stop-color="#EB5896"/>
<stop offset="1" stop-color="#3CB4C7"/>
</linearGradient>
<linearGradient id="paint2_linear_1_9890" x1="12.502" y1="32.3662" x2="17.4954" y2="32.3662" gradientUnits="userSpaceOnUse">
<stop stop-color="#EB5896"/>
<stop offset="1" stop-color="#3CB4C7"/>
</linearGradient>
<linearGradient id="paint3_linear_1_9890" x1="22.5059" y1="33.5281" x2="27.4993" y2="33.5281" gradientUnits="userSpaceOnUse">
<stop stop-color="#EB5896"/>
<stop offset="1" stop-color="#3CB4C7"/>
</linearGradient>
<linearGradient id="paint4_linear_1_9890" x1="2.49609" y1="35.1926" x2="7.48954" y2="35.1926" gradientUnits="userSpaceOnUse">
<stop stop-color="#EB5896"/>
<stop offset="1" stop-color="#3CB4C7"/>
</linearGradient>
<clipPath id="clip0_1_9890">
<rect width="40" height="40" fill="white"/>
</clipPath>
</defs>
</svg>
